<svg xmlns="http://www.w3.org/2000/svg" data-name="Layer 1" viewBox="0 0 700 550" id="chinese-lantern-hanging-on-a-tree-branch-of-flowers"><path fill="#f0f5fd" d="M317.59 106.655c-7.304 14.705 45.8 70.822 114.7 78.715 36.286 4.157 85.241-4.113 86.586-17.992 2.725-28.11-189.24-84.971-201.285-60.723"></path><path fill="#f0f5fd" d="M588.594 199.988c33.132 28.525 27.805 91.39 14.98 128.126-3.412 9.77-23.666 67.783-72.33 82.154-50.886 15.03-73.842-35.083-141.25-36.598-75.132-1.69-89.991 59.586-154.472 58.373-71.14-1.341-166.978-78.07-161.722-177.749 4.095-77.658 68.476-148.884 129.656-151.685 68.91-3.155 79.996 82.962 175.852 106.85 99.405 24.772 163.494-48.895 209.286-9.47"></path><path fill="#f05b43" d="M415.717 436.495h7.573v37.306h-7.573z"></path><path fill="#f05b43" d="m419.503 416.64 11.861 11.862-11.861 11.86-11.861-11.86z"></path><path fill="#cf2633" d="M415.717 436.495h4.119v37.306h-4.119z"></path><path fill="#cf2633" d="m413.155 428.502 9.105-9.105-2.757-2.756-11.861 11.861 11.861 11.861 2.757-2.756-9.105-9.105z"></path><rect width="65.203" height="93.291" x="387.083" y="313.242" fill="#f05b43" rx="32.602"></rect><path fill="#cf2633" d="M402.13 389.16v-58.545a17.373 17.373 0 0 1 16.39-17.344 32.596 32.596 0 0 0-31.437 32.572v28.088a32.596 32.596 0 0 0 31.436 32.572 17.373 17.373 0 0 1-16.39-17.344Z"></path><path fill="#f05b43" d="M419.685 313.242a32.513 32.513 0 0 1 11.579 2.124v-8.812h-23.159v8.812a32.512 32.512 0 0 1 11.58-2.124Z"></path><path fill="#cf2633" d="M426.783 313.242a32.688 32.688 0 0 0-3.55.2 32.493 32.493 0 0 1 8.03 1.924v-1.816a32.68 32.68 0 0 0-4.48-.308ZM415.203 306.554h-7.098v8.812a32.495 32.495 0 0 1 7.098-1.816Z"></path><path fill="#f05b43" d="M419.685 406.533a32.512 32.512 0 0 1-11.58-2.124v14.832h23.159v-14.832a32.513 32.513 0 0 1-11.58 2.124Z"></path><path fill="#cf2633" d="M427.296 406.533a32.67 32.67 0 0 0 3.968-.249v-1.875a32.494 32.494 0 0 1-7.774 1.894 32.676 32.676 0 0 0 3.806.23ZM408.105 404.409v14.832h7.612v-12.957a32.494 32.494 0 0 1-7.612-1.875Z"></path><path fill="#ffcb5c" d="M419.503 406.636a17.964 17.964 0 0 1-12.827-5.363 17.778 17.778 0 0 1-3.925-6.003l-.329-.848-.25-.874a11.796 11.796 0 0 1-.406-1.776 11.931 11.931 0 0 1-.223-1.813 23.78 23.78 0 0 1-.09-1.794c-.315-9.426-.376-18.852-.422-28.278-.027-9.426.06-18.851.13-28.277a24 24 0 0 1 .053-1.809 18.276 18.276 0 0 1 .563-3.674l.242-.899.325-.872a18.264 18.264 0 0 1 3.946-6.219 17.962 17.962 0 0 1 20.266-3.882 18.61 18.61 0 0 1 5.83 4.195 17.738 17.738 0 0 1 3.722 6.108l.3.849.222.872a17.608 17.608 0 0 1 .534 3.55c.044.603.05 1.193.047 1.78.076 9.427.376 18.852.523 28.278.125 9.426.075 18.852-.21 28.278-.012.585-.03 1.177-.088 1.792a11.928 11.928 0 0 1-.22 1.811 11.743 11.743 0 0 1-.401 1.775l-.25.873-.328.847a17.76 17.76 0 0 1-3.918 5.998 17.991 17.991 0 0 1-12.816 5.375Zm0-.206a16.92 16.92 0 0 0 6.821-1.447 16.664 16.664 0 0 0 5.603-4.092 17.03 17.03 0 0 0 3.456-5.94l.27-.816.19-.838a16.756 16.756 0 0 0 .398-3.392c.024-.561.011-1.147-.01-1.74-.286-9.426-.336-18.852-.211-28.278.148-9.426.448-18.851.523-28.277a18.106 18.106 0 0 0-1.032-6.834 17.062 17.062 0 0 0-3.651-5.829 16.608 16.608 0 0 0-12.357-5.141 16.78 16.78 0 0 0-12.025 5.453 16.536 16.536 0 0 0-3.427 5.72l-.274.79-.198.813a16.393 16.393 0 0 0-.455 3.303c-.036.545-.035 1.13-.026 1.725.072 9.426.158 18.851.13 28.277-.045 9.426-.106 18.852-.42 28.278-.023.593-.036 1.179-.014 1.739a16.762 16.762 0 0 0 .39 3.388l.19.837.269.816a17.016 17.016 0 0 0 3.45 5.935 16.672 16.672 0 0 0 5.594 4.092 16.931 16.931 0 0 0 6.816 1.458ZM418.475 205.769h2.059v100.786h-2.059z"></path><circle cx="419.685" cy="292.531" r="4.326" fill="#f05b43"></circle><circle cx="419.685" cy="299.917" r="2.208" fill="#f05b43"></circle><circle cx="419.685" cy="284.807" r="2.208" fill="#f05b43"></circle><path fill="#cf2633" d="M417.567 292.531a4.324 4.324 0 0 1 3.222-4.178 4.326 4.326 0 1 0 0 8.357 4.324 4.324 0 0 1-3.222-4.179ZM419.685 299.917a2.199 2.199 0 0 1 1.104-1.902 2.208 2.208 0 1 0 0 3.804 2.199 2.199 0 0 1-1.104-1.902ZM419.685 284.807a2.199 2.199 0 0 1 1.104-1.902 2.208 2.208 0 1 0 0 3.804 2.199 2.199 0 0 1-1.104-1.902Z"></path><path fill="#fff" d="M419.698 319.967a7.642 7.642 0 0 1 7.754 2.82 8.77 8.77 0 0 1 .798 1.189c.236.412.516.79.708 1.218a18.341 18.341 0 0 1 1.86 5.128c.16.881.255 1.769.374 2.64q.07 1.324.093 2.631l-.306.036q-.382-1.25-.72-2.478c-.306-.8-.584-1.6-.916-2.37a20.513 20.513 0 0 0-1.125-2.216l-.617-1.053-.714-.97a33.248 33.248 0 0 0-3.385-3.165 39.668 39.668 0 0 0-3.83-3.102ZM431.132 337.465a12.998 12.998 0 0 1 .514 3.83 12.846 12.846 0 0 1-.514 3.831 12.847 12.847 0 0 1-.515-3.83 12.99 12.99 0 0 1 .515-3.831Z"></path><path fill="#f05b43" d="M261.084 427.363h11.277v55.55h-11.277z"></path><path fill="#cf2633" d="M261.084 427.363h5.889v55.55h-5.889z"></path><path fill="#f05b43" d="m266.973 398.36 17.661 17.66-17.661 17.662-17.661-17.661z"></path><path fill="#cf2633" d="m258.719 416.021 12.958-12.958-4.704-4.704-17.662 17.662 17.662 17.662 4.704-4.704-12.958-12.958z"></path><path fill="#f05b43" d="M328.746 348.808c0-19.767-16.28-36.633-39.26-43.483v-9.978h-44.273v9.632c-23.636 6.603-40.514 23.707-40.514 43.83 0 20.122 16.878 37.226 40.514 43.829v6.794h44.272v-7.14c22.98-6.85 39.261-23.716 39.261-43.484Z"></path><path fill="#ffcb5c" d="M274.64 305.325a59.766 59.766 0 0 1 27.774 14.657 44.423 44.423 0 0 1 9.47 13.006 36.434 36.434 0 0 1 .004 31.642 44.45 44.45 0 0 1-9.47 13.009 59.718 59.718 0 0 1-27.778 14.653c9.791-3.665 18.948-9.001 26.005-16.413a44.528 44.528 0 0 0 8.485-12.506 35.056 35.056 0 0 0 .004-29.13 44.56 44.56 0 0 0-8.486-12.508c-7.057-7.414-16.216-12.749-26.008-16.41Z"></path><path fill="#cf2633" d="M221.725 348.808c0-20.122 16.879-37.226 40.514-43.829v-9.632h-17.026v9.632c-23.636 6.603-40.514 23.707-40.514 43.83 0 20.122 16.878 37.226 40.514 43.829v6.794h17.026v-6.794c-23.635-6.603-40.514-23.707-40.514-43.83Z"></path><path fill="#ffcb5c" d="M262.239 392.638a60.632 60.632 0 0 1-28.55-14.541 44.794 44.794 0 0 1-9.803-13.165 36.463 36.463 0 0 1-.003-32.249 44.822 44.822 0 0 1 9.803-13.166 60.584 60.584 0 0 1 28.553-14.538c-10.058 3.556-19.497 8.853-26.804 16.32a44.826 44.826 0 0 0-8.805 12.666 35.013 35.013 0 0 0-.004 29.69 44.857 44.857 0 0 0 8.806 12.666c7.307 7.47 16.748 12.765 26.807 16.317ZM266.723 313.725c.662 6.028 1.009 12.057 1.244 18.085.147 3.014.18 6.029.267 9.043l.088 9.043-.084 9.042c-.089 3.015-.117 6.029-.266 9.043-.235 6.029-.583 12.057-1.25 18.086-.666-6.029-1.014-12.057-1.248-18.086-.15-3.014-.178-6.028-.267-9.043l-.084-9.042.088-9.043c.087-3.014.12-6.029.267-9.043.236-6.028.582-12.057 1.245-18.085Z"></path><path fill="#ffcb5c" d="M257.588 388.104a29.032 29.032 0 0 1-8.434-6.768 39.174 39.174 0 0 1-5.907-9.223 47.549 47.549 0 0 1-3.419-10.445 56.099 56.099 0 0 1-1.077-10.946 50.14 50.14 0 0 1 4.801-21.327 38.63 38.63 0 0 1 6.074-9.118 28.394 28.394 0 0 1 8.599-6.56 38.6 38.6 0 0 0-12.39 16.695 52.29 52.29 0 0 0-2.894 9.984 53.97 53.97 0 0 0-.991 10.347 56.512 56.512 0 0 0 .848 10.361 52.689 52.689 0 0 0 2.739 10.033 39.461 39.461 0 0 0 12.051 16.967ZM277.018 388.104a39.461 39.461 0 0 0 12.051-16.967 52.69 52.69 0 0 0 2.739-10.033 56.513 56.513 0 0 0 .848-10.36 53.97 53.97 0 0 0-.991-10.348 52.29 52.29 0 0 0-2.893-9.984 38.6 38.6 0 0 0-12.391-16.696 28.394 28.394 0 0 1 8.598 6.561 38.63 38.63 0 0 1 6.074 9.118 50.14 50.14 0 0 1 4.802 21.327 56.098 56.098 0 0 1-1.077 10.946 47.55 47.55 0 0 1-3.42 10.445 39.174 39.174 0 0 1-5.906 9.223 29.032 29.032 0 0 1-8.434 6.768Z"></path><path fill="#fff" d="M286.98 350.091a59.203 59.203 0 0 0-1.687-10.582 52.042 52.042 0 0 0-3.601-9.934 65.87 65.87 0 0 0-5.633-8.737 63.668 63.668 0 0 0-6.885-7.999l.163-.275a21.363 21.363 0 0 1 9.21 6.26 30.727 30.727 0 0 1 5.488 9.718 47.395 47.395 0 0 1 2.828 10.655 53.694 53.694 0 0 1 .438 10.894Z"></path><path fill="#f05b43" d="m266.973 270.287 12.53 12.53-12.53 12.53-12.53-12.53z"></path><path fill="#cf2633" d="m260.564 282.817 9.469-9.469-3.06-3.061-12.53 12.53 12.53 12.53 3.06-3.061-9.469-9.469z"></path><path fill="#ffcb5c" d="M265.655 220.629h2.135v49.658h-2.135zM245.213 304.98a60.856 60.856 0 0 1 10.97-2.21 88.212 88.212 0 0 1 11.188-.615c1.87.007 3.737.111 5.603.21 1.862.18 3.728.286 5.575.59a66.752 66.752 0 0 1 10.936 2.37c-3.734-.208-7.404-.558-11.092-.712a220.75 220.75 0 0 0-11.037-.325c-3.68-.064-7.36.027-11.046.137-3.687.127-7.374.308-11.097.554Z"></path><path fill="#f29720" d="M262.239 304.291v-2.024a83.024 83.024 0 0 0-6.055.504 60.86 60.86 0 0 0-10.971 2.208 350.9 350.9 0 0 1 11.097-.554q2.967-.088 5.929-.134Z"></path><path fill="#ffcb5c" d="M245.213 392.638c7.45-.07 14.82.24 22.19.32 3.683.078 7.364.093 11.039.022a106.394 106.394 0 0 0 11.043-.688 43.477 43.477 0 0 1-10.94 2.35c-1.858.234-3.722.287-5.586.402-1.862.038-3.728.075-5.589.046-3.724-.074-7.44-.281-11.138-.69a92.926 92.926 0 0 1-11.02-1.762Z"></path><path fill="#f29720" d="M262.239 392.87c-5.652-.117-11.315-.285-17.026-.232a92.917 92.917 0 0 0 11.02 1.762c1.996.22 4 .379 6.006.493Z"></path><circle cx="266.723" cy="259.41" r="6.371" fill="#f05b43"></circle><path fill="#cf2633" d="M265.289 259.41a6.373 6.373 0 0 1 3.902-5.874 6.371 6.371 0 1 0 0 11.75 6.373 6.373 0 0 1-3.902-5.876Z"></path><path fill="#f05b43" d="M544.981 399.856h11.277v55.55h-11.277z"></path><path fill="#cf2633" d="M544.981 399.856h5.889v55.55h-5.889z"></path><path fill="#f05b43" d="m550.87 370.852 17.661 17.662-17.661 17.661-17.661-17.661z"></path><path fill="#cf2633" d="m542.616 388.514 12.958-12.958-4.704-4.704-17.662 17.662 17.662 17.662 4.704-4.704-12.958-12.958z"></path><path fill="#f05b43" d="M612.643 321.301c0-19.767-16.28-36.633-39.26-43.483v-9.978H529.11v9.632c-23.636 6.603-40.514 23.707-40.514 43.83 0 20.122 16.878 37.226 40.514 43.829v6.794h44.272v-7.14c22.98-6.85 39.261-23.716 39.261-43.484Z"></path><path fill="#ffcb5c" d="M558.537 277.818a59.766 59.766 0 0 1 27.774 14.657 44.423 44.423 0 0 1 9.47 13.006 36.434 36.434 0 0 1 .004 31.642 44.451 44.451 0 0 1-9.47 13.009 59.718 59.718 0 0 1-27.778 14.653c9.791-3.665 18.948-9.001 26.005-16.413a44.528 44.528 0 0 0 8.485-12.506 35.056 35.056 0 0 0 .004-29.13 44.56 44.56 0 0 0-8.486-12.508c-7.057-7.414-16.216-12.749-26.008-16.41Z"></path><path fill="#cf2633" d="M505.622 321.301c0-20.122 16.878-37.226 40.514-43.829v-9.632H529.11v9.632c-23.636 6.603-40.514 23.707-40.514 43.83 0 20.122 16.878 37.226 40.514 43.829v6.794h17.026v-6.794c-23.636-6.603-40.514-23.707-40.514-43.83Z"></path><path fill="#ffcb5c" d="M546.136 365.13a60.632 60.632 0 0 1-28.55-14.54 44.794 44.794 0 0 1-9.803-13.165 36.463 36.463 0 0 1-.004-32.249 44.822 44.822 0 0 1 9.804-13.166 60.585 60.585 0 0 1 28.553-14.538c-10.058 3.556-19.497 8.853-26.804 16.32a44.826 44.826 0 0 0-8.806 12.666 35.013 35.013 0 0 0-.003 29.69 44.857 44.857 0 0 0 8.806 12.666c7.307 7.47 16.748 12.765 26.807 16.317ZM550.62 286.218c.662 6.028 1.008 12.057 1.244 18.085.147 3.014.18 6.029.267 9.043l.088 9.043-.084 9.043c-.09 3.014-.118 6.028-.266 9.042-.235 6.029-.583 12.057-1.25 18.086-.666-6.029-1.014-12.057-1.248-18.086-.15-3.014-.178-6.028-.267-9.042l-.084-9.043.088-9.043c.087-3.014.12-6.029.267-9.043.236-6.028.582-12.057 1.245-18.085Z"></path><path fill="#ffcb5c" d="M541.485 360.597a29.032 29.032 0 0 1-8.434-6.768 39.174 39.174 0 0 1-5.907-9.223 47.549 47.549 0 0 1-3.419-10.445 56.1 56.1 0 0 1-1.078-10.946 50.14 50.14 0 0 1 4.802-21.327 38.63 38.63 0 0 1 6.074-9.118 28.394 28.394 0 0 1 8.599-6.56 38.6 38.6 0 0 0-12.391 16.695 52.29 52.29 0 0 0-2.893 9.984 53.971 53.971 0 0 0-.991 10.347 56.513 56.513 0 0 0 .848 10.361 52.689 52.689 0 0 0 2.739 10.033 39.461 39.461 0 0 0 12.051 16.967ZM560.915 360.597a39.461 39.461 0 0 0 12.051-16.967 52.69 52.69 0 0 0 2.739-10.033 56.512 56.512 0 0 0 .848-10.36 53.969 53.969 0 0 0-.991-10.348 52.29 52.29 0 0 0-2.893-9.984 38.6 38.6 0 0 0-12.391-16.696 28.394 28.394 0 0 1 8.598 6.561 38.63 38.63 0 0 1 6.074 9.118 50.14 50.14 0 0 1 4.802 21.327 56.1 56.1 0 0 1-1.077 10.946 47.55 47.55 0 0 1-3.42 10.445 39.174 39.174 0 0 1-5.906 9.223 29.032 29.032 0 0 1-8.434 6.768Z"></path><path fill="#fff" d="M570.877 322.584a59.204 59.204 0 0 0-1.687-10.582 52.026 52.026 0 0 0-3.601-9.934 65.871 65.871 0 0 0-5.633-8.737 63.688 63.688 0 0 0-6.885-7.999l.163-.275a21.363 21.363 0 0 1 9.21 6.26 30.737 30.737 0 0 1 5.488 9.718 47.395 47.395 0 0 1 2.828 10.655 53.694 53.694 0 0 1 .437 10.894Z"></path><path fill="#f05b43" d="m550.87 242.78 12.53 12.53-12.53 12.53-12.53-12.53z"></path><path fill="#cf2633" d="m544.461 255.31 9.469-9.469-3.06-3.061-12.53 12.53 12.53 12.53 3.06-3.061-9.469-9.469z"></path><path fill="#ffcb5c" d="M549.552 193.123h2.135v49.658h-2.135zM529.11 277.472a60.856 60.856 0 0 1 10.97-2.208 88.212 88.212 0 0 1 11.188-.616c1.87.007 3.737.111 5.603.21 1.862.18 3.727.286 5.575.59a66.751 66.751 0 0 1 10.936 2.37c-3.734-.208-7.404-.558-11.092-.712-3.68-.197-7.359-.313-11.038-.325-3.678-.064-7.359.027-11.045.137a350.94 350.94 0 0 0-11.097.554Z"></path><path fill="#f29720" d="M546.136 276.784v-2.024a83.023 83.023 0 0 0-6.055.504 60.86 60.86 0 0 0-10.971 2.208 350.9 350.9 0 0 1 11.097-.554q2.967-.088 5.929-.134Z"></path><path fill="#ffcb5c" d="M529.11 365.13c7.45-.068 14.82.24 22.19.32 3.683.079 7.364.094 11.039.023a106.392 106.392 0 0 0 11.043-.688 43.476 43.476 0 0 1-10.94 2.35c-1.858.234-3.722.287-5.586.402-1.863.038-3.728.075-5.59.046-3.723-.074-7.44-.281-11.137-.69a92.926 92.926 0 0 1-11.02-1.762Z"></path><path fill="#f29720" d="M546.136 365.363c-5.653-.117-11.316-.285-17.026-.232a92.917 92.917 0 0 0 11.02 1.762c1.996.221 4 .379 6.006.493Z"></path><circle cx="550.62" cy="231.903" r="6.371" fill="#f05b43"></circle><path fill="#cf2633" d="M549.186 231.903a6.373 6.373 0 0 1 3.902-5.874 6.371 6.371 0 1 0 0 11.75 6.373 6.373 0 0 1-3.902-5.876Z"></path><path fill="#6c353c" d="M520.92 201.138a78.689 78.689 0 0 1-14.116-3.948 68.473 68.473 0 0 0-14.377-3.603 45.649 45.649 0 0 0-7.465-.2c-2.473.098-4.935.286-7.39.512-4.91.462-9.795 1.084-14.67 1.757-9.738 1.344-19.494 2.968-29.107 5.045-9.557 2.04-19.29 3.299-29.003 4.637-4.348.572-8.696 1.036-13.04 1.324q5.334-2.512 10.538-5.274a174.298 174.298 0 0 0 17.938-10.836c2.889-1.98 5.636-4.157 8.359-6.277l8.205-6.375c2.746-2.107 5.498-4.204 8.344-6.16a46.781 46.781 0 0 1 4.39-2.733 12.103 12.103 0 0 1 4.864-1.627 12.244 12.244 0 0 0-4.999 1.354 47.205 47.205 0 0 0-4.584 2.494c-2.977 1.799-5.858 3.738-8.729 5.685l-8.572 5.89c-2.865 1.972-5.674 3.942-8.613 5.71a171.306 171.306 0 0 1-18.226 9.6 228.878 228.878 0 0 1-19.045 7.756l-.06.021q-.063.023-.126.05a2.419 2.419 0 0 0-1.133.988 100.418 100.418 0 0 1-4.578-.206 104.097 104.097 0 0 1-14.348-1.882c-4.735-.964-9.442-2.21-14.148-3.53-4.706-1.33-9.409-2.73-14.117-4.127-4.698-1.405-9.367-2.816-13.982-4.382-4.635-1.543-9.124-3.26-13.747-5.046a66.117 66.117 0 0 0-7.275-2.387c-.46-.118-.92-.2-1.382-.306l41.81-31.729-48.097 30.542a97.066 97.066 0 0 0-14.942-1.117c-5.069-.026-10 .555-14.333-.019a29.219 29.219 0 0 1-6.427-1.63 37.058 37.058 0 0 1-6.06-2.947 28.747 28.747 0 0 1-5.176-4.183c-1.676-1.646-3.421-3.471-5.262-5.215a107.834 107.834 0 0 0-11.754-9.638 135.463 135.463 0 0 0-12.763-8.125 149.202 149.202 0 0 0-27.748-11.924 142.617 142.617 0 0 0-29.685-5.938c-3.208-.317-6.403-.544-9.588-.744a64.7 64.7 0 0 1 6.08-4.204 55.425 55.425 0 0 1 7.243-3.757 52.827 52.827 0 0 1 7.793-2.672 53.48 53.48 0 0 0-8.191 1.52 57.246 57.246 0 0 0-7.952 2.74 67.143 67.143 0 0 0-7.59 3.77 71.181 71.181 0 0 0-3.625 2.243c-4.62-.251-9.35-.426-14.025-.431a254.432 254.432 0 0 0-29.972 1.694l-.106.014a4.872 4.872 0 0 0 1.328 9.654 244.96 244.96 0 0 1 28.817-2.227c4.84-.093 9.605-.016 14.51.161 4.892.158 9.728.357 14.52.731a134.324 134.324 0 0 1 28.127 5.018 141.607 141.607 0 0 1 26.555 10.763 118.644 118.644 0 0 1 23.455 16.25c1.76 1.598 3.446 3.292 5.31 5.052a35.266 35.266 0 0 0 6.378 4.913c.309.183.622.345.933.516a154.39 154.39 0 0 0 7.971 18.557 139.107 139.107 0 0 0 11.595 18.99 93.702 93.702 0 0 0 15.034 16.322 72.528 72.528 0 0 0 9.04 6.404 60.997 60.997 0 0 0 10.02 4.606 60.688 60.688 0 0 1-9.698-5.124 71.614 71.614 0 0 1-8.555-6.798 91.88 91.88 0 0 1-13.838-16.798 136.072 136.072 0 0 1-10.298-19.171 157.52 157.52 0 0 1-5.502-14.366c.18.068.358.142.54.208a35.412 35.412 0 0 0 7.864 1.816 48.836 48.836 0 0 0 7.832.096c2.497-.136 4.89-.287 7.28-.342a91.41 91.41 0 0 1 14.272.783c2.375.313 4.722.684 6.985 1.216a60.914 60.914 0 0 1 6.764 2.07c4.577 1.663 9.305 3.36 14.027 4.821 4.723 1.495 9.49 2.829 14.234 4.142 4.74 1.3 9.482 2.606 14.26 3.85 4.78 1.234 9.603 2.408 14.518 3.303.405.073.814.13 1.22.199a2.427 2.427 0 0 0 1.187 1.464l.036.02c7.965 4.264 15.842 8.913 23.378 13.94a131.616 131.616 0 0 1 10.903 8.045c3.415 2.871 6.67 6.135 9.998 9.272 6.65 6.305 13.538 12.528 21.349 17.46a67.483 67.483 0 0 0 12.31 6.228 53.178 53.178 0 0 0 13.39 3.022 52.864 52.864 0 0 1-13.165-3.588 66.568 66.568 0 0 1-11.86-6.677c-7.472-5.195-13.975-11.612-20.307-18.173-3.19-3.282-6.254-6.654-9.709-9.836a134.81 134.81 0 0 0-10.805-8.74c-5.387-3.949-10.9-7.654-16.548-11.195 1.173.086 2.346.156 3.516.202 2.021.1 4.042.125 6.06.11a2.417 2.417 0 0 0 1.625-.013 170.465 170.465 0 0 0 22.002-2.114c4.88-.736 9.722-1.553 14.576-2.37a245.38 245.38 0 0 0 14.52-2.902c4.091-.972 8.194-1.844 12.306-2.661a2.43 2.43 0 0 0 1.058 2.194 46.358 46.358 0 0 0 6.455 3.568c2.158 1.029 4.363 1.906 6.573 2.745a115.891 115.891 0 0 0 13.514 4.005c4.552 1.097 9.163 1.856 13.77 2.51 2.305.322 4.625.524 6.93.79l6.944.508-6.862-1.11c-2.269-.468-4.546-.868-6.797-1.388-4.5-1.046-8.97-2.19-13.327-3.655a112.862 112.862 0 0 1-12.757-5.029c-2.046-.99-4.073-2.01-6.01-3.153a47.87 47.87 0 0 1-4.528-2.937q5.779-1.07 11.593-2.006c4.842-.77 9.694-1.49 14.557-2.05 2.431-.274 4.866-.51 7.3-.658a44.44 44.44 0 0 1 7.254.042 67.398 67.398 0 0 1 14.23 3.259 79.437 79.437 0 0 0 14.31 3.683 82.518 82.518 0 0 0 29.358-1.049 82.213 82.213 0 0 1-29.261.448Z"></path><circle cx="208.889" cy="249.946" r="5.993" fill="#f599ad"></circle><circle cx="124.795" cy="345.778" r="5.993" fill="#f599ad"></circle><circle cx="354.615" cy="360.077" r="5.993" fill="#ffd4c9"></circle><circle cx="498.246" cy="249.946" r="5.993" fill="#f599ad"></circle><circle cx="276.66" cy="94.945" r="5.993" fill="#ffd4c9"></circle><circle cx="118.802" cy="95.589" r="5.993" fill="#f599ad"></circle><circle cx="190.13" cy="156.256" r="5.993" fill="#ffd4c9"></circle><circle cx="403.432" cy="144.27" r="5.993" fill="#f599ad"></circle><circle cx="586.951" cy="235.4" r="5.993" fill="#ffd4c9"></circle><circle cx="580.958" cy="201.915" r="5.993" fill="#f599ad"></circle><circle cx="391.446" cy="225.718" r="5.993" fill="#f599ad"></circle><circle cx="431.727" cy="257.961" r="5.993" fill="#f599ad"></circle><path fill="#ffd4c9" d="M575.479 139.682a7.398 7.398 0 1 1 7.398-7.399 7.407 7.407 0 0 1-7.398 7.399Zm0-11.987a4.589 4.589 0 1 0 4.587 4.588 4.593 4.593 0 0 0-4.587-4.588ZM357.57 114.973a7.398 7.398 0 1 1 7.399-7.398 7.407 7.407 0 0 1-7.399 7.398Zm0-11.987a4.589 4.589 0 1 0 4.588 4.59 4.593 4.593 0 0 0-4.588-4.59ZM93.53 279.485a7.398 7.398 0 1 1 7.398-7.398 7.407 7.407 0 0 1-7.399 7.398Zm0-11.986a4.588 4.588 0 1 0 4.587 4.588 4.593 4.593 0 0 0-4.588-4.588ZM184.137 314.418a7.398 7.398 0 1 1 7.398-7.398 7.407 7.407 0 0 1-7.398 7.398Zm0-11.986a4.588 4.588 0 1 0 4.588 4.588 4.592 4.592 0 0 0-4.588-4.588ZM223.309 387.94a7.399 7.399 0 1 1 7.398-7.399 7.407 7.407 0 0 1-7.398 7.398Zm0-11.988a4.588 4.588 0 1 0 4.587 4.589 4.593 4.593 0 0 0-4.587-4.589ZM348.621 439.535a7.398 7.398 0 1 1 7.399-7.398 7.407 7.407 0 0 1-7.399 7.398Zm0-11.986a4.588 4.588 0 1 0 4.588 4.588 4.592 4.592 0 0 0-4.588-4.588ZM391.446 320.411a7.398 7.398 0 1 1 7.399-7.398 7.407 7.407 0 0 1-7.399 7.398Zm0-11.986a4.588 4.588 0 1 0 4.588 4.588 4.592 4.592 0 0 0-4.588-4.588ZM522.118 341.138a7.398 7.398 0 1 1 7.399-7.399 7.407 7.407 0 0 1-7.399 7.399Zm0-11.987a4.588 4.588 0 1 0 4.588 4.588 4.592 4.592 0 0 0-4.588-4.588Z"></path><circle cx="616.247" cy="327.746" r="5.993" fill="#ffd4c9"></circle><circle cx="502.556" cy="385.51" r="5.993" fill="#f599ad"></circle><path fill="#ffd4c9" d="M220.876 80.479a7.398 7.398 0 1 1 7.398-7.399 7.407 7.407 0 0 1-7.398 7.399Zm0-11.987a4.589 4.589 0 1 0 4.588 4.588 4.593 4.593 0 0 0-4.588-4.588Z"></path><path fill="#f599ad" d="M367.272 252.084a5.262 5.262 0 0 0-5.263-5.263 5.204 5.204 0 0 0-2.501.66 5.187 5.187 0 0 0 .066-.66 5.263 5.263 0 1 0-10.525 0 5.208 5.208 0 0 0 .211 1.396 5.204 5.204 0 0 0-2.41-.61 5.253 5.253 0 0 0-.822 10.442 5.256 5.256 0 1 0 8.677 5.599 5.26 5.26 0 1 0 7.8-6.352 5.245 5.245 0 0 0 4.767-5.212Zm-12.567 7.601a5.251 5.251 0 0 0-4.048-3.198 5.087 5.087 0 0 0 1.245-5.013 5.07 5.07 0 0 0 4.911-.05 5.187 5.187 0 0 0-.066.66 5.256 5.256 0 0 0 2.331 4.37 5.245 5.245 0 0 0-4.373 3.231Z"></path><ellipse cx="354.43" cy="255.056" fill="#fff" rx="4.955" ry="4.728"></ellipse><path fill="#ffd4c9" d="M354.43 258.875a3.822 3.822 0 1 1 3.958-3.82 3.895 3.895 0 0 1-3.958 3.82Zm0-5.811a1.997 1.997 0 1 0 2.131 1.992 2.068 2.068 0 0 0-2.131-1.992Z"></path><path fill="#f599ad" d="M393.21 190.373a5.262 5.262 0 0 0-2.408-7.042 5.205 5.205 0 0 0-2.536-.51 5.186 5.186 0 0 0 .35-.562 5.263 5.263 0 1 0-9.45-4.634 5.208 5.208 0 0 0-.425 1.346 5.204 5.204 0 0 0-1.896-1.609 5.253 5.253 0 0 0-5.335 9.014 5.256 5.256 0 1 0 5.326 8.847 5.26 5.26 0 1 0 9.8-2.269 5.245 5.245 0 0 0 6.574-2.581Zm-14.63 1.292a5.251 5.251 0 0 0-2.226-4.654 5.087 5.087 0 0 0 3.325-3.952 5.07 5.07 0 0 0 4.431 2.117 5.188 5.188 0 0 0-.35.563 5.256 5.256 0 0 0 .17 4.95 5.245 5.245 0 0 0-5.35.976Z"></path><ellipse cx="380.371" cy="187.388" fill="#fff" rx="4.728" ry="4.955" transform="rotate(-63.882 380.371 187.388)"></ellipse><path fill="#ffd4c9" d="M378.69 190.817a3.822 3.822 0 1 1 5.236-1.687 3.895 3.895 0 0 1-5.236 1.687Zm2.559-5.218a1.997 1.997 0 1 0 1.036 2.727 2.068 2.068 0 0 0-1.036-2.727ZM422.268 254.888a5.262 5.262 0 0 0-5.263-5.262 5.204 5.204 0 0 0-2.501.66 5.187 5.187 0 0 0 .066-.66 5.262 5.262 0 1 0-10.525 0 5.209 5.209 0 0 0 .211 1.395 5.204 5.204 0 0 0-2.41-.61 5.253 5.253 0 0 0-.822 10.442 5.256 5.256 0 1 0 8.676 5.6 5.26 5.26 0 1 0 7.801-6.352 5.245 5.245 0 0 0 4.767-5.213ZM409.7 262.49a5.251 5.251 0 0 0-4.047-3.199 5.087 5.087 0 0 0 1.245-5.012 5.07 5.07 0 0 0 4.911-.05 5.187 5.187 0 0 0-.066.66 5.256 5.256 0 0 0 2.331 4.37 5.245 5.245 0 0 0-4.374 3.23Z"></path><ellipse cx="409.426" cy="257.861" fill="#fff" rx="4.955" ry="4.728"></ellipse><path fill="#f599ad" d="M409.426 261.68a3.822 3.822 0 1 1 3.958-3.82 3.895 3.895 0 0 1-3.958 3.82Zm0-5.812a1.997 1.997 0 1 0 2.131 1.992 2.068 2.068 0 0 0-2.131-1.992ZM467.535 269.95a5.262 5.262 0 0 0-.134-7.44 5.204 5.204 0 0 0-2.258-1.263 5.185 5.185 0 0 0 .506-.428 5.262 5.262 0 1 0-7.575-7.307 5.208 5.208 0 0 0-.817 1.15 5.204 5.204 0 0 0-1.311-2.112 5.253 5.253 0 0 0-7.842 6.945 5.256 5.256 0 1 0 2.358 10.053 5.26 5.26 0 1 0 10.024.845 5.245 5.245 0 0 0 7.05-.443Zm-14.322-3.254a5.251 5.251 0 0 0-.693-5.112 5.087 5.087 0 0 0 4.377-2.743 5.07 5.07 0 0 0 3.569 3.374 5.185 5.185 0 0 0-.506.428 5.256 5.256 0 0 0-1.356 4.764 5.245 5.245 0 0 0-5.391-.71Z"></path><ellipse cx="456.229" cy="263.174" fill="#fff" rx="4.728" ry="4.955" transform="rotate(-46.032 456.228 263.175)"></ellipse><path fill="#ffd4c9" d="M453.577 265.923a3.822 3.822 0 1 1 5.501 0 3.895 3.895 0 0 1-5.5 0Zm4.035-4.183a1.997 1.997 0 1 0 .151 2.914 2.068 2.068 0 0 0-.15-2.914ZM527.64 201.26a5.262 5.262 0 0 0-7.39.878 5.204 5.204 0 0 0-1.03 2.373 5.186 5.186 0 0 0-.476-.46 5.262 5.262 0 1 0-6.512 8.268 5.209 5.209 0 0 0 1.226.698 5.204 5.204 0 0 0-1.97 1.516 5.253 5.253 0 0 0 7.695 7.107 5.256 5.256 0 1 0 9.767-3.353 5.26 5.26 0 1 0-.164-10.058 5.245 5.245 0 0 0-1.146-6.97Zm-1.803 14.576a5.251 5.251 0 0 0-5.018 1.2 5.087 5.087 0 0 0-3.167-4.079 5.07 5.07 0 0 0 3-3.889 5.185 5.185 0 0 0 .476.46 5.256 5.256 0 0 0 4.876.872 5.245 5.245 0 0 0-.167 5.436Z"></path><ellipse cx="522.03" cy="213.188" fill="#fff" rx="4.955" ry="4.728" transform="rotate(-51.777 522.03 213.188)"></ellipse><path fill="#f599ad" d="M525.03 215.55a3.822 3.822 0 1 1-.551-5.473 3.895 3.895 0 0 1 .551 5.474Zm-4.565-3.595a1.997 1.997 0 1 0 2.884-.442 2.068 2.068 0 0 0-2.884.442Z"></path><path fill="#ffd4c9" d="M563.024 190.818a5.262 5.262 0 0 0-5.263-5.262 5.204 5.204 0 0 0-2.501.66 5.186 5.186 0 0 0 .066-.66 5.263 5.263 0 1 0-10.525 0 5.208 5.208 0 0 0 .211 1.395 5.204 5.204 0 0 0-2.41-.61 5.253 5.253 0 0 0-.822 10.442 5.256 5.256 0 1 0 8.677 5.6 5.26 5.26 0 1 0 7.8-6.352 5.245 5.245 0 0 0 4.767-5.213Zm-12.568 7.602a5.251 5.251 0 0 0-4.047-3.199 5.087 5.087 0 0 0 1.245-5.012 5.07 5.07 0 0 0 4.911-.05 5.187 5.187 0 0 0-.066.66 5.256 5.256 0 0 0 2.331 4.37 5.245 5.245 0 0 0-4.374 3.23Z"></path><ellipse cx="550.182" cy="193.791" fill="#fff" rx="4.955" ry="4.728"></ellipse><path fill="#f599ad" d="M550.182 197.61a3.822 3.822 0 1 1 3.958-3.82 3.895 3.895 0 0 1-3.958 3.82Zm0-5.812a1.997 1.997 0 1 0 2.131 1.992 2.068 2.068 0 0 0-2.131-1.992Z"></path><path fill="#ffd4c9" d="M248.993 150.074a5.262 5.262 0 0 0-5.262-5.262 5.204 5.204 0 0 0-2.502.66 5.186 5.186 0 0 0 .067-.66 5.263 5.263 0 1 0-10.525 0 5.208 5.208 0 0 0 .21 1.395 5.204 5.204 0 0 0-2.41-.61 5.253 5.253 0 0 0-.822 10.442 5.256 5.256 0 1 0 8.677 5.599 5.26 5.26 0 1 0 7.8-6.351 5.245 5.245 0 0 0 4.767-5.213Zm-12.567 7.602a5.251 5.251 0 0 0-4.048-3.199 5.087 5.087 0 0 0 1.245-5.013 5.07 5.07 0 0 0 4.911-.05 5.187 5.187 0 0 0-.066.66 5.256 5.256 0 0 0 2.332 4.37 5.245 5.245 0 0 0-4.374 3.232Z"></path><ellipse cx="236.151" cy="153.047" fill="#fff" rx="4.955" ry="4.728"></ellipse><path fill="#f599ad" d="M236.151 156.866a3.822 3.822 0 1 1 3.959-3.82 3.895 3.895 0 0 1-3.959 3.82Zm0-5.812a1.997 1.997 0 1 0 2.132 1.992 2.068 2.068 0 0 0-2.132-1.992ZM190.143 116.792a6.227 6.227 0 0 0-6.227-6.227 6.158 6.158 0 0 0-2.96.78 6.138 6.138 0 0 0 .078-.78 6.227 6.227 0 1 0-12.454 0 6.163 6.163 0 0 0 .25 1.65 6.158 6.158 0 0 0-2.852-.72 6.215 6.215 0 0 0-.973 12.355 6.219 6.219 0 1 0 10.267 6.625 6.224 6.224 0 1 0 9.23-7.515 6.206 6.206 0 0 0 5.64-6.168Zm-14.871 8.995a6.214 6.214 0 0 0-4.79-3.785 6.019 6.019 0 0 0 1.473-5.932 6 6 0 0 0 5.812-.058 6.136 6.136 0 0 0-.079.78 6.22 6.22 0 0 0 2.76 5.171 6.206 6.206 0 0 0-5.176 3.824Z"></path><ellipse cx="174.947" cy="120.309" fill="#fff" rx="5.863" ry="5.595"></ellipse><path fill="#ffd4c9" d="M174.947 124.828a4.522 4.522 0 1 1 4.684-4.52 4.609 4.609 0 0 1-4.684 4.52Zm0-6.877a2.363 2.363 0 1 0 2.522 2.358 2.447 2.447 0 0 0-2.522-2.358ZM477.118 103.982a4.17 4.17 0 0 0-4.171-4.171 4.125 4.125 0 0 0-1.983.522 4.11 4.11 0 0 0 .053-.522 4.17 4.17 0 1 0-8.342 0 4.128 4.128 0 0 0 .167 1.106 4.125 4.125 0 0 0-1.91-.484 4.163 4.163 0 0 0-.651 8.276 4.165 4.165 0 1 0 6.877 4.438 4.169 4.169 0 1 0 6.182-5.034 4.157 4.157 0 0 0 3.778-4.131Zm-9.96 6.024a4.162 4.162 0 0 0-3.208-2.535 4.031 4.031 0 0 0 .986-3.973 4.019 4.019 0 0 0 3.893-.04 4.11 4.11 0 0 0-.053.524 4.166 4.166 0 0 0 1.848 3.463 4.157 4.157 0 0 0-3.466 2.561Z"></path><ellipse cx="466.94" cy="106.338" fill="#fff" rx="3.927" ry="3.747"></ellipse><path fill="#f599ad" d="M466.94 109.364a3.03 3.03 0 1 1 3.137-3.027 3.087 3.087 0 0 1-3.137 3.027Zm0-4.606a1.583 1.583 0 1 0 1.69 1.58 1.639 1.639 0 0 0-1.69-1.58Z"></path><path fill="#ffd4c9" d="M436.82 200.639a4.17 4.17 0 0 0 2.902-5.136 4.125 4.125 0 0 0-1.034-1.77 4.11 4.11 0 0 0 .517-.089 4.17 4.17 0 1 0-2.233-8.037 4.128 4.128 0 0 0-1.02.457 4.125 4.125 0 0 0-.046-1.97 4.163 4.163 0 0 0-8.148 1.587 4.165 4.165 0 1 0-2.435 7.814 4.169 4.169 0 1 0 6.505 4.61 4.157 4.157 0 0 0 4.992 2.534Zm-8.471-7.985a4.162 4.162 0 0 0 1.584-3.77 4.031 4.031 0 0 0 4.092-.112 4.019 4.019 0 0 0 1.08 3.74 4.11 4.11 0 0 0-.518.09 4.166 4.166 0 0 0-2.843 2.707 4.157 4.157 0 0 0-3.395-2.655Z"></path><ellipse cx="431.825" cy="191.462" fill="#fff" rx="3.747" ry="3.927" transform="rotate(-15.526 431.825 191.462)"></ellipse><path fill="#f599ad" d="M428.909 192.273a3.03 3.03 0 1 1 3.757 2.212 3.087 3.087 0 0 1-3.757-2.212Zm4.438-1.233a1.583 1.583 0 1 0-1.07 2.05 1.639 1.639 0 0 0 1.07-2.05Z"></path><path fill="#ffd4c9" d="M488.992 182.036a4.17 4.17 0 0 0-5.877.499 4.125 4.125 0 0 0-.879 1.852 4.112 4.112 0 0 0-.365-.377 4.17 4.17 0 1 0-5.379 6.376 4.128 4.128 0 0 0 .953.586 4.125 4.125 0 0 0-1.6 1.148 4.163 4.163 0 0 0 5.906 5.834 4.165 4.165 0 1 0 7.825-2.396 4.169 4.169 0 1 0 .138-7.971 4.157 4.157 0 0 0-.722-5.551Zm-1.816 11.498a4.162 4.162 0 0 0-4.007.817 4.031 4.031 0 0 0-2.4-3.315 4.019 4.019 0 0 0 2.48-3.001 4.109 4.109 0 0 0 .365.377 4.166 4.166 0 0 0 3.839.82 4.157 4.157 0 0 0-.277 4.302Z"></path><ellipse cx="484.231" cy="191.335" fill="#fff" rx="3.927" ry="3.747" transform="rotate(-49.854 484.23 191.335)"></ellipse><path fill="#f599ad" d="M486.545 193.286a3.03 3.03 0 1 1-.292-4.35 3.087 3.087 0 0 1 .292 4.35Zm-3.521-2.97a1.583 1.583 0 1 0 2.296-.273 1.639 1.639 0 0 0-2.296.273Z"></path><path fill="#ffd4c9" d="M299.356 163.838a4.17 4.17 0 0 0-4.17-4.171 4.125 4.125 0 0 0-1.983.522 4.11 4.11 0 0 0 .052-.522 4.17 4.17 0 1 0-8.342 0 4.128 4.128 0 0 0 .168 1.106 4.125 4.125 0 0 0-1.91-.484 4.163 4.163 0 0 0-.652 8.276 4.165 4.165 0 1 0 6.877 4.438 4.169 4.169 0 1 0 6.182-5.034 4.157 4.157 0 0 0 3.778-4.131Zm-9.96 6.024a4.162 4.162 0 0 0-3.208-2.535 4.031 4.031 0 0 0 .986-3.973 4.019 4.019 0 0 0 3.893-.039 4.11 4.11 0 0 0-.053.523 4.166 4.166 0 0 0 1.848 3.463 4.157 4.157 0 0 0-3.466 2.561Z"></path><ellipse cx="289.178" cy="166.194" fill="#fff" rx="3.927" ry="3.747"></ellipse><path fill="#f599ad" d="M289.178 169.22a3.03 3.03 0 1 1 3.137-3.027 3.087 3.087 0 0 1-3.137 3.027Zm0-4.606a1.583 1.583 0 1 0 1.69 1.58 1.639 1.639 0 0 0-1.69-1.58ZM304.001 123.634a3.306 3.306 0 0 0-3.305-3.306 3.27 3.27 0 0 0-1.572.415 3.259 3.259 0 0 0 .042-.415 3.306 3.306 0 1 0-6.611 0 3.272 3.272 0 0 0 .132.877 3.27 3.27 0 0 0-1.514-.383 3.3 3.3 0 0 0-.516 6.56 3.301 3.301 0 1 0 5.45 3.516 3.304 3.304 0 1 0 4.9-3.99 3.295 3.295 0 0 0 2.994-3.274Zm-7.894 4.775a3.299 3.299 0 0 0-2.543-2.01 3.195 3.195 0 0 0 .782-3.148 3.185 3.185 0 0 0 3.086-.031 3.257 3.257 0 0 0-.042.414 3.302 3.302 0 0 0 1.464 2.745 3.295 3.295 0 0 0-2.747 2.03Z"></path><ellipse cx="295.934" cy="125.501" fill="#fff" rx="3.112" ry="2.97"></ellipse><path fill="#ffd4c9" d="M295.934 127.9a2.4 2.4 0 1 1 2.487-2.399 2.447 2.447 0 0 1-2.487 2.4Zm0-3.65a1.254 1.254 0 1 0 1.34 1.251 1.299 1.299 0 0 0-1.34-1.251ZM152.477 106.17a4.163 4.163 0 0 0-5.82-.885 4.117 4.117 0 0 0-1.285 1.593 4.104 4.104 0 0 0-.267-.452 4.163 4.163 0 1 0-6.706 4.936 4.12 4.12 0 0 0 .788.79 4.117 4.117 0 0 0-1.821.742 4.155 4.155 0 0 0 4.373 7.038 4.158 4.158 0 1 0 8.153-.501 4.161 4.161 0 1 0 1.992-7.705 4.15 4.15 0 0 0 .593-5.556Zm-4.443 10.736a4.154 4.154 0 0 0-4.078-.14 4.024 4.024 0 0 0-1.558-3.777 4.011 4.011 0 0 0 3.106-2.335 4.103 4.103 0 0 0 .267.451 4.158 4.158 0 0 0 3.535 1.691 4.15 4.15 0 0 0-1.272 4.11Z"></path><ellipse cx="145.689" cy="114.086" fill="#fff" rx="3.92" ry="3.741" transform="rotate(-36.353 145.689 114.086)"></ellipse><path fill="#f599ad" d="M147.48 116.52a3.024 3.024 0 1 1 .73-4.29 3.081 3.081 0 0 1-.73 4.29Zm-2.726-3.704a1.58 1.58 0 1 0 2.293.27 1.636 1.636 0 0 0-2.293-.27ZM626.407 195.901a4.163 4.163 0 0 0-4.163-4.163 4.117 4.117 0 0 0-1.98.522 4.103 4.103 0 0 0 .053-.522 4.163 4.163 0 1 0-8.326 0 4.12 4.12 0 0 0 .167 1.104 4.117 4.117 0 0 0-1.907-.483 4.155 4.155 0 0 0-.65 8.261 4.158 4.158 0 1 0 6.864 4.43 4.161 4.161 0 1 0 6.171-5.025 4.15 4.15 0 0 0 3.771-4.124Zm-9.942 6.014a4.154 4.154 0 0 0-3.202-2.53 4.024 4.024 0 0 0 .985-3.966 4.011 4.011 0 0 0 3.885-.04 4.103 4.103 0 0 0-.052.522 4.158 4.158 0 0 0 1.844 3.457 4.15 4.15 0 0 0-3.46 2.557Z"></path><ellipse cx="616.247" cy="198.253" fill="#fff" rx="3.92" ry="3.741"></ellipse><path fill="#ffd4c9" d="M616.248 201.274a3.024 3.024 0 1 1 3.131-3.022 3.081 3.081 0 0 1-3.131 3.022Zm0-4.598a1.58 1.58 0 1 0 1.686 1.576 1.636 1.636 0 0 0-1.686-1.576ZM280.302 224.485a4.163 4.163 0 0 0-4.163-4.163 4.117 4.117 0 0 0-1.98.521 4.103 4.103 0 0 0 .053-.521 4.163 4.163 0 1 0-8.326 0 4.12 4.12 0 0 0 .167 1.103 4.117 4.117 0 0 0-1.907-.482 4.155 4.155 0 0 0-.65 8.26 4.158 4.158 0 1 0 6.864 4.43 4.161 4.161 0 1 0 6.171-5.025 4.15 4.15 0 0 0 3.77-4.123Zm-9.942 6.013a4.154 4.154 0 0 0-3.202-2.53 4.024 4.024 0 0 0 .985-3.966 4.011 4.011 0 0 0 3.885-.039 4.103 4.103 0 0 0-.053.522 4.158 4.158 0 0 0 1.845 3.457 4.15 4.15 0 0 0-3.46 2.556Z"></path><ellipse cx="270.142" cy="226.836" fill="#fff" rx="3.92" ry="3.741"></ellipse><path fill="#f599ad" d="M270.142 229.858a3.024 3.024 0 1 1 3.132-3.022 3.081 3.081 0 0 1-3.132 3.022Zm0-4.598a1.58 1.58 0 1 0 1.687 1.576 1.636 1.636 0 0 0-1.687-1.576ZM315.482 249.52a4.163 4.163 0 0 0-1.537-5.683 4.117 4.117 0 0 0-1.976-.534 4.104 4.104 0 0 0 .305-.426 4.163 4.163 0 1 0-7.22-4.147 4.12 4.12 0 0 0-.405 1.04 4.117 4.117 0 0 0-1.413-1.367 4.155 4.155 0 0 0-4.678 6.84 4.158 4.158 0 1 0 3.746 7.259 4.161 4.161 0 1 0 7.854-1.284 4.15 4.15 0 0 0 5.324-1.698Zm-11.617.264a4.154 4.154 0 0 0-1.516-3.79 4.024 4.024 0 0 0 2.829-2.948 4.011 4.011 0 0 0 3.389 1.901 4.103 4.103 0 0 0-.306.426 4.158 4.158 0 0 0-.122 3.917 4.15 4.15 0 0 0-4.274.494Z"></path><ellipse cx="305.5" cy="246.5" fill="#fff" rx="3.741" ry="3.92" transform="rotate(-60.131 305.5 246.5)"></ellipse><path fill="#ffd4c9" d="M303.996 249.12a3.024 3.024 0 1 1 4.22-1.06 3.081 3.081 0 0 1-4.22 1.06Zm2.29-3.987a1.58 1.58 0 1 0 .677 2.206 1.636 1.636 0 0 0-.677-2.206Z"></path><path fill="#f599ad" d="M377.746 330.334a4.163 4.163 0 0 0-1.537-5.684 4.117 4.117 0 0 0-1.976-.533 4.104 4.104 0 0 0 .306-.426 4.163 4.163 0 1 0-7.22-4.147 4.12 4.12 0 0 0-.406 1.04 4.117 4.117 0 0 0-1.413-1.368 4.155 4.155 0 0 0-4.678 6.84 4.158 4.158 0 1 0 3.746 7.26 4.161 4.161 0 1 0 7.854-1.285 4.15 4.15 0 0 0 5.324-1.697Zm-11.616.263a4.154 4.154 0 0 0-1.517-3.79 4.024 4.024 0 0 0 2.829-2.947 4.011 4.011 0 0 0 3.389 1.9 4.102 4.102 0 0 0-.306.427 4.158 4.158 0 0 0-.122 3.916 4.15 4.15 0 0 0-4.273.494Z"></path><ellipse cx="367.765" cy="327.313" fill="#fff" rx="3.741" ry="3.92" transform="rotate(-60.131 367.765 327.313)"></ellipse><path fill="#ffd4c9" d="M366.26 329.933a3.024 3.024 0 1 1 4.22-1.06 3.081 3.081 0 0 1-4.22 1.06Zm2.29-3.987a1.58 1.58 0 1 0 .677 2.207 1.636 1.636 0 0 0-.677-2.207Z"></path><path fill="#f599ad" d="M221.171 326.852a4.163 4.163 0 0 0-1.537-5.684 4.117 4.117 0 0 0-1.976-.533 4.103 4.103 0 0 0 .306-.426 4.163 4.163 0 1 0-7.22-4.147 4.12 4.12 0 0 0-.406 1.04 4.117 4.117 0 0 0-1.413-1.368 4.155 4.155 0 0 0-4.678 6.84 4.158 4.158 0 1 0 3.747 7.26 4.161 4.161 0 1 0 7.854-1.284 4.15 4.15 0 0 0 5.323-1.698Zm-11.616.263a4.154 4.154 0 0 0-1.517-3.789 4.024 4.024 0 0 0 2.83-2.948 4.011 4.011 0 0 0 3.388 1.9 4.104 4.104 0 0 0-.305.427 4.158 4.158 0 0 0-.122 3.916 4.15 4.15 0 0 0-4.274.494Z"></path><ellipse cx="211.19" cy="323.831" fill="#fff" rx="3.741" ry="3.92" transform="rotate(-60.131 211.19 323.831)"></ellipse><path fill="#ffd4c9" d="M209.685 326.451a3.024 3.024 0 1 1 4.22-1.06 3.081 3.081 0 0 1-4.22 1.06Zm2.29-3.987a1.58 1.58 0 1 0 .678 2.207 1.636 1.636 0 0 0-.678-2.207Z"></path><path fill="#f599ad" d="M484.535 400.572a4.163 4.163 0 0 0-1.536-5.684 4.117 4.117 0 0 0-1.976-.533 4.103 4.103 0 0 0 .305-.426 4.163 4.163 0 1 0-7.22-4.147 4.12 4.12 0 0 0-.405 1.04 4.117 4.117 0 0 0-1.413-1.368 4.155 4.155 0 0 0-4.678 6.84 4.158 4.158 0 1 0 3.746 7.26 4.161 4.161 0 1 0 7.854-1.284 4.15 4.15 0 0 0 5.323-1.698Zm-11.616.263a4.154 4.154 0 0 0-1.516-3.789 4.024 4.024 0 0 0 2.829-2.948 4.011 4.011 0 0 0 3.388 1.9 4.103 4.103 0 0 0-.305.427 4.158 4.158 0 0 0-.122 3.916 4.15 4.15 0 0 0-4.274.494Z"></path><ellipse cx="474.554" cy="397.551" fill="#fff" rx="3.741" ry="3.92" transform="rotate(-60.131 474.554 397.551)"></ellipse><path fill="#ffd4c9" d="M473.05 400.171a3.024 3.024 0 1 1 4.22-1.06 3.081 3.081 0 0 1-4.22 1.06Zm2.29-3.987a1.58 1.58 0 1 0 .677 2.207 1.636 1.636 0 0 0-.677-2.207ZM320.367 205.64a7.503 7.503 0 0 0-7.503-7.502 7.42 7.42 0 0 0-3.567.94 7.396 7.396 0 0 0 .095-.94 7.503 7.503 0 1 0-15.006 0 7.426 7.426 0 0 0 .3 1.989 7.42 7.42 0 0 0-3.436-.87 7.49 7.49 0 0 0-1.172 14.889 7.493 7.493 0 1 0 12.37 7.982 7.5 7.5 0 1 0 11.123-9.055 7.478 7.478 0 0 0 6.796-7.432Zm-17.918 10.838a7.487 7.487 0 0 0-5.771-4.56 7.252 7.252 0 0 0 1.775-7.147 7.23 7.23 0 0 0 7.002-.07 7.395 7.395 0 0 0-.094.94 7.494 7.494 0 0 0 3.324 6.23 7.478 7.478 0 0 0-6.236 4.607Z"></path><ellipse cx="302.057" cy="209.879" fill="#fff" rx="7.064" ry="6.741"></ellipse><path fill="#f599ad" d="M302.057 215.324a5.45 5.45 0 1 1 5.644-5.446 5.553 5.553 0 0 1-5.644 5.446Zm0-8.286a2.847 2.847 0 1 0 3.04 2.84 2.948 2.948 0 0 0-3.04-2.84ZM264.934 224.742a7.503 7.503 0 0 0-.853-10.577 7.42 7.42 0 0 0-3.325-1.595 7.394 7.394 0 0 0 .681-.654 7.503 7.503 0 1 0-11.43-9.724 7.426 7.426 0 0 0-1.06 1.71 7.42 7.42 0 0 0-2.053-2.89 7.49 7.49 0 0 0-10.54 10.58 7.493 7.493 0 1 0 4.25 14.097 7.5 7.5 0 1 0 14.338.31 7.478 7.478 0 0 0 9.992-1.257Zm-20.67-3.356a7.487 7.487 0 0 0-1.44-7.213 7.252 7.252 0 0 0 5.983-4.294 7.23 7.23 0 0 0 5.379 4.484 7.396 7.396 0 0 0-.681.655 7.494 7.494 0 0 0-1.506 6.9 7.478 7.478 0 0 0-7.735-.532Z"></path><ellipse cx="248.242" cy="216.105" fill="#fff" rx="6.741" ry="7.064" transform="rotate(-49.609 248.242 216.105)"></ellipse><path fill="#ffd4c9" d="M244.714 220.252a5.45 5.45 0 1 1 7.828-.49 5.553 5.553 0 0 1-7.828.49Zm5.37-6.31a2.847 2.847 0 1 0 .474 4.132 2.948 2.948 0 0 0-.474-4.133Z"></path><path fill="#f599ad" d="M219.454 171.297a7.503 7.503 0 0 0-10.184 2.982 7.42 7.42 0 0 0-.887 3.58 7.395 7.395 0 0 0-.779-.535 7.503 7.503 0 1 0-7.201 13.166 7.426 7.426 0 0 0 1.89.69 7.42 7.42 0 0 0-2.413 2.598 7.49 7.49 0 0 0 12.5 8.173 7.493 7.493 0 1 0 12.94-7.022 7.5 7.5 0 1 0-2.608-14.103 7.478 7.478 0 0 0-3.258-9.53Zm.909 20.92a7.487 7.487 0 0 0-6.77 2.875 7.252 7.252 0 0 0-5.419-4.987 7.23 7.23 0 0 0 3.299-6.177 7.396 7.396 0 0 0 .78.534 7.494 7.494 0 0 0 7.06.074 7.478 7.478 0 0 0 1.05 7.682Z"></path><ellipse cx="214.385" cy="189.394" fill="#fff" rx="7.064" ry="6.741" transform="rotate(-61.321 214.385 189.394)"></ellipse><path fill="#ffd4c9" d="M219.162 192.007a5.45 5.45 0 1 1-2.07-7.565 5.553 5.553 0 0 1 2.07 7.565Zm-7.27-3.976a2.847 2.847 0 1 0 3.95-1.303 2.948 2.948 0 0 0-3.95 1.303Z"></path><path fill="#f599ad" d="M361.192 150.867a9.644 9.644 0 0 0-9.644-9.644 9.538 9.538 0 0 0-4.585 1.208 9.505 9.505 0 0 0 .122-1.208 9.644 9.644 0 1 0-19.288 0 9.545 9.545 0 0 0 .386 2.557 9.537 9.537 0 0 0-4.416-1.118 9.626 9.626 0 0 0-1.507 19.137 9.631 9.631 0 1 0 15.9 10.26 9.64 9.64 0 1 0 14.296-11.64 9.611 9.611 0 0 0 8.736-9.552Zm-23.031 13.93a9.623 9.623 0 0 0-7.418-5.861 9.322 9.322 0 0 0 2.282-9.187 9.292 9.292 0 0 0 9-.09 9.505 9.505 0 0 0-.122 1.208 9.632 9.632 0 0 0 4.273 8.008 9.612 9.612 0 0 0-8.015 5.922Z"></path><ellipse cx="337.657" cy="156.315" fill="#fff" rx="9.08" ry="8.665"></ellipse><path fill="#ffd4c9" d="M337.657 163.313a7.004 7.004 0 1 1 7.255-7 7.138 7.138 0 0 1-7.255 7Zm0-10.65a3.66 3.66 0 1 0 3.907 3.65 3.79 3.79 0 0 0-3.907-3.65Z"></path><path fill="#f599ad" d="M474.246 143.152a9.644 9.644 0 0 0-13.28-3.107 9.538 9.538 0 0 0-3.257 3.444 9.504 9.504 0 0 0-.534-1.09 9.644 9.644 0 1 0-16.387 10.173 9.545 9.545 0 0 0 1.677 1.969 9.537 9.537 0 0 0-4.342 1.38 9.626 9.626 0 0 0 8.814 17.053 9.631 9.631 0 1 0 18.92.33 9.64 9.64 0 1 0 6.006-17.43 9.611 9.611 0 0 0 2.383-12.722Zm-12.219 23.982a9.623 9.623 0 0 0-9.394-1.067 9.322 9.322 0 0 0-2.907-9.008 9.292 9.292 0 0 0 7.6-4.825 9.503 9.503 0 0 0 .533 1.091 9.632 9.632 0 0 0 7.854 4.55 9.612 9.612 0 0 0-3.686 9.26Z"></path><ellipse cx="457.125" cy="160.193" fill="#fff" rx="9.08" ry="8.665" transform="rotate(-31.834 457.125 160.193)"></ellipse><path fill="#ffd4c9" d="M460.816 166.139a7.004 7.004 0 1 1 2.472-9.773 7.138 7.138 0 0 1-2.472 9.773Zm-5.617-9.049a3.66 3.66 0 1 0 5.244 1.042 3.79 3.79 0 0 0-5.244-1.042Z"></path><path fill="#f599ad" d="M456.34 224.013a3.306 3.306 0 0 0-3.306-3.306 3.27 3.27 0 0 0-1.572.415 3.257 3.257 0 0 0 .042-.415 3.306 3.306 0 1 0-6.611 0 3.272 3.272 0 0 0 .132.877 3.27 3.27 0 0 0-1.514-.383 3.3 3.3 0 0 0-.516 6.56 3.301 3.301 0 1 0 5.45 3.516 3.304 3.304 0 1 0 4.9-3.99 3.294 3.294 0 0 0 2.994-3.274Zm-7.895 4.775a3.299 3.299 0 0 0-2.543-2.01 3.195 3.195 0 0 0 .782-3.148 3.185 3.185 0 0 0 3.086-.031 3.257 3.257 0 0 0-.042.414 3.302 3.302 0 0 0 1.464 2.745 3.295 3.295 0 0 0-2.747 2.03Z"></path><ellipse cx="448.272" cy="225.88" fill="#fff" rx="3.112" ry="2.97"></ellipse><path fill="#ffd4c9" d="M448.272 228.28a2.4 2.4 0 1 1 2.487-2.4 2.447 2.447 0 0 1-2.487 2.4Zm0-3.651a1.254 1.254 0 1 0 1.34 1.251 1.299 1.299 0 0 0-1.34-1.251ZM495.49 167.864a3.306 3.306 0 0 0-3.306-3.306 3.27 3.27 0 0 0-1.571.414 3.257 3.257 0 0 0 .042-.414 3.306 3.306 0 1 0-6.612 0 3.272 3.272 0 0 0 .133.876 3.27 3.27 0 0 0-1.514-.383 3.3 3.3 0 0 0-.517 6.56 3.301 3.301 0 1 0 5.45 3.516 3.304 3.304 0 1 0 4.9-3.99 3.295 3.295 0 0 0 2.995-3.273Zm-7.894 4.774a3.299 3.299 0 0 0-2.543-2.009 3.195 3.195 0 0 0 .782-3.149 3.185 3.185 0 0 0 3.085-.03 3.257 3.257 0 0 0-.042.414 3.302 3.302 0 0 0 1.465 2.745 3.295 3.295 0 0 0-2.747 2.03Z"></path><ellipse cx="487.423" cy="169.731" fill="#fff" rx="3.112" ry="2.97"></ellipse><path fill="#f599ad" d="M487.423 172.13a2.4 2.4 0 1 1 2.487-2.4 2.447 2.447 0 0 1-2.487 2.4Zm0-3.651a1.254 1.254 0 1 0 1.339 1.251 1.299 1.299 0 0 0-1.339-1.251Z"></path><path fill="#ffd4c9" d="M601.937 394.59a3.306 3.306 0 0 0-3.306-3.305.817.817 0 1 1-1.53 0 3.306 3.306 0 1 0-6.61 0 .796.796 0 1 1-1.382.493 3.3 3.3 0 0 0-.517 6.56 3.301 3.301 0 1 0 5.45 3.516 3.304 3.304 0 1 0 4.9-3.99 3.294 3.294 0 0 0 2.995-3.274Zm-7.894 4.775a3.299 3.299 0 0 0-2.543-2.01 1.797 1.797 0 1 1 2.296-2.765.817.817 0 1 1 1.53 0 3.302 3.302 0 0 0 1.464 2.745 3.295 3.295 0 0 0-2.747 2.03Z"></path><ellipse cx="593.87" cy="396.458" fill="#fff" rx="3.112" ry="2.97"></ellipse><path fill="#f599ad" d="M593.87 398.856a2.4 2.4 0 1 1 2.487-2.399 2.447 2.447 0 0 1-2.487 2.4Zm0-3.65a1.254 1.254 0 1 0 1.34 1.251 1.299 1.299 0 0 0-1.34-1.251Z"></path><path fill="#ffd4c9" d="M493.015 345.275a3.306 3.306 0 0 0-3.305-3.305.817.817 0 1 1-1.53 0 3.306 3.306 0 1 0-6.611 0 3.272 3.272 0 0 0 .132.876 3.27 3.27 0 0 0-1.514-.383 3.3 3.3 0 0 0-.516 6.56 3.301 3.301 0 1 0 5.45 3.516 3.304 3.304 0 1 0 4.9-3.99 3.295 3.295 0 0 0 2.994-3.274Zm-7.894 4.775a3.299 3.299 0 0 0-2.542-2.009 3.195 3.195 0 0 0 .782-3.149 1.543 1.543 0 1 1 3.043.383 3.302 3.302 0 0 0 1.465 2.746 3.295 3.295 0 0 0-2.748 2.03Z"></path><ellipse cx="484.948" cy="347.143" fill="#fff" rx="3.112" ry="2.97"></ellipse><path fill="#f599ad" d="M484.949 349.542a2.4 2.4 0 1 1 2.486-2.4 2.447 2.447 0 0 1-2.486 2.4Zm0-3.651a1.254 1.254 0 1 0 1.339 1.251 1.299 1.299 0 0 0-1.34-1.251Z"></path><path fill="#ffd4c9" d="M256.25 284.093a3.306 3.306 0 0 0-3.306-3.306 3.27 3.27 0 0 0-1.572.414 3.257 3.257 0 0 0 .042-.414 3.306 3.306 0 1 0-6.611 0 3.272 3.272 0 0 0 .132.877 3.27 3.27 0 0 0-1.514-.383 3.3 3.3 0 0 0-.516 6.559 3.301 3.301 0 1 0 5.45 3.517 3.304 3.304 0 1 0 4.9-3.99 3.294 3.294 0 0 0 2.994-3.274Zm-7.895 4.775a3.299 3.299 0 0 0-2.542-2.01 3.195 3.195 0 0 0 .782-3.148 3.185 3.185 0 0 0 3.085-.031 3.259 3.259 0 0 0-.042.414 3.302 3.302 0 0 0 1.465 2.745 3.295 3.295 0 0 0-2.748 2.03Z"></path><ellipse cx="248.182" cy="285.96" fill="#fff" rx="3.112" ry="2.97"></ellipse><path fill="#f599ad" d="M248.183 288.36a2.4 2.4 0 1 1 2.486-2.4 2.447 2.447 0 0 1-2.486 2.4Zm0-3.652a1.254 1.254 0 1 0 1.339 1.252 1.299 1.299 0 0 0-1.34-1.252Z"></path><path fill="#ffd4c9" d="M116.63 186.005a3.306 3.306 0 0 0-3.305-3.306 3.27 3.27 0 0 0-1.571.415 3.259 3.259 0 0 0 .042-.415 3.306 3.306 0 1 0-6.612 0 3.272 3.272 0 0 0 .133.877 3.27 3.27 0 0 0-1.514-.383 3.3 3.3 0 0 0-.517 6.56 3.301 3.301 0 1 0 5.45 3.516 3.304 3.304 0 1 0 4.9-3.99 3.294 3.294 0 0 0 2.995-3.274Zm-7.893 4.775a3.299 3.299 0 0 0-2.543-2.01 3.195 3.195 0 0 0 .782-3.148 3.185 3.185 0 0 0 3.085-.031 3.257 3.257 0 0 0-.042.414 3.302 3.302 0 0 0 1.465 2.745 3.295 3.295 0 0 0-2.747 2.03Z"></path><ellipse cx="108.564" cy="187.872" fill="#fff" rx="3.112" ry="2.97"></ellipse><path fill="#f599ad" d="M108.564 190.271a2.4 2.4 0 1 1 2.487-2.399 2.447 2.447 0 0 1-2.487 2.4Zm0-3.65a1.254 1.254 0 1 0 1.339 1.251 1.299 1.299 0 0 0-1.34-1.251Z"></path><path fill="#ffd4c9" d="M411.5 97.047a3.306 3.306 0 0 0-3.306-3.306 3.27 3.27 0 0 0-1.572.414 3.257 3.257 0 0 0 .042-.414 3.306 3.306 0 1 0-6.611 0 3.272 3.272 0 0 0 .132.877 3.27 3.27 0 0 0-1.514-.384 3.3 3.3 0 0 0-.516 6.56 3.301 3.301 0 1 0 5.45 3.517 3.304 3.304 0 1 0 4.9-3.99 3.294 3.294 0 0 0 2.994-3.274Zm-7.895 4.775a3.299 3.299 0 0 0-2.543-2.01 3.195 3.195 0 0 0 .782-3.148 3.185 3.185 0 0 0 3.086-.031 3.257 3.257 0 0 0-.042.414 3.302 3.302 0 0 0 1.464 2.745 3.295 3.295 0 0 0-2.747 2.03Z"></path><ellipse cx="403.432" cy="98.914" fill="#fff" rx="3.112" ry="2.97"></ellipse><path fill="#f599ad" d="M403.432 101.313a2.4 2.4 0 1 1 2.487-2.4 2.447 2.447 0 0 1-2.487 2.4Zm0-3.65a1.254 1.254 0 1 0 1.34 1.25 1.299 1.299 0 0 0-1.34-1.25Z"></path><path fill="#f05b43" d="M125.125 296.539h8.568v42.207h-8.568z"></path><path fill="#cf2633" d="M125.125 296.539h4.474v42.207h-4.474z"></path><path fill="#f05b43" d="m129.599 274.502 13.42 13.42-13.42 13.42-13.42-13.42z"></path><path fill="#cf2633" d="m123.328 287.922 9.845-9.846-3.574-3.574-13.419 13.42 13.419 13.419 3.574-3.574-9.845-9.845z"></path><path fill="#f05b43" d="M176.535 236.853c0-15.02-12.37-27.834-29.83-33.039v-7.581h-33.639v7.318c-17.958 5.017-30.783 18.013-30.783 33.302 0 15.29 12.825 28.285 30.783 33.302v5.162h33.639v-5.425c17.46-5.204 29.83-18.02 29.83-33.039Z"></path><path fill="#ffcb5c" d="M135.425 203.814a45.41 45.41 0 0 1 21.103 11.136 33.753 33.753 0 0 1 7.195 9.883 27.683 27.683 0 0 1 .003 24.042 33.774 33.774 0 0 1-7.195 9.883 45.374 45.374 0 0 1-21.106 11.134 52.409 52.409 0 0 0 19.759-12.47 33.833 33.833 0 0 0 6.447-9.503 26.636 26.636 0 0 0 .003-22.133 33.857 33.857 0 0 0-6.448-9.504 52.357 52.357 0 0 0-19.761-12.468Z"></path><path fill="#cf2633" d="M95.22 236.853c0-15.289 12.824-28.285 30.783-33.302v-7.318h-12.937v7.318c-17.958 5.017-30.783 18.013-30.783 33.302 0 15.29 12.825 28.285 30.783 33.302v5.162h12.937v-5.162c-17.959-5.017-30.783-18.013-30.783-33.302Z"></path><path fill="#ffcb5c" d="M126.003 270.155a46.069 46.069 0 0 1-21.693-11.049 34.035 34.035 0 0 1-7.448-10.002 27.705 27.705 0 0 1-.003-24.503 34.056 34.056 0 0 1 7.449-10.004 46.033 46.033 0 0 1 21.694-11.046c-7.642 2.702-14.813 6.726-20.365 12.4a34.06 34.06 0 0 0-6.69 9.624 26.603 26.603 0 0 0-.004 22.558 34.083 34.083 0 0 0 6.691 9.624c5.552 5.675 12.725 9.7 20.369 12.398ZM129.41 210.196c.503 4.58.766 9.161.945 13.742.112 2.29.137 4.58.203 6.87l.067 6.871-.064 6.87c-.068 2.291-.09 4.581-.203 6.872-.178 4.58-.442 9.16-.949 13.741-.506-4.58-.77-9.16-.949-13.741-.113-2.29-.134-4.58-.202-6.871l-.064-6.87.067-6.872c.066-2.29.09-4.58.203-6.87.179-4.58.442-9.161.945-13.742Z"></path><path fill="#ffcb5c" d="M122.469 266.71a22.059 22.059 0 0 1-6.409-5.143 29.765 29.765 0 0 1-4.487-7.007 36.128 36.128 0 0 1-2.598-7.936 42.624 42.624 0 0 1-.82-8.317 38.096 38.096 0 0 1 3.65-16.205 29.352 29.352 0 0 1 4.614-6.927 21.574 21.574 0 0 1 6.534-4.985 29.329 29.329 0 0 0-9.415 12.685 39.73 39.73 0 0 0-2.198 7.586 41.006 41.006 0 0 0-.753 7.862 42.94 42.94 0 0 0 .644 7.872 40.032 40.032 0 0 0 2.081 7.624 29.983 29.983 0 0 0 9.157 12.891ZM137.231 266.71a29.983 29.983 0 0 0 9.157-12.891 40.033 40.033 0 0 0 2.081-7.623 42.938 42.938 0 0 0 .645-7.873 41.006 41.006 0 0 0-.754-7.862 39.73 39.73 0 0 0-2.198-7.586 29.328 29.328 0 0 0-9.414-12.685 21.574 21.574 0 0 1 6.533 4.985 29.352 29.352 0 0 1 4.615 6.927 38.096 38.096 0 0 1 3.648 16.205 42.624 42.624 0 0 1-.818 8.317 36.128 36.128 0 0 1-2.598 7.936 29.765 29.765 0 0 1-4.488 7.008 22.059 22.059 0 0 1-6.409 5.142Z"></path><path fill="#fff" d="M144.801 237.828a44.99 44.99 0 0 0-1.282-8.04 36.805 36.805 0 0 0-2.736-7.549 50.068 50.068 0 0 0-4.28-6.638 48.393 48.393 0 0 0-5.232-6.077l.125-.21a16.232 16.232 0 0 1 6.998 4.756 23.35 23.35 0 0 1 4.17 7.385 38.401 38.401 0 0 1 2.148 8.095 40.815 40.815 0 0 1 .332 8.278Z"></path><path fill="#f05b43" d="m129.6 177.191 9.52 9.52-9.52 9.521-9.521-9.52z"></path><path fill="#cf2633" d="m124.73 186.712 7.195-7.195-2.326-2.325-9.52 9.52 9.52 9.521 2.326-2.326-7.195-7.195z"></path><path fill="#ffcb5c" d="M128.599 139.461h1.621v37.73h-1.621zM113.066 203.551a46.239 46.239 0 0 1 8.336-1.678 67.025 67.025 0 0 1 8.5-.468c1.42.006 2.84.085 4.257.16 1.415.137 2.832.218 4.236.448a50.718 50.718 0 0 1 8.31 1.801c-2.838-.158-5.627-.424-8.429-.541-2.796-.15-5.59-.238-8.386-.247-2.795-.048-5.591.02-8.392.104-2.802.096-5.603.234-8.432.421Z"></path><path fill="#f29720" d="M126.002 203.029v-1.538a63.08 63.08 0 0 0-4.6.382 46.244 46.244 0 0 0-8.336 1.678 266.62 266.62 0 0 1 8.432-.421q2.254-.067 4.504-.101Z"></path><path fill="#ffcb5c" d="M113.066 270.155c5.661-.053 11.26.182 16.86.243 2.799.06 5.595.07 8.387.017a80.835 80.835 0 0 0 8.392-.523 33.034 33.034 0 0 1-8.313 1.786c-1.411.177-2.828.217-4.244.305-1.415.03-2.833.057-4.247.035-2.83-.056-5.653-.213-8.462-.524a70.604 70.604 0 0 1-8.373-1.34Z"></path><path fill="#f29720" d="M126.002 270.332c-4.294-.09-8.597-.217-12.936-.177a70.598 70.598 0 0 0 8.373 1.339c1.517.168 3.039.288 4.564.374Z"></path><circle cx="129.409" cy="168.928" r="4.841" fill="#f05b43"></circle><path fill="#cf2633" d="M128.32 168.928a4.842 4.842 0 0 1 2.965-4.464 4.841 4.841 0 1 0 0 8.927 4.842 4.842 0 0 1-2.965-4.463Z"></path><path fill="#ffd4c9" d="M133.96 151.914a4.163 4.163 0 0 0 1.143-5.776 4.117 4.117 0 0 0-1.534-1.354 4.103 4.103 0 0 0 .463-.246 4.163 4.163 0 1 0-4.633-6.919 4.12 4.12 0 0 0-.825.753 4.117 4.117 0 0 0-.66-1.853 4.155 4.155 0 0 0-7.226 4.056 4.158 4.158 0 1 0 .14 8.168 4.161 4.161 0 1 0 7.608 2.332 4.15 4.15 0 0 0 5.525.84ZM123.433 147a4.154 4.154 0 0 0 .32-4.069 4.024 4.024 0 0 0 3.844-1.388 4.011 4.011 0 0 0 2.194 3.207 4.102 4.102 0 0 0-.462.247 4.158 4.158 0 0 0-1.847 3.456 4.15 4.15 0 0 0-4.049-1.453Z"></path><ellipse cx="126.354" cy="144.781" fill="#fff" rx="3.741" ry="3.92" transform="rotate(-33.808 126.354 144.78)"></ellipse><path fill="#f599ad" d="M123.843 146.462a3.024 3.024 0 1 1 4.254.92 3.081 3.081 0 0 1-4.254-.92Zm3.82-2.558a1.58 1.58 0 1 0-.37 2.278 1.636 1.636 0 0 0 .37-2.278Z"></path></svg>