<svg xmlns="http://www.w3.org/2000/svg" data-name="Layer 1" viewBox="0 0 700 550" id="decorative-chinese-lantern"><path fill="#f0f5fd" d="M197.143 473.634c-38.48-28.919-74.447-84.4-61.444-128.386 11.036-37.336 48.611-37.075 59.55-76.206 12.752-45.613-31.173-71.467-26.778-108.278C179.181 71.07 466.277 4.111 502.617 67.622c25.732 44.972-88.62 130.274-57.05 186.283 28.18 49.997 134.848 9.622 165.326 61.707 25.402 43.407-15.171 128.709-75.36 166.378-32.154 20.122-75.143 18.912-159.796 19.843-93.197 1.023-140.578.37-178.594-28.2"></path><path fill="#f7b05c" d="m287.707 223.442-44.38 1.065 33.632.807-26.311.628 22.124.533-34.828.831 49.267 1.178q-.35 2.593-.885 5.132l-30.307.724 20.312.485-13.41.323 22.932.55a69.78 69.78 0 0 1-2.476 8.104l-40.924.981 25.654.616-16.813.401 30.994.742a71.712 71.712 0 0 1-18.045 25.426l-32.113.771 30.396.73a2.226 2.226 0 0 1-.185.162l-22.89.544 21.592.52c-.012.012-.018.024-.03.024l-34.266.82 32.214.771a71.7 71.7 0 0 1-113.852-66.846v-.006l29.099-.694-16.808-.4 25.648-.616-37.55-.898a68.368 68.368 0 0 1 1.932-8.373l15.15-.365-13.41-.323 20.312-.485-21.532-.514q.996-3.131 2.285-6.13l37.323-.892-33.328-.796 20.624-.496-23.315-.556 30.636-.736-29.984-.718a71.71 71.71 0 0 1 103.858-27.256l-28.459.682 29.924.718-23.022.687 25.51.766a71.53 71.53 0 0 1 27.86 56.726c0 1.561-.047 3.116-.155 4.653Z"></path><path fill="#f9c985" d="M81.402 234.191c8.79-3.688 16.218-6.773 21.826-9.094 14.498-6 17.013-6.956 21.306-7.535 6.805-.919 12.851.167 24.945 2.338 15.664 2.813 14.45 4.237 21.046 4.417 11.984.327 21.545-4.223 30.141-8.314 12.655-6.024 11.915-8.758 21.306-11.953a56.585 56.585 0 0 1 28.842-1.819c7.297 1.51 10.98 3.924 29.621 15.33a5347.093 5347.093 0 0 0 26.503 16.11ZM580.428 269.816a4812.778 4812.778 0 0 0-21.826-9.094c-14.498-6-17.013-6.956-21.307-7.536-6.804-.918-12.85.168-24.944 2.339-15.664 2.812-14.45 4.237-21.047 4.417-11.983.327-21.544-4.223-30.14-8.315-12.656-6.023-11.916-8.757-21.307-11.952a56.585 56.585 0 0 0-28.842-1.819c-7.296 1.509-10.98 3.924-29.62 15.33a5346.418 5346.418 0 0 1-26.504 16.11ZM450.41 452.862a4813.7 4813.7 0 0 0-21.826-9.094c-14.498-6-17.013-6.956-21.306-7.536-6.805-.918-12.851.168-24.945 2.339-15.664 2.812-14.45 4.237-21.046 4.417-11.984.327-21.544-4.223-30.14-8.315-12.656-6.023-11.916-8.757-21.307-11.952a56.585 56.585 0 0 0-28.842-1.819c-7.297 1.509-10.98 3.924-29.621 15.33a5345.772 5345.772 0 0 1-26.503 16.11Z"></path><path fill="#f05b43" d="M354.688 223.042h7.354v36.228h-7.354z"></path><path fill="#f05b43" d="m358.366 203.752 11.518 11.518-11.518 11.518-11.518-11.518z"></path><path fill="#cf2633" d="M354.688 223.042h3.677v36.228h-3.677z"></path><path fill="#cf2633" d="m352.372 215.27 8.756-8.756-2.762-2.762-11.519 11.518 11.519 11.518 2.762-2.762-8.756-8.756z"></path><path fill="#f05b43" d="M310.691 322.023h5.581v27.494h-5.581z"></path><path fill="#f05b43" d="m313.481 307.345 8.742 8.74-8.742 8.742-8.74-8.741z"></path><path fill="#cf2633" d="M310.691 322.023h2.791v27.494h-2.791z"></path><path fill="#cf2633" d="m308.802 316.086 6.711-6.71-2.032-2.031-8.741 8.741 8.741 8.742 2.032-2.031-6.711-6.711z"></path><path fill="#f05b43" d="M404.99 455.356h10.568v52.058H404.99z"></path><path fill="#cf2633" d="M404.99 455.356h5.284v52.058h-5.284z"></path><path fill="#f05b43" d="m410.508 428.544 16.552 16.552-16.552 16.552-16.552-16.552z"></path><path fill="#cf2633" d="m402.774 445.095 12.143-12.143-4.408-4.408-16.552 16.551 16.552 16.552 4.408-4.408-12.143-12.144z"></path><rect width="48.054" height="68.755" x="289.588" y="230.864" fill="#f05b43" rx="24.027"></rect><path fill="#cf2633" d="M300.677 286.814v-43.146a12.804 12.804 0 0 1 12.08-12.782 24.023 24.023 0 0 0-23.17 24.005v20.7a24.023 24.023 0 0 0 23.169 24.006 12.804 12.804 0 0 1-12.079-12.783Z"></path><path fill="#f05b43" d="M313.615 230.864a23.962 23.962 0 0 1 8.534 1.565v-6.494H305.08v6.494a23.961 23.961 0 0 1 8.534-1.565Z"></path><path fill="#cf2633" d="M318.846 230.864a24.093 24.093 0 0 0-2.616.148 23.947 23.947 0 0 1 5.919 1.417v-1.338a24.084 24.084 0 0 0-3.303-.227ZM310.312 225.935h-5.231v6.494a23.947 23.947 0 0 1 5.231-1.338Z"></path><path fill="#f05b43" d="M313.615 299.619a23.961 23.961 0 0 1-8.534-1.566v10.931h17.068v-10.93a23.962 23.962 0 0 1-8.534 1.565Z"></path><path fill="#cf2633" d="M319.224 299.619a24.078 24.078 0 0 0 2.925-.184v-1.382a23.948 23.948 0 0 1-5.73 1.396 24.08 24.08 0 0 0 2.805.17ZM305.081 298.053v10.931h5.61v-9.549a23.948 23.948 0 0 1-5.61-1.382Z"></path><path fill="#ffcb5c" d="M313.481 299.719a13.394 13.394 0 0 1-9.502-3.931 13.19 13.19 0 0 1-2.948-4.432 14.671 14.671 0 0 1-1.012-5.274c-.305-6.947-.364-13.894-.408-20.84-.028-6.947.056-13.894.126-20.841a14.652 14.652 0 0 1 .898-5.419 13.663 13.663 0 0 1 2.97-4.641 13.284 13.284 0 0 1 9.876-4.024 13.46 13.46 0 0 1 9.556 4.327 13.723 13.723 0 0 1 3.573 9.757c.073 6.947.365 13.894.508 20.84.121 6.947.073 13.894-.205 20.84a14.58 14.58 0 0 1-1 5.268 13.17 13.17 0 0 1-2.941 4.428 13.421 13.421 0 0 1-9.49 3.942Zm0-.2a12.142 12.142 0 0 0 9.11-4.101 12.466 12.466 0 0 0 2.493-4.371 13.38 13.38 0 0 0 .574-4.965c-.278-6.947-.326-13.894-.205-20.84.143-6.947.435-13.894.508-20.841a13.157 13.157 0 0 0-.752-5.01 12.495 12.495 0 0 0-2.683-4.264 12.075 12.075 0 0 0-9.045-3.715 12.24 12.24 0 0 0-8.723 4.018 11.985 11.985 0 0 0-2.466 4.157 7.695 7.695 0 0 0-.336 1.162 11.874 11.874 0 0 0-.323 2.391c-.025.39-.023.822-.015 1.261.069 6.947.153 13.894.126 20.84-.045 6.947-.104 13.894-.409 20.84a13.294 13.294 0 0 0 .562 4.96 12.45 12.45 0 0 0 2.486 4.365 12.163 12.163 0 0 0 9.098 4.113ZM312.481 99.881h2v126.055h-2z"></path><path fill="#f05b43" d="M286.156 188.682s-3.896-4.932-6.21-2.07 6.21 14.794 6.21 14.794 8.524-11.933 6.21-14.794-6.21 2.07-6.21 2.07ZM286.156 218.413s-3.896 4.931-6.21 2.07 6.21-14.795 6.21-14.795 8.524 11.933 6.21 14.795-6.21-2.07-6.21-2.07ZM273.257 196.159s-6.216.93-4.883 4.36 15.925 1.964 15.925 1.964-6.119-13.327-9.752-12.742-1.29 6.418-1.29 6.418ZM299.056 210.935s2.342 5.833-1.29 6.418-9.752-12.742-9.752-12.742 14.591-1.465 15.924 1.965-4.882 4.36-4.882 4.36ZM273.27 210.957s-2.334 5.836 1.3 6.416 9.73-12.759 9.73-12.759-14.593-1.44-15.92 1.991 4.89 4.352 4.89 4.352ZM299.043 196.137s6.218.92 4.89 4.352-15.921 1.991-15.921 1.991 6.096-13.338 9.73-12.758 1.301 6.415 1.301 6.415ZM443.726 93.005s1.327-3.82-1.025-4.085-5.877 8.487-5.877 8.487 9.422.495 10.173-1.75-3.27-2.652-3.27-2.652ZM427.6 103.29s-4.023-.407-3.271-2.652 10.173-1.75 10.173-1.75-3.524 8.751-5.876 8.487-1.026-4.085-1.026-4.085ZM435.208 88.595s-2.655-3.05-4.054-1.14 4.444 9.317 4.444 9.317 5.112-7.93 3.537-9.698-3.927 1.52-3.927 1.52ZM436.118 107.7s-2.353 3.288-3.927 1.52 3.538-9.697 3.538-9.697 5.842 7.407 4.443 9.317-4.054-1.14-4.054-1.14ZM427.186 93.721s-3.973.754-3.03 2.925 10.286.864 10.286.864-4.267-8.414-6.588-7.947-.668 4.158-.668 4.158ZM444.14 102.574s1.653 3.69-.668 4.158-6.588-7.947-6.588-7.947 9.343-1.308 10.286.863-3.03 2.926-3.03 2.926ZM376.987 285.463s-2.506-3.173-3.995-1.332 3.995 9.518 3.995 9.518 5.484-7.677 3.996-9.518-3.996 1.332-3.996 1.332ZM376.987 304.59s-2.506 3.173-3.995 1.332 3.995-9.518 3.995-9.518 5.484 7.677 3.996 9.518-3.996-1.332-3.996-1.332ZM368.689 290.273s-4 .599-3.141 2.805 10.244 1.264 10.244 1.264-3.936-8.574-6.273-8.197-.83 4.128-.83 4.128ZM385.286 299.78s1.507 3.752-.83 4.128-6.274-8.197-6.274-8.197 9.388-.943 10.245 1.264-3.141 2.805-3.141 2.805ZM368.697 299.794s-1.501 3.754.837 4.127 6.26-8.208 6.26-8.208-9.39-.927-10.243 1.28 3.146 2.8 3.146 2.8ZM385.278 290.26s4 .59 3.146 2.799-10.243 1.28-10.243 1.28 3.922-8.58 6.26-8.207.837 4.127.837 4.127ZM259.088 225.016s-2.506-3.172-3.995-1.332 3.995 9.518 3.995 9.518 5.484-7.677 3.996-9.518-3.996 1.332-3.996 1.332ZM259.088 244.143s-2.506 3.173-3.995 1.332 3.995-9.518 3.995-9.518 5.484 7.677 3.996 9.518-3.996-1.332-3.996-1.332ZM250.79 229.826s-4 .599-3.141 2.805 10.244 1.264 10.244 1.264-3.936-8.574-6.273-8.197-.83 4.128-.83 4.128ZM267.387 239.333s1.507 3.752-.83 4.128-6.273-8.197-6.273-8.197 9.387-.943 10.244 1.264-3.14 2.805-3.14 2.805ZM250.798 239.347s-1.5 3.754.837 4.127 6.26-8.208 6.26-8.208-9.39-.927-10.243 1.281 3.146 2.8 3.146 2.8ZM267.38 229.812s4 .592 3.145 2.8-10.243 1.281-10.243 1.281 3.922-8.58 6.26-8.208.837 4.127.837 4.127ZM327.554 396.145s5.14-3.617 2.41-6.086-15.115 5.38-15.115 5.38 11.442 9.173 14.428 7.021-1.723-6.315-1.723-6.315ZM297.869 394.497s-4.708-4.164-1.723-6.315 14.428 7.02 14.428 7.02-12.387 7.85-15.116 5.381 2.41-6.086 2.41-6.086ZM320.803 382.851s-.584-6.258-4.082-5.117-2.844 15.791-2.844 15.791 13.646-5.37 13.262-9.03-6.336-1.644-6.336-1.644ZM304.62 407.791s-5.954 2.016-6.337-1.644 13.263-9.03 13.263-9.03.654 14.65-2.844 15.791-4.083-5.117-4.083-5.117ZM306.027 382.043s-5.698-2.652-6.478.944 12.2 10.422 12.2 10.422 2.247-14.491-1.106-16.007-4.616 4.641-4.616 4.641ZM319.396 408.599s-1.263 6.157-4.616 4.641-1.106-16.007-1.106-16.007 12.98 6.826 12.2 10.422-6.478.944-6.478.944ZM292.775 367.105s3.307-2.327 1.551-3.915-9.724 3.462-9.724 3.462 7.361 5.9 9.282 4.516-1.109-4.063-1.109-4.063ZM273.678 366.045s-3.029-2.679-1.108-4.063 9.282 4.517 9.282 4.517-7.97 5.05-9.725 3.461 1.55-3.915 1.55-3.915ZM288.432 358.553s-.375-4.026-2.626-3.292-1.83 10.159-1.83 10.159 8.78-3.455 8.533-5.81-4.077-1.057-4.077-1.057ZM278.02 374.598s-3.829 1.297-4.075-1.058 8.532-5.81 8.532-5.81.421 9.425-1.83 10.16-2.626-3.292-2.626-3.292ZM278.926 358.033s-3.665-1.706-4.167.607 7.848 6.705 7.848 6.705 1.446-9.323-.711-10.298-2.97 2.986-2.97 2.986ZM287.527 375.117s-.812 3.961-2.97 2.986-.711-10.298-.711-10.298 8.35 4.392 7.848 6.705-4.167.607-4.167.607Z"></path><circle cx="313.615" cy="215.601" r="3.188" fill="#f05b43"></circle><circle cx="313.615" cy="221.044" r="1.627" fill="#f05b43"></circle><circle cx="313.615" cy="209.908" r="1.627" fill="#f05b43"></circle><path fill="#cf2633" d="M312.054 215.6a3.186 3.186 0 0 1 2.375-3.079 3.188 3.188 0 1 0 0 6.16 3.187 3.187 0 0 1-2.375-3.08ZM313.615 221.044a1.62 1.62 0 0 1 .814-1.402 1.628 1.628 0 1 0 0 2.803 1.62 1.62 0 0 1-.814-1.401ZM313.615 209.908a1.62 1.62 0 0 1 .814-1.402 1.628 1.628 0 1 0 0 2.804 1.62 1.62 0 0 1-.814-1.402Z"></path><path fill="#fff" d="M311.907 237.302a7.422 7.422 0 0 1 7.278 3.35 8.505 8.505 0 0 1 .678 1.215c.195.417.436.807.587 1.235a17.82 17.82 0 0 1 1.39 5.112c.083.866.105 1.732.15 2.584q-.038 1.289-.12 2.555l-.3.01q-.27-1.24-.498-2.456c-.232-.798-.438-1.595-.697-2.366a19.934 19.934 0 0 0-.911-2.235l-.513-1.069-.614-.997a32.295 32.295 0 0 0-3.021-3.333 38.577 38.577 0 0 0-3.46-3.31ZM321.72 255.14a12.614 12.614 0 0 1 .539 3.714 12.47 12.47 0 0 1-.46 3.725 12.478 12.478 0 0 1-.54-3.714 12.63 12.63 0 0 1 .46-3.725Z"></path><path fill="#f05b43" d="M446.453 157.645s3.863-4.888 6.156-2.052-6.156 14.666-6.156 14.666-8.449-11.83-6.155-14.666 6.155 2.052 6.155 2.052ZM446.453 187.116s3.863 4.888 6.156 2.052-6.156-14.665-6.156-14.665-8.449 11.828-6.155 14.665 6.155-2.052 6.155-2.052ZM459.24 165.057s6.161.922 4.84 4.322-15.785 1.947-15.785 1.947 6.065-13.21 9.666-12.63 1.279 6.36 1.279 6.36ZM433.667 179.704s-2.322 5.781 1.28 6.362 9.665-12.63 9.665-12.63-14.463-1.453-15.785 1.946 4.84 4.322 4.84 4.322ZM459.227 179.726s2.313 5.785-1.29 6.359-9.644-12.647-9.644-12.647 14.466-1.428 15.782 1.974-4.848 4.314-4.848 4.314ZM433.68 165.035s-6.164.912-4.848 4.314 15.782 1.974 15.782 1.974-6.043-13.221-9.645-12.647-1.29 6.36-1.29 6.36ZM468.4 382.985c0-18.525-15.258-34.332-36.794-40.75v-9.352h-41.49v9.027c-22.15 6.188-37.967 22.217-37.967 41.075 0 18.857 15.817 34.886 37.967 41.074v6.368h41.49v-6.692c21.536-6.42 36.794-22.225 36.794-40.75Z"></path><path fill="#ffcb5c" d="M417.694 342.234a56.01 56.01 0 0 1 26.029 13.736 41.63 41.63 0 0 1 8.874 12.189 34.144 34.144 0 0 1 .004 29.653 41.657 41.657 0 0 1-8.875 12.19 55.965 55.965 0 0 1-26.032 13.733c9.176-3.435 17.757-8.435 24.37-15.382a41.73 41.73 0 0 0 7.953-11.72 32.852 32.852 0 0 0 .003-27.299 41.76 41.76 0 0 0-7.952-11.721c-6.614-6.948-15.197-11.948-24.374-15.379Z"></path><path fill="#cf2633" d="M368.105 382.985c0-18.858 15.817-34.887 37.967-41.075v-9.027h-15.956v9.027c-22.15 6.188-37.967 22.217-37.967 41.075 0 18.857 15.817 34.886 37.967 41.074v6.367h15.956v-6.367c-22.15-6.188-37.967-22.217-37.967-41.074Z"></path><path fill="#ffcb5c" d="M406.072 424.06a56.822 56.822 0 0 1-26.755-13.628 41.978 41.978 0 0 1-9.187-12.337 34.172 34.172 0 0 1-.003-30.222 42.005 42.005 0 0 1 9.187-12.339 56.777 56.777 0 0 1 26.758-13.624c-9.426 3.332-18.27 8.296-25.119 15.295a42.009 42.009 0 0 0-8.252 11.869 32.813 32.813 0 0 0-.004 27.823 42.038 42.038 0 0 0 8.253 11.87c6.848 7 15.695 11.964 25.122 15.292ZM410.274 350.106c.621 5.65.946 11.299 1.166 16.949.139 2.824.17 5.65.25 8.474l.083 8.474-.078 8.475c-.084 2.825-.11 5.65-.25 8.474-.22 5.65-.546 11.3-1.17 16.95-.625-5.65-.951-11.3-1.171-16.95-.14-2.824-.166-5.65-.25-8.474l-.079-8.475.083-8.474c.081-2.825.112-5.65.25-8.474.22-5.65.546-11.3 1.166-16.95Z"></path><path fill="#ffcb5c" d="M401.714 419.81a27.207 27.207 0 0 1-7.904-6.343 36.712 36.712 0 0 1-5.536-8.643 44.56 44.56 0 0 1-3.204-9.788 52.573 52.573 0 0 1-1.01-10.258 46.988 46.988 0 0 1 4.5-19.987 36.203 36.203 0 0 1 5.693-8.545 26.61 26.61 0 0 1 8.058-6.148 36.174 36.174 0 0 0-11.612 15.646 49.004 49.004 0 0 0-2.712 9.357 50.578 50.578 0 0 0-.929 9.697 52.96 52.96 0 0 0 .795 9.71 49.377 49.377 0 0 0 2.567 9.402 36.981 36.981 0 0 0 11.294 15.9ZM419.922 419.81a36.981 36.981 0 0 0 11.294-15.9 49.377 49.377 0 0 0 2.567-9.402 52.96 52.96 0 0 0 .795-9.71 50.577 50.577 0 0 0-.93-9.697 49.004 49.004 0 0 0-2.71-9.357 36.174 36.174 0 0 0-11.612-15.646 26.61 26.61 0 0 1 8.057 6.148 36.203 36.203 0 0 1 5.693 8.545 46.988 46.988 0 0 1 4.5 19.987 52.572 52.572 0 0 1-1.01 10.258 44.561 44.561 0 0 1-3.204 9.788 36.712 36.712 0 0 1-5.536 8.643 27.207 27.207 0 0 1-7.904 6.343Z"></path><path fill="#fff" d="M429.259 384.187a55.49 55.49 0 0 0-1.582-9.917 45.392 45.392 0 0 0-3.374-9.31 61.732 61.732 0 0 0-5.279-8.187 59.67 59.67 0 0 0-6.453-7.497l.154-.258a20.021 20.021 0 0 1 8.63 5.866 28.805 28.805 0 0 1 5.144 9.108 47.346 47.346 0 0 1 2.65 9.985 50.324 50.324 0 0 1 .41 10.21Z"></path><path fill="#f05b43" d="m410.508 309.398 11.742 11.743-11.742 11.742-11.742-11.742z"></path><path fill="#cf2633" d="m404.503 321.141 8.874-8.874-2.868-2.869-11.743 11.743 11.743 11.742 2.868-2.868-8.874-8.874z"></path><path fill="#ffcb5c" d="M409.274 72.931h2v236.468h-2zM390.116 341.91a57.03 57.03 0 0 1 10.282-2.07 82.671 82.671 0 0 1 10.484-.577c1.752.007 3.502.105 5.25.196 1.745.17 3.494.27 5.225.554a62.556 62.556 0 0 1 10.25 2.221c-3.5-.195-6.94-.523-10.396-.667-3.45-.185-6.896-.293-10.344-.305-3.447-.06-6.896.026-10.35.128-3.456.12-6.912.29-10.4.52Z"></path><path fill="#f29720" d="M417.694 339.6v1.819c1.172.044 2.344.085 3.517.148 3.456.144 6.896.472 10.395.667a62.55 62.55 0 0 0-10.249-2.221c-1.215-.2-2.438-.308-3.663-.413ZM406.072 341.265v-1.897c-1.896.092-3.79.242-5.674.472a57.036 57.036 0 0 0-10.282 2.07c3.49-.23 6.945-.4 10.4-.52q2.78-.082 5.556-.125Z"></path><path fill="#ffcb5c" d="M390.116 424.06c6.983-.065 13.889.224 20.796.299 3.452.073 6.9.087 10.345.02a99.706 99.706 0 0 0 10.35-.644 40.744 40.744 0 0 1-10.253 2.202c-1.741.22-3.488.27-5.235.377-1.746.036-3.494.07-5.238.044-3.49-.07-6.973-.264-10.438-.647a87.082 87.082 0 0 1-10.327-1.652Z"></path><path fill="#f29720" d="M417.694 424.409v1.817c1.222-.066 2.442-.135 3.66-.289a40.743 40.743 0 0 0 10.252-2.202 99.698 99.698 0 0 1-10.35.645c-1.186.023-2.374.024-3.562.029ZM406.072 424.277c-5.297-.11-10.604-.267-15.956-.218a87.076 87.076 0 0 0 10.327 1.652c1.872.207 3.749.355 5.63.461Z"></path><ellipse cx="358.508" cy="146.04" fill="#f05b43" rx="65.734" ry="45.399"></ellipse><path fill="#cf2633" d="M311.262 146.04c0-22.906 24.564-41.846 56.49-44.95a95.525 95.525 0 0 0-9.244-.45c-36.304 0-65.734 20.327-65.734 45.4s29.43 45.4 65.734 45.4c3.138 0 6.223-.156 9.244-.45-31.926-3.103-56.49-22.044-56.49-44.95Z"></path><path fill="#f05b43" d="M358.508 100.64a93.449 93.449 0 0 1 18.488 1.824v-8.222h-37.26v8.28a93.371 93.371 0 0 1 18.772-1.881Z"></path><path fill="#cf2633" d="M349.121 94.242h-9.386v8.28a91.427 91.427 0 0 1 9.386-1.418ZM367.894 100.64q-2.36 0-4.68.117a92.508 92.508 0 0 1 13.782 1.707v-1.386a95.316 95.316 0 0 0-9.102-.437Z"></path><path fill="#f05b43" d="M358.508 191.44a93.37 93.37 0 0 1-18.773-1.883v15.121h37.26v-15.062a93.448 93.448 0 0 1-18.487 1.823Z"></path><path fill="#cf2633" d="M367.894 191.44c3.09 0 6.127-.152 9.102-.438v-1.386a92.506 92.506 0 0 1-13.782 1.708q2.32.113 4.68.115ZM339.735 189.557v15.121h9.386v-13.702a91.422 91.422 0 0 1-9.386-1.419Z"></path><path fill="#ffcb5c" d="M357.365 62.681h2v31.562h-2zM322.133 108.222c6.08 0 12.123.125 18.161.269l9.05.197c1.508.014 3.014.072 4.52.105l4.52.055c3.01.077 6.022.086 9.031.09l4.516.015c1.503-.032 3.007-.055 4.513-.057 6.019-.121 12.026-.322 18.086-.837a92.274 92.274 0 0 1-17.963 3.175 176.808 176.808 0 0 1-18.229.612 227.513 227.513 0 0 1-18.182-1.027 168.606 168.606 0 0 1-18.023-2.597ZM306.482 118.292q13.037 1.286 26.034 2.064l6.507.34c2.167.116 4.338.168 6.506.255 2.168.1 4.337.138 6.506.193 2.168.06 4.337.11 6.505.087 8.676.154 17.345-.139 26.01-.567l6.5-.403c2.164-.153 4.321-.393 6.488-.578l3.253-.27 3.238-.392q3.24-.396 6.505-.729-3.171.803-6.367 1.549c-1.065.251-2.13.503-3.202.722l-3.228.58c-2.156.36-4.312.754-6.477 1.073l-6.52.78c-2.172.296-4.357.431-6.54.587-2.185.134-4.367.363-6.555.417l-6.565.203c-2.188.043-4.377.018-6.566.026-2.189 0-4.376-.073-6.563-.158-2.186-.09-4.375-.115-6.556-.29-4.367-.28-8.728-.617-13.075-1.1a202.327 202.327 0 0 1-25.838-4.389ZM298.59 127.342a202.416 202.416 0 0 0 29.76 5.18l3.75.385 3.76.286c2.506.178 5.007.41 7.521.452 2.511.064 5.017.257 7.529.272l7.534.016c2.511.021 5.02-.133 7.532-.19l3.766-.122c1.255-.058 2.505-.192 3.759-.264l7.524-.514 7.499-.822 3.755-.4c1.254-.12 2.488-.375 3.736-.537l7.48-1.104 1.876-.26 1.858-.353 3.72-.701q3.725-.693 7.476-1.324-3.631 1.095-7.29 2.134l-3.662 1.028-1.835.506-1.855.415c-4.963 1.025-9.902 2.273-14.943 2.916-2.51.386-5.022.786-7.541 1.116l-7.59.733c-1.267.12-2.532.246-3.801.323l-3.811.158c-2.542.08-5.082.265-7.625.26a197.108 197.108 0 0 1-30.417-2.096 133.51 133.51 0 0 1-29.464-7.493ZM293.316 140.188a319.656 319.656 0 0 0 32.468 5.071c5.44.544 10.885 1.024 16.34 1.289 5.453.289 10.912.493 16.37.435 5.455-.008 10.914-.13 16.356-.513q8.17-.49 16.293-1.56a226.278 226.278 0 0 0 32.144-6.606 151.345 151.345 0 0 1-31.793 8.92 196.346 196.346 0 0 1-32.997 2.757 229.69 229.69 0 0 1-33.004-2.408c-5.46-.785-10.882-1.8-16.26-2.994a153.994 153.994 0 0 1-15.917-4.391ZM293.316 151.89a249.445 249.445 0 0 0 32.556 5.362q8.194.848 16.419 1.245l8.224.33 8.23.02c2.743.08 5.484-.084 8.226-.15 2.741-.104 5.488-.113 8.222-.356l8.216-.55c1.373-.062 2.731-.261 4.097-.403l4.096-.433c5.48-.478 10.897-1.401 16.35-2.178 2.741-.312 5.421-.941 8.136-1.42q4.063-.765 8.154-1.466-3.971 1.165-7.97 2.276c-2.669.723-5.324 1.529-8.04 2.056l-8.132 1.697c-2.703.63-5.461.915-8.197 1.356a225.789 225.789 0 0 1-33.146 2.57 222.185 222.185 0 0 1-33.172-2.28 162.36 162.36 0 0 1-32.269-7.675ZM300.885 167.899c9.622 1.24 19.24 2.17 28.873 2.847 2.411.134 4.82.272 7.226.442l7.229.316c2.408.121 4.82.142 7.229.218l3.614.088 3.615-.01c9.641.125 19.277-.268 28.895-.935l7.216-.56 7.195-.805 3.608-.375 3.585-.537q3.589-.529 7.204-.994-3.512.933-7.05 1.811l-3.543.866-3.578.684-7.179 1.302-7.235.939c-1.207.146-2.413.328-3.623.444l-3.637.291c-2.426.175-4.85.423-7.28.538l-7.295.261c-2.432.107-4.865.043-7.297.068a268.43 268.43 0 0 1-29.113-1.73 207.394 207.394 0 0 1-28.659-5.169ZM320.437 183.054l19.095.668c3.176.089 6.345.245 9.517.297q4.755.16 9.507.216c3.167.038 6.336.11 9.5.057 1.583-.01 3.17.038 4.75-.02 1.582-.05 3.165-.073 4.75-.086 6.332-.203 12.648-.552 19.023-1.132a103.72 103.72 0 0 1-18.88 3.469 184.391 184.391 0 0 1-19.19.71c-6.398-.137-12.785-.503-19.14-1.185a163.529 163.529 0 0 1-18.932-2.994Z"></path><path fill="#f29720" d="M322.142 108.223c4.679.97 9.4 1.652 14.137 2.185q1.844-1.006 3.793-1.922c-5.96-.14-11.926-.263-17.927-.264Z"></path><path fill="#ffcb5c" d="M306.482 118.292q13.037 1.286 26.034 2.064l6.507.34c2.167.116 4.338.168 6.506.255 2.168.1 4.337.138 6.506.193 2.168.06 4.337.11 6.505.087 8.676.154 17.345-.139 26.01-.567l6.5-.403c2.164-.153 4.321-.393 6.488-.578l3.253-.27 3.238-.392q3.24-.396 6.505-.729-3.171.803-6.367 1.549c-1.065.251-2.13.503-3.202.722l-3.228.58c-2.156.36-4.312.754-6.477 1.073l-6.52.78c-2.172.296-4.357.431-6.54.587-2.185.134-4.367.363-6.555.417l-6.565.203c-2.188.043-4.377.018-6.566.026-2.189 0-4.376-.073-6.563-.158-2.186-.09-4.375-.115-6.556-.29-4.367-.28-8.728-.617-13.075-1.1a202.327 202.327 0 0 1-25.838-4.389Z"></path><path fill="#f29720" d="M306.495 118.295c5.077 1.245 10.216 2.22 15.385 3.013q.75-.796 1.547-1.567-8.459-.621-16.93-1.447Z"></path><path fill="#ffcb5c" d="M298.59 127.342a202.416 202.416 0 0 0 29.76 5.18l3.75.385 3.76.286c2.506.178 5.007.41 7.521.452 2.511.064 5.017.257 7.529.272l7.534.016c2.511.021 5.02-.133 7.532-.19l3.766-.122c1.255-.058 2.505-.192 3.759-.264l7.524-.514 7.499-.822 3.755-.4c1.254-.12 2.488-.375 3.736-.537l7.48-1.104 1.876-.26 1.858-.353 3.72-.701q3.725-.693 7.476-1.324-3.631 1.095-7.29 2.134l-3.662 1.028-1.835.506-1.855.415c-4.963 1.025-9.902 2.273-14.943 2.916-2.51.386-5.022.786-7.541 1.116l-7.59.733c-1.267.12-2.532.246-3.801.323l-3.811.158c-2.542.08-5.082.265-7.625.26a197.108 197.108 0 0 1-30.417-2.096 133.51 133.51 0 0 1-29.464-7.493Z"></path><path fill="#f29720" d="M298.608 127.348a111.77 111.77 0 0 0 15.768 4.875c.227-.491.469-.977.719-1.46-5.533-.888-11.038-1.988-16.486-3.417Z"></path><path fill="#ffcb5c" d="M293.316 140.188a319.656 319.656 0 0 0 32.468 5.071c5.44.544 10.885 1.024 16.34 1.289 5.453.289 10.912.493 16.37.435 5.455-.008 10.914-.13 16.356-.513q8.17-.49 16.293-1.56a226.278 226.278 0 0 0 32.144-6.606 151.345 151.345 0 0 1-31.793 8.92 196.346 196.346 0 0 1-32.997 2.757 229.69 229.69 0 0 1-33.004-2.408c-5.46-.785-10.882-1.8-16.26-2.994a153.994 153.994 0 0 1-15.917-4.391Z"></path><path fill="#f29720" d="M293.335 140.194a154.109 154.109 0 0 0 15.897 4.385c.687.152 1.376.293 2.064.44a31.94 31.94 0 0 1 .086-1.598c-6.037-.893-12.056-1.95-18.046-3.23Z"></path><path fill="#ffcb5c" d="M293.316 151.89a249.445 249.445 0 0 0 32.556 5.362q8.194.848 16.419 1.245l8.224.33 8.23.02c2.743.08 5.484-.084 8.226-.15 2.741-.104 5.488-.113 8.222-.356l8.216-.55c1.373-.062 2.731-.261 4.097-.403l4.096-.433c5.48-.478 10.897-1.401 16.35-2.178 2.741-.312 5.421-.941 8.136-1.42q4.063-.765 8.154-1.466-3.971 1.165-7.97 2.276c-2.669.723-5.324 1.529-8.04 2.056l-8.132 1.697c-2.703.63-5.461.915-8.197 1.356a225.789 225.789 0 0 1-33.146 2.57 222.185 222.185 0 0 1-33.172-2.28 162.36 162.36 0 0 1-32.269-7.675Z"></path><path fill="#f29720" d="M293.337 151.898a141.85 141.85 0 0 0 20.036 5.553q-.343-.917-.633-1.847c-6.505-.962-12.982-2.16-19.403-3.709ZM300.892 167.9a194.188 194.188 0 0 0 22.471 4.376q-1.11-1.08-2.128-2.204-10.176-.879-20.344-2.172Z"></path><path fill="#ffcb5c" d="m320.437 183.054 19.095.668c3.176.089 6.345.245 9.517.297q4.755.16 9.507.216c3.167.038 6.336.11 9.5.057 1.583-.01 3.17.038 4.75-.02 1.582-.05 3.165-.073 4.75-.086 6.332-.203 12.648-.552 19.023-1.132a103.72 103.72 0 0 1-18.88 3.469 184.391 184.391 0 0 1-19.19.71c-6.398-.137-12.785-.503-19.14-1.185a163.529 163.529 0 0 1-18.932-2.994Z"></path><path fill="#ffcb5c" d="m320.437 183.054 19.095.668c3.176.089 6.345.245 9.517.297q4.755.16 9.507.216c3.167.038 6.336.11 9.5.057 1.583-.01 3.17.038 4.75-.02 1.582-.05 3.165-.073 4.75-.086 6.332-.203 12.648-.552 19.023-1.132a103.72 103.72 0 0 1-18.88 3.469 184.391 184.391 0 0 1-19.19.71c-6.398-.137-12.785-.503-19.14-1.185a163.529 163.529 0 0 1-18.932-2.994Z"></path><path fill="#f29720" d="m340.396 183.751-.864-.029-19.06-.666.021.01a163.717 163.717 0 0 0 18.875 2.982c2.857.307 5.721.54 8.589.727a76.927 76.927 0 0 1-7.56-3.024Z"></path><circle cx="410.274" cy="299.205" r="5.971" fill="#f05b43"></circle><path fill="#cf2633" d="M408.93 299.205a5.972 5.972 0 0 1 3.658-5.505 5.97 5.97 0 1 0 0 11.01 5.972 5.972 0 0 1-3.657-5.505Z"></path><circle cx="358.366" cy="80.974" r="5.971" fill="#f05b43"></circle><path fill="#cf2633" d="M357.243 80.974a5.968 5.968 0 0 1 3.547-5.453 5.97 5.97 0 1 0 0 10.907 5.969 5.969 0 0 1-3.547-5.454Z"></path><path fill="#fff" d="M373.996 116.607a10.815 10.815 0 0 1 11.414 2.46c.24.244.484.48.713.728l.636.787c.41.532.876 1.01 1.227 1.57a25.97 25.97 0 0 1 3.594 6.833c.393 1.206.699 2.431 1.033 3.629q.354 1.844.637 3.672l-.423.11q-.776-1.68-1.485-3.337c-.583-1.062-1.128-2.13-1.74-3.145l-.97-1.481-.483-.733-.552-.678-1.068-1.357-1.188-1.224a9.04 9.04 0 0 0-1.286-1.087l-.664-.502-.71-.425c-.465-.286-.895-.613-1.364-.87-.455-.28-.87-.627-1.33-.902a58.087 58.087 0 0 0-5.969-3.612ZM468.327 224.793a30.154 30.154 0 0 0-1.961-5.015 24.228 24.228 0 0 0-2.807-4.486 39.564 39.564 0 0 0-3.647-3.684 42.594 42.594 0 0 0-4.078-3.387l.066-.189a10.09 10.09 0 0 1 5.285 2.034 14.669 14.669 0 0 1 3.681 4.303 25.514 25.514 0 0 1 2.422 5.023 26.717 26.717 0 0 1 1.235 5.361Z"></path><path fill="#ffcb5c" d="m469.867 285.979 3.908-3.851a3.877 3.877 0 0 0-5.443-5.523l-3.907 3.85-2.974-3.017 4.006-3.947a3.877 3.877 0 0 0-5.443-5.523l-3.247 3.2v-15.884h-1.56V271.1l-3.048-3.092a3.877 3.877 0 0 0-5.523 5.443l3.85 3.907-2.856 2.813-3.79-3.845a3.877 3.877 0 0 0-5.522 5.443l3.789 3.845-3.909 3.851a3.877 3.877 0 0 0 5.443 5.523l3.908-3.85 2.973 3.017-4.005 3.947a3.877 3.877 0 1 0 5.443 5.522l3.246-3.199v12.343h1.561v-12.276l3.048 3.093a3.877 3.877 0 0 0 5.523-5.444l-3.85-3.906 2.856-2.814 3.789 3.846a3.877 3.877 0 0 0 5.523-5.443Zm-.44-8.261a2.316 2.316 0 1 1 3.252 3.298l-3.907 3.85-3.252-3.298Zm-1.768 8.245-3.299 3.25-3.25-3.299 3.298-3.25Zm-4.346-4.412-3.3 3.251-2.973-3.017 3.3-3.251Zm-4.412 4.347-2.855 2.814-2.974-3.017 2.856-2.814Zm-2.957-5.225-3.25-3.3 3.299-3.25 3.25 3.299Zm5.165-11.592a2.316 2.316 0 1 1 3.252 3.298l-4.006 3.947-3.25-3.3Zm-13.36 3.275a2.316 2.316 0 0 1 3.298-3.252l3.85 3.907-3.3 3.25Zm3.832 6.114 3.251 3.299-2.855 2.814-3.252-3.3Zm-.717 7.209-3.298 3.25-3.252-3.299 3.3-3.25Zm-11.433-5.005a2.316 2.316 0 0 1 3.298-3.251l3.789 3.844-3.3 3.251Zm3.115 13.201a2.373 2.373 0 0 1-3.275-.024 2.319 2.319 0 0 1 .023-3.274l3.908-3.851 3.251 3.3Zm6.115-3.834 3.3-3.25 2.973 3.017-3.3 3.25Zm7.368.879 3.251 3.3-3.298 3.25-3.252-3.3Zm-5.164 11.592a2.372 2.372 0 0 1-3.276-.024 2.32 2.32 0 0 1 .023-3.275l4.006-3.947 3.251 3.3Zm13.36-3.275a2.316 2.316 0 1 1-3.298 3.251l-3.85-3.906 3.3-3.25Zm-3.832-6.114-3.252-3.299 2.856-2.814 3.251 3.3Zm12.127 1.071a2.319 2.319 0 0 1-3.275-.024l-3.79-3.845 3.3-3.25 3.788 3.844a2.32 2.32 0 0 1-.023 3.275Z"></path><path fill="#f05b43" d="M455.987 312.768a2.389 2.389 0 0 1 2.388 2.388v4.031h-4.777v-4.03a2.389 2.389 0 0 1 2.389-2.39Z"></path><path fill="#cf2633" d="M457.072 313.04a2.362 2.362 0 0 0-1.085-.272 2.388 2.388 0 0 0-2.389 2.388v4.031h2.17v-4.03a2.38 2.38 0 0 1 1.304-2.117Z"></path><path fill="#f05b43" d="M455.986 201.326a29.078 29.078 0 1 0 29.079 29.078 29.077 29.077 0 0 0-29.079-29.078Zm7.91 36.98h-15.819v-15.811h15.819Z"></path><path fill="#cf2633" d="M442.553 230.404a29.083 29.083 0 0 1 21.256-28.005 29.079 29.079 0 1 0 0 56.01 29.09 29.09 0 0 1-21.256-28.005Z"></path><path fill="#ffcb5c" d="M479.955 230.401a25.918 25.918 0 0 1-6.583 17.385 22.487 22.487 0 0 1-7.864 5.6 22.962 22.962 0 0 1-9.521 1.841 24.44 24.44 0 0 1-9.377-2.19 26.131 26.131 0 0 1-7.757-5.502 25.838 25.838 0 0 1-7.359-17.134 24.094 24.094 0 0 1 6.849-17.644 25.091 25.091 0 0 1 8.05-5.518 24.134 24.134 0 0 1 19.153.086 22.992 22.992 0 0 1 7.851 5.666 25.923 25.923 0 0 1 6.558 17.41Zm-.234 0a21.787 21.787 0 0 0-1.995-9.005 22.794 22.794 0 0 0-5.419-7.316 24.377 24.377 0 0 0-16.32-6.281 23.26 23.26 0 0 0-16.087 6.515 23.716 23.716 0 0 0-7.123 16.087 22.574 22.574 0 0 0 1.543 8.975 22.037 22.037 0 0 0 5.07 7.622 22.862 22.862 0 0 0 16.597 6.28 25.412 25.412 0 0 0 16.346-6.531 23.04 23.04 0 0 0 5.41-7.334 21.65 21.65 0 0 0 1.978-9.012Z"></path><path fill="#f29720" d="M456.497 255.224a29.152 29.152 0 0 1-2.86-1.991 22.69 22.69 0 0 1-14.247-6.235 22.038 22.038 0 0 1-5.07-7.622 22.575 22.575 0 0 1-1.543-8.975 23.716 23.716 0 0 1 7.123-16.087 23.175 23.175 0 0 1 13.22-6.323 29.153 29.153 0 0 1 3.792-2.656c-.308-.015-.617-.03-.925-.034a24.41 24.41 0 0 0-9.595 1.938 25.091 25.091 0 0 0-8.05 5.518 24.094 24.094 0 0 0-6.848 17.644 25.838 25.838 0 0 0 7.359 17.134 26.13 26.13 0 0 0 7.757 5.503 24.44 24.44 0 0 0 9.377 2.189c.17.003.34-.003.51-.003Z"></path><path fill="#ffcb5c" d="M467.471 217.668c-1.914-.001-3.828-.012-5.742.025l-5.742.117c-1.914.044-3.828.086-5.742.167-1.914.072-3.829.2-5.743.298l-.673.035.032.607c.101 1.914.206 3.828.244 5.742.05 1.914.05 3.828.018 5.742a134.634 134.634 0 0 1-.267 5.742c-.124 1.914-.252 3.828-.328 5.742l-.038.94 1.012.035c1.971.07 3.961.09 5.937.044 1.978-.033 3.95-.09 5.895-.18a221.91 221.91 0 0 0 5.745-.323 191.01 191.01 0 0 0 5.475-.433l.413-5.488c.132-1.872.251-3.787.356-5.726.11-1.939.195-3.905.263-5.883.079-1.976.095-3.968.134-5.955l.025-1.248Zm-6.092 23.702a263.963 263.963 0 0 0-5.74-.323c-1.883-.09-3.738-.147-5.589-.18a87.193 87.193 0 0 0-4.624.022 286.91 286.91 0 0 0-.278-4.746c-.127-1.914-.22-3.828-.266-5.742-.033-1.914-.033-3.828.018-5.742.033-1.69.12-3.379.21-5.068 1.711.093 3.423.2 5.135.265 1.914.081 3.828.123 5.742.167l5.742.117c1.506.03 3.011.028 4.517.026.026 1.424.05 2.848.11 4.28.068 1.85.154 3.712.263 5.602l.357 5.759.413 5.996a353.76 353.76 0 0 0-6.01-.433Z"></path><path fill="#f29720" d="M445.366 242.88a28.853 28.853 0 0 1-1.66-4.363c-.07 1.123-.133 2.245-.178 3.368l-.038.94 1.012.035c.287.01.576.011.864.02ZM444.502 218.275l-.673.035.032.607q.065 1.233.125 2.466a28.851 28.851 0 0 1 1.235-3.148c-.24.014-.479.028-.719.04Z"></path><path fill="#fff" d="M462.404 212.615a7.639 7.639 0 0 1 5.257.665 10.797 10.797 0 0 1 3.921 3.611l.742 1.09.624 1.149a21.55 21.55 0 0 1 1.048 2.363c.272.814.486 1.643.722 2.456q.248 1.252.464 2.496l-.195.044-.857-2.352c-.35-.755-.676-1.515-1.05-2.244a18.136 18.136 0 0 0-2.737-3.99 21.256 21.256 0 0 0-3.664-2.881 20.912 20.912 0 0 0-4.27-2.207ZM264.752 111.326a26.614 26.614 0 0 0-1.733-4.43 21.393 21.393 0 0 0-2.48-3.963 34.961 34.961 0 0 0-3.222-3.255 37.635 37.635 0 0 0-3.602-2.993l.058-.167a8.915 8.915 0 0 1 4.669 1.797 12.957 12.957 0 0 1 3.252 3.802 22.176 22.176 0 0 1 3.23 9.174Z"></path><path fill="#ffcb5c" d="m266.113 165.384 3.452-3.402a3.425 3.425 0 0 0-4.809-4.88l-3.452 3.403-2.627-2.666 3.54-3.488a3.425 3.425 0 0 0-4.81-4.88l-2.868 2.827v-14.033h-1.38v13.974l-2.691-2.732a3.426 3.426 0 0 0-4.88 4.81l3.4 3.45-2.522 2.487-3.348-3.398a3.425 3.425 0 0 0-4.88 4.81l3.348 3.396-3.453 3.403a3.425 3.425 0 0 0 4.81 4.879l3.452-3.402 2.627 2.666-3.54 3.487a3.425 3.425 0 1 0 4.81 4.879l2.868-2.826v10.904h1.379v-10.845l2.692 2.732a3.425 3.425 0 0 0 4.88-4.809l-3.401-3.451 2.523-2.486 3.347 3.397a3.426 3.426 0 0 0 4.88-4.809Zm-.389-7.298a2.046 2.046 0 1 1 2.873 2.914l-3.452 3.402-2.873-2.915Zm-1.562 7.284-2.915 2.872-2.872-2.915 2.915-2.872Zm-3.84-3.897-2.915 2.872-2.627-2.666 2.915-2.872Zm-3.898 3.84-2.523 2.486-2.627-2.666 2.523-2.486Zm-2.612-4.616-2.873-2.915 2.915-2.873 2.873 2.915Zm4.563-10.242a2.046 2.046 0 1 1 2.873 2.914l-3.539 3.487-2.872-2.915Zm-11.804 2.894a2.046 2.046 0 0 1 2.914-2.874l3.401 3.452-2.915 2.872Zm3.386 5.4 2.872 2.916-2.523 2.486-2.872-2.915Zm-.633 6.37-2.915 2.872-2.872-2.915 2.914-2.872Zm-10.102-4.422a2.046 2.046 0 0 1 2.914-2.872l3.347 3.397-2.914 2.872Zm2.753 11.664a2.096 2.096 0 0 1-2.894-.022 2.049 2.049 0 0 1 .02-2.892l3.453-3.403 2.873 2.915Zm5.402-3.388 2.915-2.872 2.627 2.666-2.915 2.872Zm6.51.777 2.872 2.915-2.914 2.872-2.873-2.915Zm-4.563 10.241a2.095 2.095 0 0 1-2.894-.02 2.05 2.05 0 0 1 .02-2.894l3.54-3.487 2.872 2.915Zm11.804-2.893a2.046 2.046 0 1 1-2.914 2.873l-3.401-3.452 2.914-2.872Zm-3.386-5.402-2.873-2.915 2.523-2.485 2.873 2.915Zm10.714.946a2.049 2.049 0 0 1-2.893-.02l-3.348-3.397 2.915-2.873 3.347 3.397a2.05 2.05 0 0 1-.02 2.894Z"></path><path fill="#f05b43" d="M253.85 189.052a2.11 2.11 0 0 1 2.11 2.11v3.562h-4.22v-3.561a2.11 2.11 0 0 1 2.11-2.11Z"></path><path fill="#cf2633" d="M254.808 189.293a2.087 2.087 0 0 0-.959-.24 2.11 2.11 0 0 0-2.11 2.11v3.561h1.917v-3.561a2.102 2.102 0 0 1 1.152-1.87Z"></path><path fill="#f05b43" d="M253.85 90.593a25.69 25.69 0 1 0 25.69 25.69 25.69 25.69 0 0 0-25.69-25.69Zm6.987 32.672H246.86v-13.969h13.976Z"></path><path fill="#cf2633" d="M241.98 116.284a25.695 25.695 0 0 1 18.78-24.743 25.691 25.691 0 1 0 0 49.485 25.7 25.7 0 0 1-18.78-24.742Z"></path><path fill="#ffcb5c" d="M275.026 116.281a22.898 22.898 0 0 1-5.817 15.36 19.867 19.867 0 0 1-6.947 4.948 20.287 20.287 0 0 1-8.413 1.626 21.593 21.593 0 0 1-8.284-1.934 23.087 23.087 0 0 1-6.853-4.862 22.828 22.828 0 0 1-6.502-15.138 21.287 21.287 0 0 1 6.05-15.589 22.168 22.168 0 0 1 7.113-4.874 21.323 21.323 0 0 1 16.922.075 20.313 20.313 0 0 1 6.937 5.006 22.903 22.903 0 0 1 5.794 15.382Zm-.207 0a19.249 19.249 0 0 0-1.763-7.956 20.138 20.138 0 0 0-4.787-6.463 21.537 21.537 0 0 0-14.42-5.55 20.55 20.55 0 0 0-14.212 5.757 20.953 20.953 0 0 0-6.294 14.212 19.944 19.944 0 0 0 1.363 7.93 19.47 19.47 0 0 0 4.48 6.734 20.199 20.199 0 0 0 14.663 5.548 22.452 22.452 0 0 0 14.442-5.77 20.356 20.356 0 0 0 4.78-6.48 19.127 19.127 0 0 0 1.748-7.962Z"></path><path fill="#f29720" d="M254.3 138.212a25.758 25.758 0 0 1-2.527-1.759 20.046 20.046 0 0 1-12.587-5.508 19.47 19.47 0 0 1-4.48-6.735 19.945 19.945 0 0 1-1.363-7.929 20.953 20.953 0 0 1 6.294-14.212 20.475 20.475 0 0 1 11.68-5.587 25.758 25.758 0 0 1 3.35-2.346 23.694 23.694 0 0 0-.818-.031 21.566 21.566 0 0 0-8.476 1.713 22.168 22.168 0 0 0-7.112 4.874 21.287 21.287 0 0 0-6.05 15.59 22.828 22.828 0 0 0 6.5 15.137 23.086 23.086 0 0 0 6.854 4.862 21.592 21.592 0 0 0 8.284 1.934c.15.003.3-.003.45-.003Z"></path><path fill="#ffcb5c" d="M263.996 105.031c-1.691 0-3.382-.01-5.073.023l-5.074.103c-1.69.039-3.382.076-5.073.147-1.69.064-3.382.177-5.073.264l-.595.03.028.537c.09 1.69.182 3.382.215 5.073.045 1.691.046 3.382.016 5.073-.04 1.691-.122 3.382-.235 5.073-.11 1.691-.223 3.383-.29 5.074l-.034.829.895.032c1.741.062 3.5.079 5.245.039 1.747-.03 3.49-.08 5.208-.16 1.72-.075 3.42-.17 5.076-.285 1.66-.11 3.285-.234 4.837-.382l.365-4.85c.117-1.653.222-3.345.315-5.058.096-1.713.172-3.45.232-5.197.07-1.747.083-3.506.118-5.261l.022-1.103Zm-5.383 20.941c-1.726-.115-3.407-.21-5.07-.285-1.664-.08-3.304-.13-4.939-.16a77.041 77.041 0 0 0-4.085.02 253.47 253.47 0 0 0-.245-4.193 119.028 119.028 0 0 1-.236-5.073c-.03-1.69-.029-3.382.016-5.073.03-1.493.106-2.985.185-4.477 1.512.082 3.025.177 4.537.234 1.691.071 3.382.108 5.073.147l5.074.104c1.33.026 2.66.024 3.99.023.023 1.258.044 2.515.098 3.781.06 1.635.136 3.28.232 4.95l.315 5.087.365 5.298c-1.83-.149-3.588-.273-5.31-.383Z"></path><path fill="#f29720" d="M244.466 127.306a25.49 25.49 0 0 1-1.467-3.855c-.061.992-.118 1.985-.157 2.977l-.034.829.895.032c.253.009.509.01.763.017ZM243.703 105.568l-.595.03.028.537q.058 1.09.11 2.179a25.489 25.489 0 0 1 1.092-2.781l-.635.035Z"></path><path fill="#fff" d="M259.519 100.568a6.75 6.75 0 0 1 4.645.586 9.538 9.538 0 0 1 3.464 3.191 17.18 17.18 0 0 1 2.133 4.066c.24.719.43 1.452.637 2.17l.41 2.205-.172.04-.757-2.08c-.31-.666-.597-1.338-.928-1.982a16.017 16.017 0 0 0-2.418-3.524 18.765 18.765 0 0 0-3.237-2.546 18.47 18.47 0 0 0-3.773-1.95Z"></path></svg>