<svg xmlns="http://www.w3.org/2000/svg" data-name="Layer 1" viewBox="0 0 700 550" id="the-entrance-with-roof-in-chinese-style-which-decorate-and-hanging-lanterns-on-tree"><path fill="#ffbbae" d="m635.817 203.673-44.38 1.064 33.632.808-26.311.628 22.124.532-34.828.831 49.267 1.179q-.35 2.593-.885 5.132l-30.307.723 20.312.485-13.41.323 22.932.55a69.778 69.778 0 0 1-2.476 8.105l-40.924.98 25.654.617-16.813.4 30.994.742a71.712 71.712 0 0 1-18.045 25.426l-32.113.772 30.396.73a2.227 2.227 0 0 1-.185.161l-22.89.544 21.592.52c-.012.013-.018.025-.03.025l-34.266.819 32.215.772a71.7 71.7 0 0 1-113.853-66.847v-.006l29.099-.693-16.808-.401 25.648-.616-37.55-.897a68.369 68.369 0 0 1 1.932-8.374l15.15-.365-13.41-.323 20.312-.484-21.532-.515q.996-3.131 2.285-6.13l37.323-.892-33.328-.795 20.624-.497-23.315-.556 30.636-.736-29.984-.717a71.71 71.71 0 0 1 103.858-27.257l-28.459.682 29.924.718-23.022.688 25.51.765a71.53 71.53 0 0 1 27.86 56.726c0 1.561-.047 3.116-.155 4.654Z"></path><path fill="#fff4f3" d="M167.002 476.295c-38.48-28.919-74.446-84.4-61.444-128.386 11.036-37.336 48.612-37.074 59.551-76.206 12.75-45.613-31.173-71.466-26.779-108.277C149.04 73.73 436.136 6.773 472.476 70.283c25.732 44.972-88.62 130.274-57.049 186.283 28.18 49.998 134.847 9.622 165.325 61.707 25.402 43.407-15.17 128.709-75.359 166.378-32.155 20.122-75.144 18.912-159.796 19.843-93.198 1.024-140.578.37-178.595-28.199"></path><path fill="#ffd4c9" d="M64.027 175.053c8.79-3.688 16.218-6.774 21.826-9.095 14.498-5.999 17.013-6.955 21.307-7.535 6.804-.918 12.85.167 24.944 2.339 15.664 2.812 14.45 4.237 21.046 4.417 11.984.327 21.545-4.223 30.141-8.315 12.656-6.023 11.915-8.758 21.307-11.952a56.585 56.585 0 0 1 28.841-1.82c7.297 1.51 10.98 3.925 29.622 15.331a5346.725 5346.725 0 0 0 26.503 16.11ZM627.278 258.591a4813.217 4813.217 0 0 0-21.826-9.094c-14.498-6-17.013-6.956-21.306-7.535-6.805-.919-12.851.167-24.944 2.338-15.664 2.813-14.45 4.237-21.047 4.417-11.984.327-21.544-4.223-30.14-8.314-12.656-6.024-11.916-8.758-21.307-11.953a56.585 56.585 0 0 0-28.842-1.818c-7.297 1.508-10.98 3.923-29.621 15.33a5346.142 5346.142 0 0 1-26.503 16.11ZM515.09 357.964a4812.778 4812.778 0 0 0-21.827-9.095c-14.498-5.998-17.013-6.955-21.306-7.535-6.805-.918-12.851.168-24.945 2.339-15.664 2.812-14.45 4.237-21.046 4.417-11.984.327-21.544-4.223-30.14-8.315-12.656-6.023-11.916-8.758-21.307-11.952a56.585 56.585 0 0 0-28.842-1.819c-7.297 1.509-10.98 3.924-29.621 15.33a5347.2 5347.2 0 0 1-26.503 16.11ZM564.294 504.754a9394.108 9394.108 0 0 0-42.594-17.748c-28.293-11.707-33.2-13.574-41.58-14.705-13.278-1.792-25.078.326-48.678 4.564-30.568 5.488-28.199 8.269-41.072 8.62-23.387.638-42.044-8.242-58.82-16.227-24.698-11.754-23.253-17.09-41.58-23.324a110.426 110.426 0 0 0-56.285-3.55c-14.239 2.944-21.426 7.657-57.805 29.917a10435.544 10435.544 0 0 1-51.721 31.438Z"></path><path fill="#f05b43" d="M389.836 314.687h5.431v26.751h-5.431z"></path><path fill="#f05b43" d="m392.552 300.552 8.505 8.505-8.505 8.505-8.505-8.505z"></path><path fill="#cf2633" d="M389.836 314.687h2.954v26.751h-2.954z"></path><path fill="#cf2633" d="m387.999 309.057 6.529-6.529-1.976-1.976-8.506 8.505 8.506 8.505 1.976-1.976-6.529-6.529z"></path><rect width="46.756" height="66.897" x="369.304" y="228.879" fill="#f05b43" rx="23.378"></rect><path fill="#cf2633" d="M380.093 283.318v-41.981a12.458 12.458 0 0 1 11.753-12.437 23.374 23.374 0 0 0-22.543 23.357v20.14a23.374 23.374 0 0 0 22.543 23.358 12.458 12.458 0 0 1-11.753-12.437Z"></path><path fill="#f05b43" d="M392.682 228.879a23.314 23.314 0 0 1 8.303 1.523v-6.319h-16.607v6.319a23.314 23.314 0 0 1 8.304-1.523Z"></path><path fill="#cf2633" d="M397.771 228.879a23.442 23.442 0 0 0-2.545.143 23.3 23.3 0 0 1 5.759 1.38V229.1a23.435 23.435 0 0 0-3.214-.221ZM389.468 224.083h-5.09v6.319a23.3 23.3 0 0 1 5.09-1.302Z"></path><path fill="#f05b43" d="M392.682 295.776a23.314 23.314 0 0 1-8.304-1.523v10.636h16.607v-10.636a23.314 23.314 0 0 1-8.303 1.523Z"></path><path fill="#cf2633" d="M384.378 294.253v10.636h5.458v-9.291a23.3 23.3 0 0 1-5.458-1.345Z"></path><path fill="#ffcb5c" d="M392.552 295.85a12.936 12.936 0 0 1-12.013-8.15 14.1 14.1 0 0 1-.932-5.095c-.205-6.76-.277-13.519-.275-20.278-.047-6.759.012-13.518.067-20.277a14.089 14.089 0 0 1 .848-5.201 13.095 13.095 0 0 1 2.83-4.46 12.804 12.804 0 0 1 9.475-3.915 12.933 12.933 0 0 1 9.238 4.14 13.293 13.293 0 0 1 3.476 9.436c.02 6.76.263 13.518.356 20.277.072 6.76.047 13.519-.148 20.278a14.03 14.03 0 0 1-.923 5.09 12.733 12.733 0 0 1-2.81 4.3 12.9 12.9 0 0 1-9.19 3.855Zm0-.148a11.956 11.956 0 0 0 8.909-3.971 12.215 12.215 0 0 0 2.478-4.26 13.145 13.145 0 0 0 .608-4.866c-.196-6.76-.22-13.519-.149-20.278.093-6.759.336-13.518.356-20.277a12.853 12.853 0 0 0-.723-4.9 12.235 12.235 0 0 0-2.619-4.18 11.91 11.91 0 0 0-8.86-3.687 12.033 12.033 0 0 0-8.624 3.91 11.86 11.86 0 0 0-2.457 4.102 13.071 13.071 0 0 0-.683 4.755c.055 6.76.114 13.518.067 20.277.002 6.76-.07 13.519-.276 20.278a13.078 13.078 0 0 0 .6 4.861 12.019 12.019 0 0 0 11.373 8.236ZM391.813 195.17h1.477v28.913h-1.477z"></path><circle cx="392.682" cy="214.028" r="3.102" fill="#f05b43"></circle><circle cx="392.682" cy="219.324" r="1.584" fill="#f05b43"></circle><circle cx="392.682" cy="208.489" r="1.584" fill="#f05b43"></circle><path fill="#cf2633" d="M391.163 214.028a3.1 3.1 0 0 1 2.31-2.997 3.102 3.102 0 1 0 0 5.993 3.1 3.1 0 0 1-2.31-2.996ZM392.682 219.324a1.577 1.577 0 0 1 .791-1.364 1.584 1.584 0 1 0 0 2.727 1.577 1.577 0 0 1-.791-1.363ZM392.682 208.489a1.577 1.577 0 0 1 .791-1.364 1.584 1.584 0 1 0 0 2.728 1.577 1.577 0 0 1-.791-1.364Z"></path><path fill="#fff" d="M392.691 233.701a5.149 5.149 0 0 1 4.018.645 7.38 7.38 0 0 1 2.623 3.103 13.159 13.159 0 0 1 1.333 3.677c.114.633.183 1.269.269 1.893q.05.95.066 1.888l-.22.025q-.273-.896-.515-1.777c-.22-.573-.42-1.147-.657-1.699a14.704 14.704 0 0 0-.807-1.59l-.443-.754-.512-.697a23.84 23.84 0 0 0-2.427-2.268 28.285 28.285 0 0 0-2.747-2.225Z"></path><path fill="#f05b43" d="M184.377 242.83h7.916v38.994h-7.916z"></path><path fill="#cf2633" d="M184.377 242.83h3.958v38.994h-3.958z"></path><path fill="#f05b43" d="m188.51 222.14 12.399 12.397-12.398 12.398-12.398-12.398z"></path><path fill="#cf2633" d="m182.717 234.538 9.096-9.096-3.302-3.302-12.398 12.398 12.398 12.398 3.302-3.302-9.096-9.096z"></path><path fill="#ffcb5c" d="M187.586 108.371h1.498v29.416h-1.498z"></path><path fill="#f05b43" d="M231.874 190.66c0-13.876-11.429-25.716-27.56-30.524v-7.004h-31.078v6.761c-16.591 4.635-28.44 16.642-28.44 30.767s11.849 26.132 28.44 30.767v4.77h31.078v-5.013c16.131-4.808 27.56-16.648 27.56-30.524Z"></path><path fill="#cf2633" d="M156.749 190.66c0-14.125 11.848-26.132 28.439-30.767v-6.761h-11.952v6.761c-16.591 4.635-28.44 16.642-28.44 30.767s11.849 26.132 28.44 30.767v4.77h11.952v-4.77c-16.591-4.635-28.44-16.642-28.44-30.767Z"></path><path fill="#ffcb5c" d="M188.335 166.032c.59 8.464.725 16.928.749 25.391-.021 8.464-.156 16.928-.749 25.391-.592-8.463-.727-16.927-.748-25.39.024-8.464.16-16.928.748-25.392ZM181.923 218.244a24.239 24.239 0 0 1-9.799-11.339 36.094 36.094 0 0 1-3.05-14.9 35.687 35.687 0 0 1 3.263-14.854 23.767 23.767 0 0 1 10.033-11.124 26.238 26.238 0 0 0-8.965 11.6 38.105 38.105 0 0 0-2.834 14.389 38.551 38.551 0 0 0 2.625 14.432 26.805 26.805 0 0 0 8.727 11.796ZM195.562 218.244a26.806 26.806 0 0 0 8.728-11.796 38.551 38.551 0 0 0 2.624-14.432 38.105 38.105 0 0 0-2.834-14.389 26.238 26.238 0 0 0-8.965-11.6 23.767 23.767 0 0 1 10.033 11.124 35.686 35.686 0 0 1 3.263 14.855 36.094 36.094 0 0 1-3.05 14.899 24.24 24.24 0 0 1-9.799 11.34Z"></path><path fill="#ffcb5c" d="M177.633 218.609a36.617 36.617 0 0 1-9.263-3.378 32.972 32.972 0 0 1-7.957-5.955 25.734 25.734 0 0 1-5.522-8.351 23.636 23.636 0 0 1-1.696-9.917 23.9 23.9 0 0 1 2.623-9.707 27.327 27.327 0 0 1 6.167-7.877 34.227 34.227 0 0 1 8.324-5.421 37.86 37.86 0 0 1 9.435-2.857 41.911 41.911 0 0 0-9.111 3.516 33.599 33.599 0 0 0-7.864 5.606c-4.632 4.425-7.833 10.438-8.079 16.811a24.12 24.12 0 0 0 6.562 17.415 32.413 32.413 0 0 0 7.479 6.103 40.355 40.355 0 0 0 8.902 4.012ZM201.173 218.609a40.355 40.355 0 0 0 8.902-4.012 32.413 32.413 0 0 0 7.48-6.103 24.12 24.12 0 0 0 6.561-17.415c-.246-6.373-3.447-12.386-8.079-16.81a33.599 33.599 0 0 0-7.864-5.607 41.91 41.91 0 0 0-9.11-3.516 37.859 37.859 0 0 1 9.435 2.857 34.226 34.226 0 0 1 8.323 5.42 27.327 27.327 0 0 1 6.167 7.878 23.9 23.9 0 0 1 2.623 9.707 23.636 23.636 0 0 1-1.696 9.917 25.734 25.734 0 0 1-5.522 8.351 32.972 32.972 0 0 1-7.957 5.955 36.617 36.617 0 0 1-9.263 3.378Z"></path><path fill="#f05b43" d="m188.51 135.54 8.796 8.796-8.796 8.796-8.795-8.796z"></path><path fill="#cf2633" d="m184.012 144.336 6.647-6.647-2.148-2.149-8.796 8.796 8.796 8.796 2.148-2.149-6.647-6.647z"></path><path fill="#ffcb5c" d="M173.236 159.893a42.718 42.718 0 0 1 7.701-1.55 61.924 61.924 0 0 1 7.854-.432 59.93 59.93 0 0 1 7.846.561 46.856 46.856 0 0 1 7.677 1.664c-2.621-.146-5.198-.392-7.787-.5a155.05 155.05 0 0 0-7.747-.228c-2.583-.045-5.166.02-7.754.096-2.588.09-5.177.217-7.79.39ZM173.236 221.427c5.23-.049 10.403.168 15.577.224 2.585.055 5.17.066 7.749.016a74.672 74.672 0 0 0 7.752-.483 30.519 30.519 0 0 1-7.68 1.65 64.364 64.364 0 0 1-7.844.315 86.873 86.873 0 0 1-7.819-.485 65.23 65.23 0 0 1-7.735-1.237Z"></path><circle cx="188.335" cy="127.905" r="4.472" fill="#f05b43"></circle><path fill="#cf2633" d="M187.329 127.905a4.473 4.473 0 0 1 2.74-4.124 4.473 4.473 0 1 0 0 8.248 4.473 4.473 0 0 1-2.74-4.124Z"></path><path fill="#fff" d="M202.132 194.067a41.556 41.556 0 0 0-.604-7.498 34.008 34.008 0 0 0-1.978-7.148 46.236 46.236 0 0 0-3.466-6.422 44.7 44.7 0 0 0-4.383-5.973l.13-.184a14.996 14.996 0 0 1 6.104 4.883 21.572 21.572 0 0 1 3.311 7.1 35.466 35.466 0 0 1 1.398 7.611 37.69 37.69 0 0 1-.288 7.649Z"></path><path fill="#6c353c" d="M461.038 153.21a58.105 58.105 0 0 1-10.423-2.915 50.562 50.562 0 0 0-10.617-2.66 33.708 33.708 0 0 0-5.512-.149 105.33 105.33 0 0 0-5.457.38c-3.625.34-7.233.8-10.833 1.296-7.19.993-14.394 2.192-21.493 3.726-7.057 1.505-14.243 2.436-21.416 3.424-3.21.422-6.422.765-9.63.977q3.94-1.855 7.782-3.894a128.706 128.706 0 0 0 13.246-8.002c2.133-1.461 4.162-3.07 6.172-4.635l6.06-4.707c2.027-1.556 4.06-3.104 6.16-4.549a34.547 34.547 0 0 1 3.242-2.018 8.937 8.937 0 0 1 3.592-1.202 9.041 9.041 0 0 0-3.691 1 34.857 34.857 0 0 0-3.385 1.842c-2.198 1.328-4.326 2.76-6.446 4.198l-6.33 4.349c-2.115 1.457-4.19 2.911-6.36 4.217a126.497 126.497 0 0 1-13.458 7.089 169 169 0 0 1-14.063 5.727l-.045.016q-.046.016-.093.036a1.786 1.786 0 0 0-.837.73 74.115 74.115 0 0 1-3.38-.152 76.866 76.866 0 0 1-10.595-1.39c-3.497-.712-6.972-1.632-10.447-2.607-3.475-.982-6.948-2.015-10.425-3.047-3.469-1.038-6.917-2.08-10.324-3.236-3.422-1.14-6.737-2.407-10.151-3.726a48.82 48.82 0 0 0-5.372-1.763c-.34-.087-.68-.148-1.02-.226l30.873-23.429-35.516 22.553a71.676 71.676 0 0 0-11.033-.825c-3.743-.019-7.384.41-10.584-.014a21.576 21.576 0 0 1-4.746-1.204 27.364 27.364 0 0 1-4.475-2.176 21.227 21.227 0 0 1-3.822-3.088c-1.238-1.216-2.526-2.564-3.886-3.851a79.626 79.626 0 0 0-8.679-7.117 100.026 100.026 0 0 0-9.424-6 110.174 110.174 0 0 0-20.49-8.805 105.311 105.311 0 0 0-21.92-4.385c-2.37-.234-4.729-.401-7.08-.55a47.772 47.772 0 0 1 4.49-3.103 40.926 40.926 0 0 1 5.348-2.775 39.008 39.008 0 0 1 5.754-1.973 39.49 39.49 0 0 0-6.048 1.123 42.27 42.27 0 0 0-5.872 2.022 49.58 49.58 0 0 0-5.605 2.785c-.914.531-1.8 1.073-2.677 1.656-3.411-.185-6.904-.314-10.356-.318a187.876 187.876 0 0 0-22.132 1.25l-.078.01a3.598 3.598 0 0 0 .98 7.13 180.884 180.884 0 0 1 21.28-1.645c3.574-.068 7.092-.011 10.714.12 3.612.116 7.183.263 10.722.54a99.187 99.187 0 0 1 20.77 3.704 104.566 104.566 0 0 1 19.608 7.948 87.61 87.61 0 0 1 17.32 12c1.3 1.18 2.545 2.43 3.921 3.73a26.042 26.042 0 0 0 4.71 3.628c.228.135.459.254.688.381a114.005 114.005 0 0 0 5.887 13.702 102.72 102.72 0 0 0 8.562 14.023 69.192 69.192 0 0 0 11.1 12.053 53.556 53.556 0 0 0 6.676 4.728 45.04 45.04 0 0 0 7.4 3.402 44.813 44.813 0 0 1-7.162-3.783 52.88 52.88 0 0 1-6.317-5.02 67.847 67.847 0 0 1-10.219-12.404 100.478 100.478 0 0 1-7.603-14.157 116.313 116.313 0 0 1-4.064-10.608c.133.05.265.105.399.154a26.149 26.149 0 0 0 5.807 1.34 36.063 36.063 0 0 0 5.783.072c1.845-.101 3.61-.212 5.377-.253a67.499 67.499 0 0 1 10.538.578c1.753.231 3.487.505 5.158.898a44.978 44.978 0 0 1 4.995 1.53c3.379 1.226 6.87 2.48 10.357 3.559 3.488 1.104 7.008 2.089 10.511 3.058 3.5.96 7.002 1.924 10.53 2.843 3.53.911 7.091 1.778 10.72 2.439.3.054.601.096.901.147a1.792 1.792 0 0 0 .876 1.08l.027.015c5.881 3.15 11.699 6.582 17.263 10.294a97.185 97.185 0 0 1 8.052 5.94c2.52 2.121 4.924 4.531 7.382 6.848a104.316 104.316 0 0 0 15.764 12.892 49.83 49.83 0 0 0 9.09 4.6 39.268 39.268 0 0 0 9.889 2.23 39.036 39.036 0 0 1-9.722-2.649 49.155 49.155 0 0 1-8.759-4.93 103.04 103.04 0 0 1-14.994-13.42c-2.356-2.423-4.619-4.913-7.17-7.262a99.545 99.545 0 0 0-7.978-6.455 203.734 203.734 0 0 0-12.22-8.266c.866.063 1.732.115 2.596.149 1.493.075 2.985.092 4.476.081a1.784 1.784 0 0 0 1.2-.009 125.876 125.876 0 0 0 16.246-1.561c3.604-.543 7.18-1.147 10.763-1.75a181.2 181.2 0 0 0 10.723-2.143 249.12 249.12 0 0 1 9.086-1.965 1.795 1.795 0 0 0 .781 1.62 34.233 34.233 0 0 0 4.767 2.634c1.594.76 3.221 1.408 4.854 2.028a85.579 85.579 0 0 0 9.979 2.957c3.36.81 6.766 1.37 10.168 1.853 1.702.238 3.415.387 5.117.585l5.128.374-5.067-.82c-1.676-.345-3.357-.641-5.02-1.024-3.322-.773-6.623-1.618-9.84-2.7a83.34 83.34 0 0 1-9.42-3.713c-1.512-.731-3.008-1.485-4.438-2.328a35.347 35.347 0 0 1-3.344-2.169q4.267-.79 8.56-1.481c3.576-.57 7.159-1.1 10.75-1.514 1.795-.203 3.593-.377 5.39-.486a32.816 32.816 0 0 1 5.357.03 49.768 49.768 0 0 1 10.507 2.407 58.658 58.658 0 0 0 10.568 2.72 60.933 60.933 0 0 0 21.678-.774 60.708 60.708 0 0 1-21.607.33Z"></path><circle cx="230.628" cy="189.251" r="4.426" fill="#f05b43"></circle><circle cx="168.531" cy="260.016" r="4.426" fill="#f05b43"></circle><circle cx="338.235" cy="270.574" r="4.426" fill="#ffcb5c"></circle><circle cx="444.295" cy="189.251" r="4.426" fill="#f05b43"></circle><circle cx="280.671" cy="74.795" r="4.426" fill="#ffcb5c"></circle><circle cx="164.105" cy="75.27" r="4.426" fill="#f05b43"></circle><circle cx="216.776" cy="120.069" r="4.426" fill="#ffcb5c"></circle><circle cx="374.283" cy="111.218" r="4.426" fill="#f05b43"></circle><circle cx="509.797" cy="178.51" r="4.426" fill="#ffcb5c"></circle><circle cx="505.371" cy="153.784" r="4.426" fill="#f05b43"></circle><circle cx="365.432" cy="171.361" r="4.426" fill="#f05b43"></circle><circle cx="395.176" cy="195.169" r="4.426" fill="#f05b43"></circle><path fill="#ffcb5c" d="M501.325 107.83a5.462 5.462 0 1 1 5.463-5.464 5.468 5.468 0 0 1-5.463 5.463Zm0-8.851a3.388 3.388 0 1 0 3.389 3.387 3.392 3.392 0 0 0-3.389-3.387ZM340.417 89.584a5.462 5.462 0 1 1 5.463-5.463 5.468 5.468 0 0 1-5.463 5.463Zm0-8.85a3.388 3.388 0 1 0 3.389 3.387 3.392 3.392 0 0 0-3.389-3.388ZM145.443 211.063a5.463 5.463 0 1 1 5.462-5.462 5.468 5.468 0 0 1-5.462 5.462Zm0-8.851a3.389 3.389 0 1 0 3.388 3.389 3.393 3.393 0 0 0-3.388-3.39ZM212.35 236.858a5.463 5.463 0 1 1 5.463-5.462 5.468 5.468 0 0 1-5.463 5.462Zm0-8.851a3.389 3.389 0 1 0 3.388 3.389 3.392 3.392 0 0 0-3.388-3.39ZM241.275 291.147a5.462 5.462 0 1 1 5.463-5.461 5.468 5.468 0 0 1-5.463 5.461Zm0-8.85a3.388 3.388 0 1 0 3.39 3.389 3.393 3.393 0 0 0-3.39-3.39ZM333.809 329.247a5.462 5.462 0 1 1 5.462-5.463 5.468 5.468 0 0 1-5.462 5.463Zm0-8.85a3.388 3.388 0 1 0 3.388 3.387 3.391 3.391 0 0 0-3.388-3.388ZM365.432 241.284a5.463 5.463 0 1 1 5.463-5.463 5.469 5.469 0 0 1-5.463 5.463Zm0-8.851a3.389 3.389 0 1 0 3.388 3.388 3.393 3.393 0 0 0-3.388-3.388ZM461.923 256.589a5.463 5.463 0 1 1 5.463-5.463 5.469 5.469 0 0 1-5.463 5.463Zm0-8.852a3.389 3.389 0 1 0 3.389 3.389 3.393 3.393 0 0 0-3.39-3.389Z"></path><circle cx="531.43" cy="246.7" r="4.426" fill="#ffcb5c"></circle><circle cx="447.478" cy="289.355" r="4.426" fill="#f05b43"></circle><path fill="#ffcb5c" d="M239.479 64.112a5.462 5.462 0 1 1 5.462-5.463 5.468 5.468 0 0 1-5.462 5.463Zm0-8.85a3.388 3.388 0 1 0 3.388 3.387 3.391 3.391 0 0 0-3.388-3.387Z"></path><path fill="#f05b43" d="M347.58 190.83a3.886 3.886 0 0 0-3.885-3.886 3.843 3.843 0 0 0-1.847.487 3.83 3.83 0 0 0 .049-.487 3.886 3.886 0 1 0-7.772 0 3.846 3.846 0 0 0 .156 1.03 3.843 3.843 0 0 0-1.78-.45 3.879 3.879 0 0 0-.607 7.71 3.88 3.88 0 1 0 6.407 4.135 3.884 3.884 0 1 0 5.76-4.69 3.873 3.873 0 0 0 3.52-3.849Zm-9.28 5.613a3.878 3.878 0 0 0-2.988-2.362 3.756 3.756 0 0 0 .92-3.701 3.744 3.744 0 0 0 3.626-.037 3.829 3.829 0 0 0-.05.487 3.881 3.881 0 0 0 1.723 3.227 3.873 3.873 0 0 0-3.23 2.386Z"></path><ellipse cx="338.098" cy="193.025" fill="#fff" rx="3.659" ry="3.491"></ellipse><path fill="#ffcb5c" d="M338.098 195.845a2.822 2.822 0 1 1 2.923-2.82 2.876 2.876 0 0 1-2.923 2.82Zm0-4.292a1.475 1.475 0 1 0 1.574 1.472 1.527 1.527 0 0 0-1.574-1.472Z"></path><path fill="#f05b43" d="M366.735 145.26a3.886 3.886 0 0 0-1.779-5.199 3.843 3.843 0 0 0-1.873-.376 3.829 3.829 0 0 0 .259-.416 3.886 3.886 0 1 0-6.979-3.42 3.846 3.846 0 0 0-.313.993 3.843 3.843 0 0 0-1.4-1.188 3.879 3.879 0 0 0-3.94 6.656 3.88 3.88 0 1 0 3.933 6.533 3.884 3.884 0 1 0 7.237-1.676 3.873 3.873 0 0 0 4.855-1.906Zm-10.804.955a3.878 3.878 0 0 0-1.644-3.436 3.756 3.756 0 0 0 2.455-2.919 3.744 3.744 0 0 0 3.273 1.564 3.83 3.83 0 0 0-.259.416 3.881 3.881 0 0 0 .126 3.655 3.873 3.873 0 0 0-3.95.72Z"></path><ellipse cx="357.254" cy="143.057" fill="#fff" rx="3.491" ry="3.659" transform="rotate(-63.882 357.254 143.057)"></ellipse><path fill="#ffcb5c" d="M356.012 145.59a2.822 2.822 0 1 1 3.867-1.246 2.876 2.876 0 0 1-3.867 1.245Zm1.89-3.854a1.475 1.475 0 1 0 .765 2.014 1.527 1.527 0 0 0-.765-2.014ZM388.191 192.9a3.886 3.886 0 0 0-3.886-3.885 3.843 3.843 0 0 0-1.847.487 3.828 3.828 0 0 0 .05-.487 3.886 3.886 0 1 0-7.773 0 3.846 3.846 0 0 0 .156 1.03 3.843 3.843 0 0 0-1.78-.45 3.879 3.879 0 0 0-.607 7.71 3.88 3.88 0 1 0 6.407 4.135 3.884 3.884 0 1 0 5.76-4.69 3.873 3.873 0 0 0 3.52-3.85Zm-9.28 5.614a3.878 3.878 0 0 0-2.989-2.362 3.756 3.756 0 0 0 .92-3.701 3.744 3.744 0 0 0 3.626-.037 3.83 3.83 0 0 0-.049.487 3.881 3.881 0 0 0 1.722 3.227 3.873 3.873 0 0 0-3.23 2.386Z"></path><ellipse cx="378.708" cy="195.096" fill="#fff" rx="3.659" ry="3.491"></ellipse><path fill="#f05b43" d="M378.708 197.916a2.822 2.822 0 1 1 2.923-2.82 2.876 2.876 0 0 1-2.923 2.82Zm0-4.292a1.475 1.475 0 1 0 1.574 1.471 1.527 1.527 0 0 0-1.574-1.47ZM421.618 204.023a3.886 3.886 0 0 0-.1-5.495 3.843 3.843 0 0 0-1.667-.932 3.83 3.83 0 0 0 .374-.316 3.886 3.886 0 1 0-5.594-5.396 3.846 3.846 0 0 0-.603.85 3.843 3.843 0 0 0-.968-1.56 3.879 3.879 0 0 0-5.79 5.128 3.88 3.88 0 1 0 1.74 7.424 3.884 3.884 0 1 0 7.402.624 3.873 3.873 0 0 0 5.206-.327Zm-10.576-2.403a3.878 3.878 0 0 0-.512-3.775 3.756 3.756 0 0 0 3.232-2.026 3.744 3.744 0 0 0 2.635 2.492 3.83 3.83 0 0 0-.373.316 3.881 3.881 0 0 0-1.001 3.518 3.873 3.873 0 0 0-3.981-.525Z"></path><ellipse cx="413.269" cy="199.019" fill="#fff" rx="3.491" ry="3.659" transform="rotate(-46.031 413.269 199.02)"></ellipse><path fill="#ffcb5c" d="M411.31 201.049a2.822 2.822 0 1 1 4.063 0 2.876 2.876 0 0 1-4.062 0Zm2.98-3.089a1.475 1.475 0 1 0 .112 2.152 1.527 1.527 0 0 0-.112-2.152ZM466 153.3a3.886 3.886 0 0 0-5.456.649 3.843 3.843 0 0 0-.76 1.752 3.83 3.83 0 0 0-.353-.34 3.886 3.886 0 1 0-4.809 6.106 3.846 3.846 0 0 0 .906.515 3.843 3.843 0 0 0-1.455 1.12 3.879 3.879 0 0 0 5.682 5.247 3.88 3.88 0 1 0 7.212-2.475 3.884 3.884 0 1 0-.12-7.427A3.873 3.873 0 0 0 466 153.3Zm-1.331 10.763a3.878 3.878 0 0 0-3.705.887 3.756 3.756 0 0 0-2.34-3.012 3.744 3.744 0 0 0 2.216-2.872 3.83 3.83 0 0 0 .352.34 3.881 3.881 0 0 0 3.6.644 3.873 3.873 0 0 0-.123 4.013Z"></path><ellipse cx="461.858" cy="162.108" fill="#fff" rx="3.659" ry="3.491" transform="rotate(-51.777 461.858 162.108)"></ellipse><path fill="#f05b43" d="M464.073 163.853a2.822 2.822 0 1 1-.407-4.042 2.876 2.876 0 0 1 .407 4.042Zm-3.371-2.655a1.475 1.475 0 1 0 2.13-.327 1.527 1.527 0 0 0-2.13.327Z"></path><path fill="#ffcb5c" d="M492.128 145.59a3.886 3.886 0 0 0-3.886-3.886 3.843 3.843 0 0 0-1.847.487 3.83 3.83 0 0 0 .05-.487 3.886 3.886 0 1 0-7.772 0 3.846 3.846 0 0 0 .155 1.03 3.843 3.843 0 0 0-1.78-.45 3.879 3.879 0 0 0-.606 7.71 3.88 3.88 0 1 0 6.407 4.135 3.884 3.884 0 1 0 5.76-4.69 3.873 3.873 0 0 0 3.52-3.849Zm-9.28 5.613a3.878 3.878 0 0 0-2.988-2.362 3.756 3.756 0 0 0 .919-3.701 3.744 3.744 0 0 0 3.627-.037 3.829 3.829 0 0 0-.05.487 3.881 3.881 0 0 0 1.722 3.227 3.873 3.873 0 0 0-3.23 2.386Z"></path><ellipse cx="482.645" cy="147.785" fill="#fff" rx="3.659" ry="3.491"></ellipse><path fill="#f05b43" d="M482.646 150.605a2.822 2.822 0 1 1 2.923-2.82 2.876 2.876 0 0 1-2.923 2.82Zm0-4.291a1.475 1.475 0 1 0 1.574 1.47 1.527 1.527 0 0 0-1.574-1.47Z"></path><path fill="#ffcb5c" d="M260.241 115.504a3.886 3.886 0 0 0-3.886-3.886 3.843 3.843 0 0 0-1.847.487 3.829 3.829 0 0 0 .05-.487 3.886 3.886 0 1 0-7.773 0 3.846 3.846 0 0 0 .156 1.03 3.843 3.843 0 0 0-1.78-.45 3.879 3.879 0 0 0-.607 7.71 3.88 3.88 0 1 0 6.407 4.135 3.884 3.884 0 1 0 5.76-4.69 3.873 3.873 0 0 0 3.52-3.85Zm-9.28 5.613a3.878 3.878 0 0 0-2.988-2.362 3.756 3.756 0 0 0 .919-3.701 3.744 3.744 0 0 0 3.626-.037 3.83 3.83 0 0 0-.049.487 3.881 3.881 0 0 0 1.722 3.227 3.873 3.873 0 0 0-3.23 2.386Z"></path><ellipse cx="250.758" cy="117.699" fill="#fff" rx="3.659" ry="3.491"></ellipse><path fill="#f05b43" d="M250.758 120.519a2.822 2.822 0 1 1 2.924-2.82 2.876 2.876 0 0 1-2.924 2.82Zm0-4.292a1.475 1.475 0 1 0 1.574 1.471 1.527 1.527 0 0 0-1.574-1.47ZM216.785 90.927a4.598 4.598 0 0 0-4.598-4.598 4.547 4.547 0 0 0-2.186.576 4.533 4.533 0 0 0 .058-.576 4.598 4.598 0 1 0-9.196 0 4.55 4.55 0 0 0 .184 1.22 4.547 4.547 0 0 0-2.106-.534 4.59 4.59 0 0 0-.718 9.124 4.592 4.592 0 1 0 7.58 4.892 4.596 4.596 0 1 0 6.817-5.55 4.583 4.583 0 0 0 4.165-4.554Zm-10.981 6.642a4.588 4.588 0 0 0-3.537-2.795 4.445 4.445 0 0 0 1.088-4.38 4.43 4.43 0 0 0 4.291-.043 4.533 4.533 0 0 0-.058.576 4.593 4.593 0 0 0 2.038 3.819 4.583 4.583 0 0 0-3.822 2.823Z"></path><ellipse cx="205.564" cy="93.525" fill="#fff" rx="4.329" ry="4.131"></ellipse><path fill="#ffcb5c" d="M205.564 96.862a3.34 3.34 0 1 1 3.459-3.338 3.403 3.403 0 0 1-3.46 3.338Zm0-5.079a1.745 1.745 0 1 0 1.862 1.741 1.807 1.807 0 0 0-1.862-1.74ZM428.694 81.468a3.08 3.08 0 0 0-3.08-3.08 3.046 3.046 0 0 0-1.464.386 3.037 3.037 0 0 0 .039-.386 3.08 3.08 0 1 0-6.16 0 3.048 3.048 0 0 0 .123.817 3.046 3.046 0 0 0-1.41-.357 3.074 3.074 0 0 0-.481 6.111 3.076 3.076 0 1 0 5.078 3.277 3.078 3.078 0 1 0 4.565-3.718 3.07 3.07 0 0 0 2.79-3.05Zm-7.355 4.449a3.073 3.073 0 0 0-2.37-1.872 2.977 2.977 0 0 0 .73-2.934 2.967 2.967 0 0 0 2.874-.029 3.035 3.035 0 0 0-.04.386 3.076 3.076 0 0 0 1.365 2.557 3.07 3.07 0 0 0-2.56 1.892Z"></path><ellipse cx="421.178" cy="83.208" fill="#fff" rx="2.9" ry="2.767"></ellipse><path fill="#f05b43" d="M421.178 85.443a2.237 2.237 0 1 1 2.317-2.236 2.28 2.28 0 0 1-2.317 2.236Zm0-3.402a1.169 1.169 0 1 0 1.247 1.166 1.21 1.21 0 0 0-1.247-1.166Z"></path><path fill="#ffcb5c" d="M398.937 152.842a3.08 3.08 0 0 0 2.143-3.792 3.046 3.046 0 0 0-.764-1.308 3.036 3.036 0 0 0 .382-.065 3.08 3.08 0 1 0-1.649-5.935 3.048 3.048 0 0 0-.753.337 3.046 3.046 0 0 0-.034-1.454 3.074 3.074 0 0 0-6.017 1.172 3.076 3.076 0 1 0-1.798 5.77 3.078 3.078 0 1 0 4.804 3.403 3.07 3.07 0 0 0 3.686 1.872Zm-6.255-5.896a3.073 3.073 0 0 0 1.17-2.784 2.977 2.977 0 0 0 3.02-.083 2.967 2.967 0 0 0 .798 2.762 3.038 3.038 0 0 0-.382.066 3.076 3.076 0 0 0-2.1 1.999 3.07 3.07 0 0 0-2.506-1.96Z"></path><ellipse cx="395.249" cy="146.066" fill="#fff" rx="2.767" ry="2.9" transform="rotate(-15.526 395.249 146.066)"></ellipse><path fill="#f05b43" d="M393.095 146.664a2.237 2.237 0 1 1 2.774 1.634 2.28 2.28 0 0 1-2.774-1.634Zm3.277-.91a1.169 1.169 0 1 0-.79 1.514 1.21 1.21 0 0 0 .79-1.514Z"></path><path fill="#ffcb5c" d="M437.462 139.105a3.08 3.08 0 0 0-4.34.368 3.046 3.046 0 0 0-.649 1.368 3.035 3.035 0 0 0-.27-.278 3.08 3.08 0 1 0-3.971 4.708 3.049 3.049 0 0 0 .703.432 3.046 3.046 0 0 0-1.182.848 3.074 3.074 0 0 0 4.362 4.308 3.076 3.076 0 1 0 5.778-1.769 3.078 3.078 0 1 0 .102-5.886 3.07 3.07 0 0 0-.533-4.1Zm-1.341 8.49a3.073 3.073 0 0 0-2.959.604 2.977 2.977 0 0 0-1.772-2.448 2.967 2.967 0 0 0 1.83-2.216 3.035 3.035 0 0 0 .27.278 3.076 3.076 0 0 0 2.835.606 3.07 3.07 0 0 0-.205 3.176Z"></path><ellipse cx="433.946" cy="145.971" fill="#fff" rx="2.9" ry="2.767" transform="rotate(-49.854 433.946 145.971)"></ellipse><path fill="#f05b43" d="M435.655 147.412a2.237 2.237 0 1 1-.215-3.212 2.28 2.28 0 0 1 .215 3.212Zm-2.6-2.193a1.169 1.169 0 1 0 1.695-.201 1.21 1.21 0 0 0-1.695.201Z"></path><path fill="#ffcb5c" d="M297.43 125.667a3.08 3.08 0 0 0-3.08-3.08 3.046 3.046 0 0 0-1.463.386 3.037 3.037 0 0 0 .038-.386 3.08 3.08 0 1 0-6.16 0 3.048 3.048 0 0 0 .124.817 3.046 3.046 0 0 0-1.41-.357 3.074 3.074 0 0 0-.482 6.111 3.076 3.076 0 1 0 5.078 3.277 3.078 3.078 0 1 0 4.566-3.717 3.07 3.07 0 0 0 2.79-3.051Zm-7.355 4.449a3.073 3.073 0 0 0-2.368-1.872 2.977 2.977 0 0 0 .728-2.934 2.967 2.967 0 0 0 2.875-.029 3.035 3.035 0 0 0-.04.386 3.076 3.076 0 0 0 1.365 2.558 3.07 3.07 0 0 0-2.56 1.89Z"></path><ellipse cx="289.915" cy="127.407" fill="#fff" rx="2.9" ry="2.767"></ellipse><path fill="#f05b43" d="M289.915 129.642a2.237 2.237 0 1 1 2.316-2.236 2.28 2.28 0 0 1-2.316 2.236Zm0-3.402a1.169 1.169 0 1 0 1.247 1.166 1.21 1.21 0 0 0-1.247-1.166ZM300.86 95.98a2.441 2.441 0 0 0-2.44-2.441 2.414 2.414 0 0 0-1.16.306 2.406 2.406 0 0 0 .03-.306 2.441 2.441 0 1 0-4.882 0 2.416 2.416 0 0 0 .098.647 2.414 2.414 0 0 0-1.118-.283 2.436 2.436 0 0 0-.381 4.844 2.438 2.438 0 1 0 4.024 2.597 2.44 2.44 0 1 0 3.619-2.946 2.433 2.433 0 0 0 2.21-2.418Zm-5.829 3.526a2.436 2.436 0 0 0-1.877-1.484 2.36 2.36 0 0 0 .577-2.325 2.352 2.352 0 0 0 2.278-.023 2.406 2.406 0 0 0-.03.306 2.438 2.438 0 0 0 1.081 2.027 2.433 2.433 0 0 0-2.029 1.499Z"></path><ellipse cx="294.904" cy="97.359" fill="#fff" rx="2.298" ry="2.193"></ellipse><path fill="#ffcb5c" d="M294.904 99.13a1.773 1.773 0 1 1 1.836-1.772 1.807 1.807 0 0 1-1.836 1.772Zm0-2.696a.926.926 0 1 0 .989.924.96.96 0 0 0-.99-.924ZM175.299 119.078a3.074 3.074 0 0 0 .844-4.265 3.04 3.04 0 0 0-1.134-1 3.03 3.03 0 0 0 .342-.182 3.074 3.074 0 1 0-3.42-5.109 3.043 3.043 0 0 0-.61.556 3.04 3.04 0 0 0-.487-1.368 3.068 3.068 0 0 0-5.336 2.995 3.07 3.07 0 1 0 .103 6.031 3.073 3.073 0 1 0 5.618 1.722 3.064 3.064 0 0 0 4.08.62Zm-7.775-3.63a3.068 3.068 0 0 0 .237-3.004 2.971 2.971 0 0 0 2.838-1.025 2.962 2.962 0 0 0 1.62 2.368 3.03 3.03 0 0 0-.341.182 3.07 3.07 0 0 0-1.364 2.552 3.064 3.064 0 0 0-2.99-1.073Z"></path><ellipse cx="169.682" cy="113.81" fill="#fff" rx="2.762" ry="2.894" transform="rotate(-33.808 169.682 113.81)"></ellipse><path fill="#f05b43" d="M167.828 115.052a2.233 2.233 0 1 1 3.14.68 2.275 2.275 0 0 1-3.14-.68Zm2.821-1.89a1.167 1.167 0 1 0-.274 1.683 1.208 1.208 0 0 0 .274-1.682Z"></path><path fill="#ffcb5c" d="M188.972 83.084a3.074 3.074 0 0 0-4.299-.654 3.04 3.04 0 0 0-.948 1.177 3.03 3.03 0 0 0-.197-.334 3.074 3.074 0 1 0-4.952 3.645 3.043 3.043 0 0 0 .582.583 3.04 3.04 0 0 0-1.345.548 3.068 3.068 0 0 0 3.23 5.197 3.07 3.07 0 1 0 6.02-.37 3.073 3.073 0 1 0 1.471-5.69 3.064 3.064 0 0 0 .438-4.102Zm-3.28 7.928a3.068 3.068 0 0 0-3.013-.103 2.971 2.971 0 0 0-1.15-2.79 2.962 2.962 0 0 0 2.294-1.724 3.03 3.03 0 0 0 .197.333 3.07 3.07 0 0 0 2.61 1.249 3.064 3.064 0 0 0-.939 3.035Z"></path><ellipse cx="183.959" cy="88.929" fill="#fff" rx="2.894" ry="2.762" transform="rotate(-36.353 183.959 88.93)"></ellipse><path fill="#f05b43" d="M185.281 90.726a2.233 2.233 0 1 1 .54-3.168 2.275 2.275 0 0 1-.54 3.168Zm-2.012-2.734a1.167 1.167 0 1 0 1.693.199 1.208 1.208 0 0 0-1.693-.2ZM538.932 149.343a3.074 3.074 0 0 0-3.074-3.074 3.04 3.04 0 0 0-1.461.385 3.03 3.03 0 0 0 .038-.385 3.074 3.074 0 1 0-6.148 0 3.043 3.043 0 0 0 .123.815 3.04 3.04 0 0 0-1.408-.356 3.068 3.068 0 0 0-.48 6.1 3.07 3.07 0 1 0 5.069 3.27 3.073 3.073 0 1 0 4.557-3.71 3.064 3.064 0 0 0 2.784-3.045Zm-7.341 4.44a3.068 3.068 0 0 0-2.365-1.868 2.971 2.971 0 0 0 .727-2.928 2.962 2.962 0 0 0 2.87-.029 3.03 3.03 0 0 0-.04.385 3.07 3.07 0 0 0 1.363 2.553 3.064 3.064 0 0 0-2.555 1.888Z"></path><ellipse cx="531.43" cy="151.08" fill="#fff" rx="2.894" ry="2.762"></ellipse><path fill="#ffcb5c" d="M531.43 153.31a2.233 2.233 0 1 1 2.313-2.23 2.275 2.275 0 0 1-2.313 2.23Zm0-3.394a1.167 1.167 0 1 0 1.245 1.163 1.208 1.208 0 0 0-1.245-1.163ZM291.976 179.509a3.074 3.074 0 0 0-3.074-3.074 3.04 3.04 0 0 0-1.461.385 3.03 3.03 0 0 0 .039-.385 3.074 3.074 0 1 0-6.149 0 3.043 3.043 0 0 0 .124.815 3.04 3.04 0 0 0-1.408-.357 3.068 3.068 0 0 0-.48 6.1 3.07 3.07 0 1 0 5.068 3.271 3.073 3.073 0 1 0 4.557-3.71 3.064 3.064 0 0 0 2.784-3.045Zm-7.341 4.44a3.068 3.068 0 0 0-2.365-1.868 2.971 2.971 0 0 0 .728-2.928 2.962 2.962 0 0 0 2.869-.03 3.03 3.03 0 0 0-.039.386 3.07 3.07 0 0 0 1.362 2.553 3.064 3.064 0 0 0-2.555 1.887Z"></path><ellipse cx="284.474" cy="181.245" fill="#fff" rx="2.894" ry="2.762"></ellipse><path fill="#f05b43" d="M284.474 183.476a2.233 2.233 0 1 1 2.313-2.231 2.275 2.275 0 0 1-2.313 2.231Zm0-3.395a1.167 1.167 0 1 0 1.246 1.164 1.208 1.208 0 0 0-1.246-1.164ZM309.338 188.937a3.074 3.074 0 0 0-1.135-4.197 3.04 3.04 0 0 0-1.459-.394 3.03 3.03 0 0 0 .226-.314 3.074 3.074 0 1 0-5.332-3.062 3.043 3.043 0 0 0-.3.768 3.04 3.04 0 0 0-1.043-1.01 3.068 3.068 0 0 0-3.454 5.05 3.07 3.07 0 1 0 2.766 5.36 3.073 3.073 0 1 0 5.8-.947 3.064 3.064 0 0 0 3.93-1.254Zm-8.578.194a3.068 3.068 0 0 0-1.12-2.798 2.972 2.972 0 0 0 2.09-2.177 2.962 2.962 0 0 0 2.502 1.404 3.03 3.03 0 0 0-.226.315 3.07 3.07 0 0 0-.09 2.892 3.064 3.064 0 0 0-3.156.364Z"></path><ellipse cx="301.968" cy="186.706" fill="#fff" rx="2.762" ry="2.894" transform="rotate(-60.131 301.968 186.706)"></ellipse><path fill="#ffcb5c" d="M300.857 188.641a2.233 2.233 0 1 1 3.116-.783 2.275 2.275 0 0 1-3.116.783Zm1.69-2.944a1.167 1.167 0 1 0 .5 1.63 1.208 1.208 0 0 0-.5-1.63Z"></path><path fill="#f05b43" d="M355.315 248.611a3.074 3.074 0 0 0-1.135-4.197 3.04 3.04 0 0 0-1.459-.393 3.029 3.029 0 0 0 .226-.315 3.074 3.074 0 1 0-5.332-3.062 3.043 3.043 0 0 0-.3.768 3.04 3.04 0 0 0-1.042-1.01 3.068 3.068 0 0 0-3.455 5.05 3.07 3.07 0 1 0 2.767 5.361 3.073 3.073 0 1 0 5.8-.948 3.064 3.064 0 0 0 3.93-1.254Zm-8.578.195a3.068 3.068 0 0 0-1.12-2.798 2.971 2.971 0 0 0 2.09-2.177 2.962 2.962 0 0 0 2.502 1.403 3.028 3.028 0 0 0-.226.315 3.07 3.07 0 0 0-.09 2.892 3.064 3.064 0 0 0-3.156.365Z"></path><ellipse cx="347.945" cy="246.381" fill="#fff" rx="2.762" ry="2.894" transform="rotate(-60.131 347.945 246.38)"></ellipse><path fill="#ffcb5c" d="M346.834 248.315a2.233 2.233 0 1 1 3.116-.783 2.275 2.275 0 0 1-3.116.783Zm1.69-2.944a1.167 1.167 0 1 0 .5 1.63 1.208 1.208 0 0 0-.5-1.63Z"></path><path fill="#f05b43" d="M239.697 246.04a3.074 3.074 0 0 0-1.135-4.197 3.04 3.04 0 0 0-1.459-.393 3.03 3.03 0 0 0 .226-.315 3.074 3.074 0 1 0-5.332-3.062 3.043 3.043 0 0 0-.3.768 3.04 3.04 0 0 0-1.043-1.01 3.068 3.068 0 0 0-3.454 5.05 3.07 3.07 0 1 0 2.766 5.36 3.073 3.073 0 1 0 5.8-.947 3.064 3.064 0 0 0 3.93-1.254Zm-8.578.195a3.068 3.068 0 0 0-1.12-2.798 2.972 2.972 0 0 0 2.09-2.177 2.962 2.962 0 0 0 2.502 1.403 3.03 3.03 0 0 0-.226.315 3.07 3.07 0 0 0-.09 2.892 3.064 3.064 0 0 0-3.156.365Z"></path><ellipse cx="232.327" cy="243.81" fill="#fff" rx="2.762" ry="2.894" transform="rotate(-60.131 232.327 243.81)"></ellipse><path fill="#ffcb5c" d="M231.216 245.744a2.233 2.233 0 1 1 3.116-.783 2.275 2.275 0 0 1-3.116.783Zm1.69-2.944a1.167 1.167 0 1 0 .5 1.63 1.208 1.208 0 0 0-.5-1.63Z"></path><path fill="#f05b43" d="M434.171 300.477a3.074 3.074 0 0 0-1.135-4.197 3.04 3.04 0 0 0-1.459-.394 3.029 3.029 0 0 0 .226-.315 3.074 3.074 0 1 0-5.332-3.062 3.043 3.043 0 0 0-.3.768 3.04 3.04 0 0 0-1.043-1.01 3.068 3.068 0 0 0-3.454 5.05 3.07 3.07 0 1 0 2.767 5.361 3.073 3.073 0 1 0 5.799-.948 3.064 3.064 0 0 0 3.931-1.253Zm-8.578.194a3.068 3.068 0 0 0-1.12-2.798 2.971 2.971 0 0 0 2.09-2.177 2.962 2.962 0 0 0 2.502 1.404 3.03 3.03 0 0 0-.226.314 3.07 3.07 0 0 0-.09 2.893 3.064 3.064 0 0 0-3.156.364Z"></path><ellipse cx="426.801" cy="298.246" fill="#fff" rx="2.762" ry="2.894" transform="rotate(-60.131 426.8 298.246)"></ellipse><path fill="#ffcb5c" d="M425.69 300.18a2.233 2.233 0 1 1 3.116-.782 2.275 2.275 0 0 1-3.116.783Zm1.69-2.943a1.167 1.167 0 1 0 .5 1.63 1.208 1.208 0 0 0-.5-1.63ZM312.945 156.535a5.54 5.54 0 0 0-5.54-5.54 5.48 5.48 0 0 0-2.634.694 5.46 5.46 0 0 0 .07-.694 5.54 5.54 0 1 0-11.08 0 5.484 5.484 0 0 0 .221 1.469 5.48 5.48 0 0 0-2.537-.642 5.53 5.53 0 0 0-.866 10.993 5.533 5.533 0 1 0 9.135 5.895 5.538 5.538 0 1 0 8.213-6.687 5.522 5.522 0 0 0 5.018-5.488Zm-13.23 8.003a5.529 5.529 0 0 0-4.262-3.367 5.355 5.355 0 0 0 1.31-5.278 5.338 5.338 0 0 0 5.171-.052 5.46 5.46 0 0 0-.07.694 5.534 5.534 0 0 0 2.455 4.601 5.522 5.522 0 0 0-4.605 3.402Z"></path><ellipse cx="299.425" cy="159.665" fill="#fff" rx="5.216" ry="4.978"></ellipse><path fill="#f05b43" d="M299.425 163.685a4.024 4.024 0 1 1 4.168-4.02 4.1 4.1 0 0 1-4.168 4.02Zm0-6.118a2.102 2.102 0 1 0 2.244 2.097 2.177 2.177 0 0 0-2.244-2.097ZM272.012 170.64a5.54 5.54 0 0 0-.63-7.81 5.48 5.48 0 0 0-2.455-1.178 5.46 5.46 0 0 0 .503-.483 5.54 5.54 0 1 0-8.44-7.18 5.483 5.483 0 0 0-.782 1.262 5.48 5.48 0 0 0-1.517-2.133 5.53 5.53 0 0 0-7.783 7.812 5.533 5.533 0 1 0 3.138 10.409 5.538 5.538 0 1 0 10.588.229 5.522 5.522 0 0 0 7.378-.928Zm-15.263-2.478a5.529 5.529 0 0 0-1.063-5.327 5.355 5.355 0 0 0 4.418-3.17 5.338 5.338 0 0 0 3.972 3.311 5.46 5.46 0 0 0-.503.484 5.534 5.534 0 0 0-1.112 5.094 5.522 5.522 0 0 0-5.712-.392Z"></path><ellipse cx="259.687" cy="164.262" fill="#fff" rx="4.978" ry="5.216" transform="rotate(-49.609 259.687 164.262)"></ellipse><path fill="#ffcb5c" d="M257.082 167.325a4.024 4.024 0 1 1 5.78-.362 4.1 4.1 0 0 1-5.78.362Zm3.965-4.66a2.102 2.102 0 1 0 .35 3.051 2.177 2.177 0 0 0-.35-3.052Z"></path><path fill="#f05b43" d="M238.429 131.175a5.54 5.54 0 0 0-7.52 2.202 5.48 5.48 0 0 0-.655 2.643 5.46 5.46 0 0 0-.575-.394 5.54 5.54 0 1 0-5.318 9.721 5.484 5.484 0 0 0 1.395.51 5.48 5.48 0 0 0-1.78 1.919 5.53 5.53 0 0 0 9.229 6.035 5.533 5.533 0 1 0 9.555-5.186 5.538 5.538 0 1 0-1.925-10.414 5.522 5.522 0 0 0-2.406-7.036Zm.671 15.448a5.529 5.529 0 0 0-5 2.123 5.355 5.355 0 0 0-4-3.683 5.338 5.338 0 0 0 2.435-4.561 5.458 5.458 0 0 0 .576.395 5.534 5.534 0 0 0 5.214.054 5.522 5.522 0 0 0 .775 5.672Z"></path><ellipse cx="234.686" cy="144.539" fill="#fff" rx="5.216" ry="4.978" transform="rotate(-61.321 234.686 144.539)"></ellipse><path fill="#ffcb5c" d="M238.213 146.468a4.024 4.024 0 1 1-1.527-5.586 4.1 4.1 0 0 1 1.527 5.586Zm-5.368-2.936a2.102 2.102 0 1 0 2.917-.963 2.177 2.177 0 0 0-2.917.963Z"></path><path fill="#f05b43" d="M343.091 116.09a7.121 7.121 0 0 0-7.121-7.122 7.043 7.043 0 0 0-3.385.892 7.018 7.018 0 0 0 .09-.892 7.121 7.121 0 1 0-14.243 0 7.048 7.048 0 0 0 .285 1.888 7.043 7.043 0 0 0-3.261-.825 7.108 7.108 0 0 0-1.113 14.13 7.112 7.112 0 1 0 11.742 7.577 7.118 7.118 0 1 0 10.556-8.595 7.097 7.097 0 0 0 6.45-7.054Zm-17.006 10.286a7.106 7.106 0 0 0-5.478-4.329 6.883 6.883 0 0 0 1.685-6.783 6.861 6.861 0 0 0 6.646-.067 7.019 7.019 0 0 0-.09.892 7.113 7.113 0 0 0 3.155 5.914 7.098 7.098 0 0 0-5.918 4.373Z"></path><ellipse cx="325.713" cy="120.112" fill="#fff" rx="6.705" ry="6.398"></ellipse><path fill="#ffcb5c" d="M325.713 125.28a5.172 5.172 0 1 1 5.357-5.169 5.27 5.27 0 0 1-5.357 5.169Zm0-7.865a2.702 2.702 0 1 0 2.884 2.696 2.798 2.798 0 0 0-2.884-2.696Z"></path><path fill="#f05b43" d="M426.573 110.392a7.121 7.121 0 0 0-9.806-2.294 7.043 7.043 0 0 0-2.406 2.543 7.018 7.018 0 0 0-.394-.805 7.121 7.121 0 1 0-12.1 7.512 7.048 7.048 0 0 0 1.238 1.454 7.043 7.043 0 0 0-3.206 1.019 7.108 7.108 0 0 0 6.508 12.592 7.112 7.112 0 1 0 13.972.244 7.118 7.118 0 1 0 4.435-12.87 7.097 7.097 0 0 0 1.759-9.395Zm-9.023 17.71a7.106 7.106 0 0 0-6.936-.789 6.883 6.883 0 0 0-2.147-6.652 6.861 6.861 0 0 0 5.611-3.562 7.018 7.018 0 0 0 .395.805 7.113 7.113 0 0 0 5.8 3.36 7.098 7.098 0 0 0-2.723 6.837Z"></path><ellipse cx="413.93" cy="122.976" fill="#fff" rx="6.705" ry="6.398" transform="rotate(-31.834 413.93 122.976)"></ellipse><path fill="#ffcb5c" d="M416.656 127.366a5.172 5.172 0 1 1 1.825-7.217 5.27 5.27 0 0 1-1.825 7.217Zm-4.148-6.682a2.702 2.702 0 1 0 3.873.77 2.798 2.798 0 0 0-3.873-.77Z"></path><path fill="#f05b43" d="M413.35 170.102a2.441 2.441 0 0 0-2.44-2.441 2.414 2.414 0 0 0-1.161.306 2.405 2.405 0 0 0 .03-.306 2.441 2.441 0 1 0-4.881 0 2.416 2.416 0 0 0 .098.647 2.414 2.414 0 0 0-1.118-.283 2.436 2.436 0 0 0-.382 4.844 2.438 2.438 0 1 0 4.025 2.597 2.44 2.44 0 1 0 3.618-2.946 2.433 2.433 0 0 0 2.211-2.418Zm-5.829 3.526a2.436 2.436 0 0 0-1.878-1.484 2.36 2.36 0 0 0 .578-2.325 2.352 2.352 0 0 0 2.278-.023 2.405 2.405 0 0 0-.03.306 2.438 2.438 0 0 0 1.08 2.027 2.433 2.433 0 0 0-2.028 1.499Z"></path><ellipse cx="407.393" cy="171.481" fill="#fff" rx="2.298" ry="2.193"></ellipse><path fill="#ffcb5c" d="M407.394 173.252a1.773 1.773 0 1 1 1.836-1.772 1.807 1.807 0 0 1-1.836 1.772Zm0-2.696a.926.926 0 1 0 .988.924.96.96 0 0 0-.988-.924ZM442.26 128.64a2.441 2.441 0 0 0-2.441-2.441 2.414 2.414 0 0 0-1.16.306 2.405 2.405 0 0 0 .03-.306 2.441 2.441 0 1 0-4.881 0 2.416 2.416 0 0 0 .097.647 2.414 2.414 0 0 0-1.118-.283 2.436 2.436 0 0 0-.38 4.844 2.438 2.438 0 1 0 4.024 2.597 2.44 2.44 0 1 0 3.618-2.946 2.433 2.433 0 0 0 2.211-2.418Zm-5.83 3.526a2.436 2.436 0 0 0-1.877-1.484 2.36 2.36 0 0 0 .578-2.325 2.352 2.352 0 0 0 2.278-.023 2.406 2.406 0 0 0-.031.306 2.438 2.438 0 0 0 1.082 2.027 2.433 2.433 0 0 0-2.03 1.499Z"></path><ellipse cx="436.303" cy="130.019" fill="#fff" rx="2.298" ry="2.193"></ellipse><path fill="#f05b43" d="M436.303 131.79a1.773 1.773 0 1 1 1.836-1.772 1.807 1.807 0 0 1-1.836 1.772Zm0-2.696a.926.926 0 1 0 .989.924.96.96 0 0 0-.989-.924Z"></path><path fill="#ffcb5c" d="M520.863 296.06a2.441 2.441 0 0 0-2.441-2.441.603.603 0 1 1-1.13 0 2.441 2.441 0 1 0-4.882 0 .587.587 0 1 1-1.02.364 2.436 2.436 0 0 0-.381 4.844 188.828 188.828 0 0 1 6.283 4.119 2.44 2.44 0 0 0 1.36-4.468 2.433 2.433 0 0 0 2.21-2.418Zm-5.83 3.526a2.436 2.436 0 0 0-1.877-1.484 1.327 1.327 0 1 1 1.695-2.042.603.603 0 1 1 1.13 0 2.438 2.438 0 0 0 1.081 2.027 2.433 2.433 0 0 0-2.028 1.499Z"></path><ellipse cx="514.906" cy="297.439" fill="#fff" rx="2.298" ry="2.193"></ellipse><path fill="#f05b43" d="M514.906 299.21a1.773 1.773 0 1 1 1.836-1.772 1.807 1.807 0 0 1-1.836 1.772Zm0-2.696a.926.926 0 1 0 .989.924.96.96 0 0 0-.989-.924Z"></path><path fill="#ffcb5c" d="M440.433 259.645a2.441 2.441 0 0 0-2.441-2.441.603.603 0 1 1-1.13 0 2.441 2.441 0 1 0-4.882 0 2.416 2.416 0 0 0 .098.647 2.414 2.414 0 0 0-1.118-.283 2.436 2.436 0 0 0-.381 4.844 2.438 2.438 0 1 0 4.024 2.597 2.44 2.44 0 1 0 3.619-2.946 2.433 2.433 0 0 0 2.21-2.418Zm-5.83 3.526a2.436 2.436 0 0 0-1.877-1.484 2.36 2.36 0 0 0 .577-2.325 1.14 1.14 0 1 1 2.248.283 2.438 2.438 0 0 0 1.081 2.027 2.433 2.433 0 0 0-2.029 1.499Z"></path><ellipse cx="434.476" cy="261.023" fill="#fff" rx="2.298" ry="2.193"></ellipse><path fill="#f05b43" d="M434.476 262.795a1.773 1.773 0 1 1 1.836-1.772 1.807 1.807 0 0 1-1.836 1.772Zm0-2.696a.926.926 0 1 0 .989.924.96.96 0 0 0-.989-.924Z"></path><path fill="#ffcb5c" d="M265.6 214.466a2.441 2.441 0 0 0-2.441-2.44 2.414 2.414 0 0 0-1.16.305 2.404 2.404 0 0 0 .03-.306 2.441 2.441 0 1 0-4.882 0 2.416 2.416 0 0 0 .098.647 2.414 2.414 0 0 0-1.118-.283 2.436 2.436 0 0 0-.381 4.844 2.438 2.438 0 1 0 4.024 2.597 2.44 2.44 0 1 0 3.619-2.946 2.433 2.433 0 0 0 2.21-2.418Zm-5.83 3.526a2.436 2.436 0 0 0-1.877-1.484 2.36 2.36 0 0 0 .577-2.325 2.352 2.352 0 0 0 2.278-.023 2.406 2.406 0 0 0-.03.306 2.438 2.438 0 0 0 1.081 2.027 2.433 2.433 0 0 0-2.029 1.499Z"></path><ellipse cx="259.643" cy="215.845" fill="#fff" rx="2.298" ry="2.193"></ellipse><path fill="#f05b43" d="M259.643 217.616a1.773 1.773 0 1 1 1.836-1.771 1.807 1.807 0 0 1-1.836 1.771Zm0-2.696a.926.926 0 1 0 .989.925.96.96 0 0 0-.99-.925Z"></path><path fill="#ffcb5c" d="M162.502 142.036a2.441 2.441 0 0 0-2.44-2.441 2.414 2.414 0 0 0-1.161.306 2.405 2.405 0 0 0 .03-.306 2.441 2.441 0 1 0-4.881 0 2.416 2.416 0 0 0 .097.647 2.414 2.414 0 0 0-1.117-.283 2.436 2.436 0 0 0-.382 4.844 2.438 2.438 0 1 0 4.025 2.597 2.44 2.44 0 1 0 3.618-2.946 2.433 2.433 0 0 0 2.211-2.418Zm-5.83 3.526a2.436 2.436 0 0 0-1.877-1.484 2.36 2.36 0 0 0 .578-2.325 2.352 2.352 0 0 0 2.278-.023 2.405 2.405 0 0 0-.03.306 2.438 2.438 0 0 0 1.08 2.027 2.433 2.433 0 0 0-2.028 1.499Z"></path><ellipse cx="156.545" cy="143.415" fill="#fff" rx="2.298" ry="2.193"></ellipse><path fill="#f05b43" d="M156.545 145.186a1.773 1.773 0 1 1 1.837-1.771 1.807 1.807 0 0 1-1.837 1.771Zm0-2.696a.926.926 0 1 0 .99.925.96.96 0 0 0-.99-.925Z"></path><path fill="#ffcb5c" d="M380.24 76.347a2.441 2.441 0 0 0-2.442-2.44 2.414 2.414 0 0 0-1.16.305 2.406 2.406 0 0 0 .031-.306 2.441 2.441 0 1 0-4.882 0 2.416 2.416 0 0 0 .098.647 2.414 2.414 0 0 0-1.118-.283 2.436 2.436 0 0 0-.381 4.844 2.438 2.438 0 1 0 4.024 2.597 2.44 2.44 0 1 0 3.618-2.946 2.433 2.433 0 0 0 2.211-2.418Zm-5.83 3.526a2.436 2.436 0 0 0-1.877-1.484 2.36 2.36 0 0 0 .577-2.325 2.352 2.352 0 0 0 2.278-.023 2.406 2.406 0 0 0-.03.306 2.438 2.438 0 0 0 1.08 2.027 2.433 2.433 0 0 0-2.028 1.499Z"></path><ellipse cx="374.283" cy="77.726" fill="#fff" rx="2.298" ry="2.193"></ellipse><path fill="#f05b43" d="M374.283 79.497a1.773 1.773 0 1 1 1.836-1.771 1.807 1.807 0 0 1-1.836 1.771Zm0-2.695a.926.926 0 1 0 .988.924.96.96 0 0 0-.988-.924Z"></path><path fill="#59625f" d="M204.22 409.47h6.594v22.872h-6.594zM152.648 409.47h6.594v22.872h-6.594z"></path><path fill="#434947" d="M152.648 422.96v9.382-22.872h6.593l-6.593 13.49zM204.22 422.96v9.382-22.872h6.594l-6.594 13.49z"></path><path fill="#59625f" d="M212.257 446.839h10.892v57.914h-10.892z"></path><path fill="#434947" d="m212.257 477.76 10.891-30.921h-10.891v57.915-26.994z"></path><path fill="#59625f" d="M140.314 446.839h10.892v57.914h-10.892z"></path><path fill="#434947" d="m140.314 475.796 10.891-28.957h-10.891v57.915-28.958z"></path><path fill="#ffcb5c" d="M219.4 409.47a530.329 530.329 0 0 1-75.338 0 19.327 19.327 0 0 0 12.104-17.721c6.552 1.553 44.423 1.59 51.13 0a19.627 19.627 0 0 0 2.459 9.17 20.037 20.037 0 0 0 9.645 8.55ZM237.454 452.636a784.501 784.501 0 0 1-111.446 0 28.59 28.59 0 0 0 17.906-26.215c9.692 2.297 65.713 2.352 75.634 0a29.035 29.035 0 0 0 3.638 13.565 29.64 29.64 0 0 0 14.268 12.65Z"></path><path fill="#f29720" d="M198.877 410.517c-28.013-.666-25.052-17.66-25.052-17.66-8.126-.146-15.164-.517-17.659-1.108a19.327 19.327 0 0 1-12.104 17.72 530.221 530.221 0 0 0 37.257 1.34c6.014.005 11.853-.107 17.558-.292ZM126.008 452.635a784.2 784.2 0 0 0 55.113 1.982c1.078 0 2.117-.024 3.189-.028-21.377-2.817-25.069-26.834-25.069-26.834l-.019-.002c-7.142-.292-12.793-.735-15.308-1.332a28.59 28.59 0 0 1-17.906 26.214Z"></path><path fill="#f05b43" d="M184.922 400.317c-16.491 0-29.703-1.455-29.895-1.476l.263-2.35c.275.03 27.877 3.07 53.004.3l.258 2.35a219.005 219.005 0 0 1-23.63 1.176Z"></path><path fill="#cf2633" d="M174.22 397.758c-10.1-.363-17.462-1.112-18.722-1.246-.098.37-.208.745-.337 1.134l-.134 1.195c.152.017 8.471.93 20.103 1.31a13.426 13.426 0 0 1-.91-2.393Z"></path><path fill="#f29720" d="M223.186 439.986a28.556 28.556 0 0 1-3.054-8.284s-15.612 13.737-19.692 15.138c0 0 3.36 5.016 13.535 7.106q12.072-.497 23.479-1.31a29.638 29.638 0 0 1-14.268-12.65Z"></path><path fill="#f05b43" d="M179.214 438.863c-23.275 0-36.82-2.445-37.02-2.485l.434-2.323c.3.055 30.424 5.485 78.319-.014l.268 2.351a369.533 369.533 0 0 1-42.001 2.471Z"></path><path fill="#cf2633" d="M216.914 434.481c-.938.8-2.029 1.722-3.198 2.696q3.676-.35 7.499-.785l-.133-1.167q-.198-.588-.364-1.159-1.922.22-3.804.415ZM161.673 436.008a179.513 179.513 0 0 1-18.912-1.93c-.103.356-.218.715-.34 1.081l-.227 1.22a182.09 182.09 0 0 0 20.74 2.062 27.514 27.514 0 0 1-1.261-2.433Z"></path><path fill="#59625f" d="M372.25 417.065h15v87.688h-15zM354.021 362.722h12.583v43.648h-12.583zM402.816 417.065h15v87.688h-15z"></path><path fill="#434947" d="m417.816 451.772-15 52.982v-87.689h15v34.707z"></path><path fill="#59625f" d="M501.896 417.065h15v87.688h-15z"></path><path fill="#434947" d="M501.896 460.909v43.845-87.689h15l-15 43.844z"></path><path fill="#ffcb5c" d="M536.598 417.6a1080.409 1080.409 0 0 1-153.483 0 39.374 39.374 0 0 0 24.66-36.102c13.348 3.164 90.5 3.238 104.163 0a39.986 39.986 0 0 0 5.01 18.68 40.82 40.82 0 0 0 19.65 17.422Z"></path><path fill="#f29720" d="m445.09 384.547-.802-.784c-16.78-.29-31.376-1.048-36.513-2.265a39.374 39.374 0 0 1-24.66 36.102 1080.295 1080.295 0 0 0 75.902 2.728q4.77.004 9.474-.037c-24.673-2.323-23.4-35.744-23.4-35.744Z"></path><path fill="#59625f" d="M255.602 362.722h12.583v43.648h-12.583z"></path><path fill="#434947" d="M255.602 382.876v23.495-43.649h12.583l-12.583 20.154zM354.39 382.876v23.495-43.649h12.583l-12.583 20.154z"></path><path fill="#f05b43" d="M382.989 362.722a1012.094 1012.094 0 0 1-143.772 0 36.883 36.883 0 0 0 23.1-33.818c12.504 2.964 84.773 3.034 97.572 0a37.456 37.456 0 0 0 4.693 17.5 38.237 38.237 0 0 0 18.407 16.318Z"></path><path fill="#59625f" d="M234.957 417.065h15v87.688h-15z"></path><path fill="#434947" d="m234.702 482.908.255 21.846v-87.689h15l-15.255 65.843zM372.122 482.908l.255 21.846v-87.689h15l-15.255 65.843z"></path><path fill="#f05b43" d="M417.442 447.99a1497.109 1497.109 0 0 1-212.678 0 54.56 54.56 0 0 0 34.17-50.025c18.497 4.384 125.405 4.487 144.338 0a55.408 55.408 0 0 0 6.942 25.885 56.563 56.563 0 0 0 27.228 24.14Z"></path><path fill="#cf2633" d="M205.333 448.029a1496.875 1496.875 0 0 0 104.607 3.743q14.359.01 28.308-.247h-.001c-59.169-9.815-53.634-50.246-53.634-50.246l-.978-.292c-20.72-.47-38.191-1.48-44.7-3.022a54.547 54.547 0 0 1-33.636 49.802ZM298.66 331.062h-.004c-16.608-.243-31.31-.966-36.34-2.158a36.882 36.882 0 0 1-23.099 33.818 1012.02 1012.02 0 0 0 71.1 2.556c4.818.004 9.569-.038 14.285-.1-29.355-8.05-25.942-34.116-25.942-34.116Z"></path><path fill="#ffcb5c" d="M313.245 342.607a470.638 470.638 0 0 1-52.476-2.827l.295-2.346c.504.062 50.897 6.295 100.131 0l.3 2.346a385.888 385.888 0 0 1-48.25 2.827ZM314.853 418.3c-44.025 0-78.06-3.295-78.569-3.344l.231-2.355c.762.076 77.134 7.459 149.227.002l.245 2.351a701.258 701.258 0 0 1-71.134 3.346Z"></path><path fill="#f05b43" d="M456.138 403.444c-40.38 0-52.112-3.7-52.763-3.917l.745-2.245c.222.074 22.984 7.15 112.755 1.716l.143 2.36c-25.279 1.53-45.23 2.086-60.88 2.086Z"></path></svg>